G75*
%MOIN*%
%OFA0B0*%
%FSLAX24Y24*%
%IPPOS*%
%LPD*%
%AMOC8*
5,1,8,0,0,1.08239X$1,22.5*
%
%ADD10C,0.5000*%
%ADD11R,0.2000X0.1000*%
%ADD12C,0.0400*%
%ADD13C,0.0080*%
%ADD14C,0.0240*%
%ADD15C,0.0120*%
%ADD16C,0.0060*%
%ADD17C,0.0360*%
D10*
X041880Y031693D03*
D11*
X041880Y027193D03*
X041880Y036193D03*
D12*
X046150Y040632D03*
X021735Y040632D03*
X021875Y024532D03*
D13*
X021440Y022397D02*
X021440Y032777D01*
X023333Y032777D01*
X023380Y032824D01*
X023380Y040917D01*
X045883Y040917D01*
X045819Y040853D01*
X045760Y040709D01*
X045760Y040666D01*
X045613Y040727D01*
X045287Y040727D01*
X044985Y040602D01*
X044755Y040371D01*
X044630Y040070D01*
X044630Y039744D01*
X044755Y039442D01*
X044985Y039212D01*
X045287Y039087D01*
X045613Y039087D01*
X045914Y039212D01*
X046145Y039442D01*
X046270Y039744D01*
X046270Y040070D01*
X046199Y040242D01*
X046227Y040242D01*
X046371Y040301D01*
X046460Y040390D01*
X046460Y024748D01*
X046442Y024792D01*
X046325Y024909D01*
X046172Y024972D01*
X046007Y024972D01*
X045855Y024909D01*
X045738Y024792D01*
X045690Y024675D01*
X045642Y024792D01*
X045525Y024909D01*
X045372Y024972D01*
X045207Y024972D01*
X045055Y024909D01*
X044938Y024792D01*
X044875Y024639D01*
X044875Y024474D01*
X044938Y024322D01*
X045055Y024205D01*
X045144Y024168D01*
X044985Y024102D01*
X044755Y023871D01*
X044630Y023570D01*
X044630Y023244D01*
X044755Y022942D01*
X038556Y022942D01*
X038556Y022916D02*
X038427Y022787D01*
X038245Y022787D01*
X038116Y022916D01*
X038116Y023098D01*
X038206Y023188D01*
X038206Y023687D01*
X037526Y024367D01*
X027181Y024367D01*
X027091Y024277D01*
X026909Y024277D01*
X026780Y024406D01*
X026780Y024588D01*
X026909Y024717D01*
X027091Y024717D01*
X027181Y024627D01*
X037634Y024627D01*
X038466Y023795D01*
X038466Y023188D01*
X038556Y023098D01*
X038556Y022916D01*
X038503Y022863D02*
X044834Y022863D01*
X044912Y022785D02*
X035612Y022785D01*
X035690Y022863D02*
X038168Y022863D01*
X038116Y022942D02*
X035769Y022942D01*
X035847Y023020D02*
X038116Y023020D01*
X038117Y023099D02*
X035926Y023099D01*
X036004Y023177D02*
X038195Y023177D01*
X038206Y023256D02*
X036083Y023256D01*
X036161Y023334D02*
X038206Y023334D01*
X038206Y023413D02*
X036367Y023413D01*
X036420Y023466D02*
X036420Y023648D01*
X036291Y023777D01*
X036109Y023777D01*
X035980Y023648D01*
X035980Y023521D01*
X035406Y022947D01*
X034821Y022947D01*
X034731Y023037D01*
X034549Y023037D01*
X034420Y022908D01*
X034420Y022726D01*
X034549Y022597D01*
X034731Y022597D01*
X034821Y022687D01*
X035514Y022687D01*
X036164Y023337D01*
X036291Y023337D01*
X036420Y023466D01*
X036420Y023491D02*
X038206Y023491D01*
X038206Y023570D02*
X037344Y023570D01*
X037291Y023517D02*
X037420Y023646D01*
X037420Y023828D01*
X037291Y023957D01*
X037164Y023957D01*
X037110Y024011D01*
X037110Y024011D01*
X037071Y024049D01*
X037034Y024087D01*
X037033Y024087D01*
X036979Y024087D01*
X036926Y024087D01*
X036926Y024086D01*
X033500Y024068D01*
X033411Y024157D01*
X033229Y024157D01*
X033100Y024028D01*
X033100Y023846D01*
X033229Y023717D01*
X033411Y023717D01*
X033502Y023808D01*
X036926Y023826D01*
X036980Y023773D01*
X036980Y023646D01*
X037109Y023517D01*
X037291Y023517D01*
X037420Y023648D02*
X038206Y023648D01*
X038166Y023727D02*
X037420Y023727D01*
X037420Y023805D02*
X038087Y023805D01*
X038009Y023884D02*
X037364Y023884D01*
X037158Y023962D02*
X037930Y023962D01*
X037852Y024041D02*
X037080Y024041D01*
X037033Y024087D02*
X037033Y024087D01*
X036947Y023805D02*
X033499Y023805D01*
X033421Y023727D02*
X034044Y023727D01*
X033981Y023664D02*
X033981Y023482D01*
X034110Y023353D01*
X034292Y023353D01*
X034421Y023482D01*
X034421Y023664D01*
X034292Y023793D01*
X034110Y023793D01*
X033981Y023664D01*
X033981Y023648D02*
X025548Y023648D01*
X025554Y023654D02*
X025596Y023757D01*
X025596Y023868D01*
X025554Y023971D01*
X025475Y024050D01*
X025372Y024093D01*
X025261Y024093D01*
X025158Y024050D01*
X025079Y023971D01*
X025036Y023868D01*
X025036Y023757D01*
X025079Y023654D01*
X025158Y023575D01*
X025261Y023533D01*
X025372Y023533D01*
X025475Y023575D01*
X025554Y023654D01*
X025584Y023727D02*
X033219Y023727D01*
X033140Y023805D02*
X025596Y023805D01*
X025590Y023884D02*
X033100Y023884D01*
X033100Y023962D02*
X025557Y023962D01*
X025484Y024041D02*
X033113Y024041D01*
X033191Y024119D02*
X022872Y024119D01*
X022914Y024102D02*
X022613Y024227D01*
X022287Y024227D01*
X021985Y024102D01*
X021755Y023871D01*
X021630Y023570D01*
X021630Y023244D01*
X021755Y022942D01*
X021440Y022942D01*
X021440Y023020D02*
X021722Y023020D01*
X021755Y022942D02*
X021985Y022712D01*
X022287Y022587D01*
X022613Y022587D01*
X022914Y022712D01*
X023145Y022942D01*
X023270Y023244D01*
X023270Y023570D01*
X023145Y023871D01*
X022914Y024102D01*
X022975Y024041D02*
X025148Y024041D01*
X025075Y023962D02*
X023054Y023962D01*
X023132Y023884D02*
X025043Y023884D01*
X025036Y023805D02*
X023172Y023805D01*
X023205Y023727D02*
X025049Y023727D01*
X025085Y023648D02*
X023237Y023648D01*
X023270Y023570D02*
X025171Y023570D01*
X025461Y023570D02*
X033981Y023570D01*
X033981Y023491D02*
X023270Y023491D01*
X023270Y023413D02*
X034050Y023413D01*
X034352Y023413D02*
X035872Y023413D01*
X035950Y023491D02*
X034421Y023491D01*
X034421Y023570D02*
X035980Y023570D01*
X035980Y023648D02*
X034421Y023648D01*
X034358Y023727D02*
X036059Y023727D01*
X036341Y023727D02*
X036980Y023727D01*
X036980Y023648D02*
X036419Y023648D01*
X036420Y023570D02*
X037056Y023570D01*
X037695Y024198D02*
X022683Y024198D01*
X022217Y024198D02*
X022088Y024198D01*
X022096Y024201D02*
X022205Y024311D01*
X022265Y024454D01*
X022265Y024609D01*
X022205Y024753D01*
X022096Y024862D01*
X021952Y024922D01*
X021797Y024922D01*
X021654Y024862D01*
X021544Y024753D01*
X021485Y024609D01*
X021485Y024454D01*
X021544Y024311D01*
X021654Y024201D01*
X021797Y024142D01*
X021952Y024142D01*
X022096Y024201D01*
X022171Y024276D02*
X037616Y024276D01*
X037538Y024355D02*
X027169Y024355D01*
X027139Y024669D02*
X044078Y024669D01*
X044156Y024747D02*
X022208Y024747D01*
X022240Y024669D02*
X026861Y024669D01*
X026782Y024590D02*
X022265Y024590D01*
X022265Y024512D02*
X026780Y024512D01*
X026780Y024433D02*
X022256Y024433D01*
X022224Y024355D02*
X026831Y024355D01*
X026006Y027207D02*
X028854Y027207D01*
X028930Y027283D01*
X029090Y027443D01*
X029090Y028716D01*
X029180Y028806D01*
X029180Y028988D01*
X029051Y029117D01*
X028869Y029117D01*
X028740Y028988D01*
X028740Y028806D01*
X028830Y028716D01*
X028830Y027551D01*
X028746Y027467D01*
X026114Y027467D01*
X024050Y029531D01*
X023974Y029607D01*
X023581Y029607D01*
X023491Y029697D01*
X023309Y029697D01*
X023180Y029568D01*
X023180Y029386D01*
X023309Y029257D01*
X023491Y029257D01*
X023581Y029347D01*
X023866Y029347D01*
X025186Y028027D01*
X025109Y028027D01*
X025019Y027937D01*
X023736Y027937D01*
X023610Y028072D01*
X023610Y028208D01*
X023481Y028337D01*
X023299Y028337D01*
X023170Y028208D01*
X023170Y028026D01*
X023299Y027897D01*
X023418Y027897D01*
X023550Y027755D01*
X023550Y027753D01*
X023586Y027716D01*
X023622Y027679D01*
X023624Y027678D01*
X023626Y027677D01*
X023678Y027677D01*
X023729Y027675D01*
X023731Y027677D01*
X025019Y027677D01*
X025109Y027587D01*
X025291Y027587D01*
X025420Y027716D01*
X025420Y027793D01*
X026006Y027207D01*
X025953Y027259D02*
X021440Y027259D01*
X021440Y027181D02*
X029200Y027181D01*
X029156Y027137D02*
X029029Y027137D01*
X028900Y027008D01*
X028900Y026826D01*
X029029Y026697D01*
X029211Y026697D01*
X029340Y026826D01*
X029340Y026953D01*
X029554Y027167D01*
X029630Y027243D01*
X029630Y029011D01*
X029040Y029601D01*
X029040Y029728D01*
X028911Y029857D01*
X028729Y029857D01*
X028600Y029728D01*
X028600Y029546D01*
X028729Y029417D01*
X028856Y029417D01*
X029370Y028903D01*
X029370Y027351D01*
X029156Y027137D01*
X028994Y027102D02*
X021440Y027102D01*
X021440Y027024D02*
X028916Y027024D01*
X028900Y026945D02*
X021440Y026945D01*
X021440Y026867D02*
X028900Y026867D01*
X028937Y026788D02*
X021440Y026788D01*
X021440Y026710D02*
X029016Y026710D01*
X029224Y026710D02*
X040780Y026710D01*
X040780Y026651D02*
X040838Y026593D01*
X042921Y026593D01*
X042980Y026651D01*
X042980Y027734D01*
X042921Y027793D01*
X041050Y027793D01*
X040480Y028363D01*
X040386Y028457D01*
X039626Y028457D01*
X038880Y029203D01*
X038880Y032603D01*
X038120Y033363D01*
X038120Y034510D01*
X039386Y035777D01*
X040780Y035777D01*
X040780Y035651D01*
X040838Y035593D01*
X042921Y035593D01*
X042980Y035651D01*
X042980Y036734D01*
X042921Y036793D01*
X042129Y036793D01*
X042175Y037336D01*
X042248Y037410D01*
X042248Y037592D01*
X042119Y037721D01*
X041937Y037721D01*
X041808Y037592D01*
X041808Y037410D01*
X041856Y037362D01*
X041808Y036793D01*
X041087Y036793D01*
X041140Y036846D01*
X041140Y037028D01*
X041011Y037157D01*
X040829Y037157D01*
X040770Y037098D01*
X040770Y037258D01*
X040860Y037348D01*
X040860Y037530D01*
X040731Y037659D01*
X040549Y037659D01*
X040420Y037530D01*
X040420Y037348D01*
X040510Y037258D01*
X040510Y036827D01*
X040586Y036751D01*
X040654Y036683D01*
X040654Y036575D01*
X040406Y036327D01*
X040341Y036327D01*
X040360Y036346D01*
X040360Y036528D01*
X040231Y036657D01*
X040049Y036657D01*
X039959Y036567D01*
X039594Y036567D01*
X039110Y037051D01*
X039034Y037127D01*
X037701Y037127D01*
X037611Y037217D01*
X037429Y037217D01*
X037300Y037088D01*
X037300Y036906D01*
X037429Y036777D01*
X037611Y036777D01*
X037701Y036867D01*
X038639Y036867D01*
X038550Y036778D01*
X038550Y036651D01*
X037426Y035527D01*
X037289Y035527D01*
X037160Y035398D01*
X037160Y035216D01*
X037289Y035087D01*
X037471Y035087D01*
X037600Y035216D01*
X037600Y035333D01*
X038734Y036467D01*
X038861Y036467D01*
X038990Y036596D01*
X038990Y036778D01*
X038901Y036867D01*
X038926Y036867D01*
X039466Y036327D01*
X039110Y036327D01*
X037130Y034347D01*
X037054Y034271D01*
X037054Y031553D01*
X035564Y030063D01*
X035437Y030063D01*
X035308Y029934D01*
X035308Y029752D01*
X035437Y029623D01*
X035619Y029623D01*
X035748Y029752D01*
X035748Y029879D01*
X037314Y031445D01*
X037314Y034163D01*
X039218Y036067D01*
X039224Y036067D01*
X039160Y036003D01*
X037800Y034643D01*
X037800Y033230D01*
X037894Y033137D01*
X038560Y032470D01*
X038560Y029070D01*
X038654Y028977D01*
X039494Y028137D01*
X040254Y028137D01*
X040780Y027610D01*
X040780Y026651D01*
X040800Y026631D02*
X021440Y026631D01*
X021440Y026553D02*
X042990Y026553D01*
X042990Y026631D02*
X042960Y026631D01*
X042980Y026710D02*
X042990Y026710D01*
X042990Y026751D02*
X042990Y025783D01*
X043066Y025707D01*
X043300Y025473D01*
X043300Y025346D01*
X043429Y025217D01*
X043611Y025217D01*
X043740Y025346D01*
X043740Y025528D01*
X043711Y025557D01*
X043840Y025686D01*
X043840Y025868D01*
X043711Y025997D01*
X043529Y025997D01*
X043400Y025868D01*
X043400Y025741D01*
X043250Y025891D01*
X043250Y025957D01*
X043431Y025957D01*
X043521Y026047D01*
X044066Y026047D01*
X044870Y025243D01*
X044946Y025167D01*
X045999Y025167D01*
X046089Y025077D01*
X046271Y025077D01*
X046400Y025206D01*
X046400Y025388D01*
X046271Y025517D01*
X046089Y025517D01*
X045999Y025427D01*
X045054Y025427D01*
X044704Y025777D01*
X044871Y025777D01*
X045000Y025906D01*
X045000Y026027D01*
X045786Y026027D01*
X045960Y025853D01*
X045960Y025726D01*
X046089Y025597D01*
X046271Y025597D01*
X046400Y025726D01*
X046400Y025908D01*
X046271Y026037D01*
X046144Y026037D01*
X045894Y026287D01*
X044886Y026287D01*
X044816Y026217D01*
X044689Y026217D01*
X044560Y026088D01*
X044560Y025921D01*
X044250Y026231D01*
X044204Y026277D01*
X044311Y026277D01*
X044440Y026406D01*
X044440Y026588D01*
X044311Y026717D01*
X044129Y026717D01*
X044039Y026627D01*
X043741Y026627D01*
X043651Y026717D01*
X043469Y026717D01*
X043340Y026588D01*
X043340Y026406D01*
X043349Y026397D01*
X043250Y026397D01*
X043250Y026643D01*
X043384Y026777D01*
X043511Y026777D01*
X043640Y026906D01*
X043640Y027088D01*
X043511Y027217D01*
X043329Y027217D01*
X043200Y027088D01*
X043200Y026961D01*
X043066Y026827D01*
X042990Y026751D01*
X042980Y026788D02*
X043028Y026788D01*
X042980Y026867D02*
X043106Y026867D01*
X043185Y026945D02*
X042980Y026945D01*
X042980Y027024D02*
X043200Y027024D01*
X043214Y027102D02*
X042980Y027102D01*
X042980Y027181D02*
X043293Y027181D01*
X043547Y027181D02*
X045513Y027181D01*
X045455Y027205D02*
X045607Y027142D01*
X045772Y027142D01*
X045925Y027205D01*
X046042Y027322D01*
X046105Y027474D01*
X046105Y027639D01*
X046042Y027792D01*
X045925Y027909D01*
X045772Y027972D01*
X045607Y027972D01*
X045455Y027909D01*
X045338Y027792D01*
X045275Y027639D01*
X045275Y027474D01*
X045338Y027322D01*
X045455Y027205D01*
X045400Y027259D02*
X042980Y027259D01*
X042980Y027338D02*
X045331Y027338D01*
X045299Y027416D02*
X042980Y027416D01*
X042980Y027495D02*
X045275Y027495D01*
X045275Y027573D02*
X042980Y027573D01*
X042980Y027652D02*
X045280Y027652D01*
X045313Y027730D02*
X042980Y027730D01*
X043625Y027102D02*
X046460Y027102D01*
X046460Y027024D02*
X045304Y027024D01*
X045291Y027037D02*
X045109Y027037D01*
X044980Y026908D01*
X044980Y026726D01*
X045109Y026597D01*
X045291Y026597D01*
X045420Y026726D01*
X045420Y026908D01*
X045291Y027037D01*
X045382Y026945D02*
X046460Y026945D01*
X046460Y026867D02*
X045420Y026867D01*
X045420Y026788D02*
X046460Y026788D01*
X046460Y026710D02*
X045404Y026710D01*
X045325Y026631D02*
X046460Y026631D01*
X046460Y026553D02*
X044440Y026553D01*
X044440Y026474D02*
X046460Y026474D01*
X046460Y026396D02*
X044430Y026396D01*
X044351Y026317D02*
X046460Y026317D01*
X046460Y026239D02*
X045942Y026239D01*
X046020Y026160D02*
X046460Y026160D01*
X046460Y026082D02*
X046099Y026082D01*
X046304Y026003D02*
X046460Y026003D01*
X046460Y025925D02*
X046383Y025925D01*
X046400Y025846D02*
X046460Y025846D01*
X046460Y025768D02*
X046400Y025768D01*
X046363Y025689D02*
X046460Y025689D01*
X046460Y025611D02*
X046285Y025611D01*
X046334Y025454D02*
X046460Y025454D01*
X046460Y025532D02*
X044948Y025532D01*
X045027Y025454D02*
X046026Y025454D01*
X046075Y025611D02*
X044870Y025611D01*
X044791Y025689D02*
X045996Y025689D01*
X045960Y025768D02*
X044713Y025768D01*
X044560Y025925D02*
X044556Y025925D01*
X044560Y026003D02*
X044477Y026003D01*
X044399Y026082D02*
X044560Y026082D01*
X044632Y026160D02*
X044320Y026160D01*
X044242Y026239D02*
X044838Y026239D01*
X045000Y026003D02*
X045809Y026003D01*
X045888Y025925D02*
X045000Y025925D01*
X044940Y025846D02*
X045960Y025846D01*
X046400Y025375D02*
X046460Y025375D01*
X046460Y025297D02*
X046400Y025297D01*
X046400Y025218D02*
X046460Y025218D01*
X046460Y025140D02*
X046334Y025140D01*
X046460Y025061D02*
X044910Y025061D01*
X044910Y024983D02*
X046460Y024983D01*
X046460Y024904D02*
X046329Y024904D01*
X046408Y024826D02*
X046460Y024826D01*
X046460Y024366D02*
X046460Y022397D01*
X021440Y022397D01*
X021440Y022471D02*
X046460Y022471D01*
X046460Y022549D02*
X033943Y022549D01*
X033891Y022497D02*
X034020Y022626D01*
X034020Y022808D01*
X033891Y022937D01*
X033709Y022937D01*
X033580Y022808D01*
X033580Y022626D01*
X033709Y022497D01*
X033891Y022497D01*
X034020Y022628D02*
X034518Y022628D01*
X034439Y022706D02*
X034020Y022706D01*
X034020Y022785D02*
X034420Y022785D01*
X034420Y022863D02*
X033964Y022863D01*
X033635Y022863D02*
X023066Y022863D01*
X022987Y022785D02*
X033580Y022785D01*
X033580Y022706D02*
X022901Y022706D01*
X022712Y022628D02*
X033580Y022628D01*
X033656Y022549D02*
X021440Y022549D01*
X021440Y022628D02*
X022188Y022628D01*
X021998Y022706D02*
X021440Y022706D01*
X021440Y022785D02*
X021912Y022785D01*
X021834Y022863D02*
X021440Y022863D01*
X021440Y023099D02*
X021690Y023099D01*
X021657Y023177D02*
X021440Y023177D01*
X021440Y023256D02*
X021630Y023256D01*
X021630Y023334D02*
X021440Y023334D01*
X021440Y023413D02*
X021630Y023413D01*
X021630Y023491D02*
X021440Y023491D01*
X021440Y023570D02*
X021630Y023570D01*
X021662Y023648D02*
X021440Y023648D01*
X021440Y023727D02*
X021695Y023727D01*
X021727Y023805D02*
X021440Y023805D01*
X021440Y023884D02*
X021767Y023884D01*
X021846Y023962D02*
X021440Y023962D01*
X021440Y024041D02*
X021924Y024041D01*
X022027Y024119D02*
X021440Y024119D01*
X021440Y024198D02*
X021662Y024198D01*
X021579Y024276D02*
X021440Y024276D01*
X021440Y024355D02*
X021526Y024355D01*
X021494Y024433D02*
X021440Y024433D01*
X021440Y024512D02*
X021485Y024512D01*
X021485Y024590D02*
X021440Y024590D01*
X021440Y024669D02*
X021509Y024669D01*
X021542Y024747D02*
X021440Y024747D01*
X021440Y024826D02*
X021617Y024826D01*
X021755Y024904D02*
X021440Y024904D01*
X021440Y024983D02*
X044392Y024983D01*
X044470Y025061D02*
X043892Y024483D01*
X043807Y024483D01*
X043678Y024354D01*
X043678Y024172D01*
X043807Y024043D01*
X043989Y024043D01*
X044118Y024172D01*
X044118Y024256D01*
X044696Y024835D01*
X044781Y024835D01*
X044910Y024964D01*
X044910Y025146D01*
X044781Y025275D01*
X044599Y025275D01*
X044470Y025146D01*
X044470Y025061D01*
X021440Y025061D01*
X021440Y025140D02*
X044470Y025140D01*
X044542Y025218D02*
X043612Y025218D01*
X043691Y025297D02*
X044816Y025297D01*
X044837Y025218D02*
X044894Y025218D01*
X044910Y025140D02*
X046026Y025140D01*
X045850Y024904D02*
X045529Y024904D01*
X045608Y024826D02*
X045772Y024826D01*
X045720Y024747D02*
X045660Y024747D01*
X045690Y024438D02*
X045738Y024322D01*
X045855Y024205D01*
X046007Y024142D01*
X046172Y024142D01*
X046325Y024205D01*
X046442Y024322D01*
X046460Y024366D01*
X046460Y024355D02*
X046455Y024355D01*
X046460Y024276D02*
X046396Y024276D01*
X046460Y024198D02*
X046308Y024198D01*
X046460Y024119D02*
X045872Y024119D01*
X045914Y024102D02*
X045613Y024227D01*
X045547Y024227D01*
X045642Y024322D01*
X045690Y024438D01*
X045688Y024433D02*
X045692Y024433D01*
X045724Y024355D02*
X045655Y024355D01*
X045596Y024276D02*
X045783Y024276D01*
X045872Y024198D02*
X045683Y024198D01*
X045914Y024102D02*
X046145Y023871D01*
X046270Y023570D01*
X046270Y023244D01*
X046145Y022942D01*
X045914Y022712D01*
X045613Y022587D01*
X045287Y022587D01*
X044985Y022712D01*
X044755Y022942D01*
X044722Y023020D02*
X038556Y023020D01*
X038555Y023099D02*
X044690Y023099D01*
X044657Y023177D02*
X038476Y023177D01*
X038466Y023256D02*
X044630Y023256D01*
X044630Y023334D02*
X038466Y023334D01*
X038466Y023413D02*
X044630Y023413D01*
X044630Y023491D02*
X038466Y023491D01*
X038466Y023570D02*
X044630Y023570D01*
X044662Y023648D02*
X038466Y023648D01*
X038466Y023727D02*
X044695Y023727D01*
X044727Y023805D02*
X038455Y023805D01*
X038377Y023884D02*
X044767Y023884D01*
X044846Y023962D02*
X038298Y023962D01*
X038220Y024041D02*
X044924Y024041D01*
X045027Y024119D02*
X044065Y024119D01*
X044118Y024198D02*
X045072Y024198D01*
X044983Y024276D02*
X044138Y024276D01*
X044216Y024355D02*
X044924Y024355D01*
X044892Y024433D02*
X044295Y024433D01*
X044373Y024512D02*
X044875Y024512D01*
X044875Y024590D02*
X044452Y024590D01*
X044530Y024669D02*
X044887Y024669D01*
X044920Y024747D02*
X044609Y024747D01*
X044687Y024826D02*
X044972Y024826D01*
X045050Y024904D02*
X044850Y024904D01*
X044737Y025375D02*
X043740Y025375D01*
X043740Y025454D02*
X044659Y025454D01*
X044580Y025532D02*
X043735Y025532D01*
X043711Y025557D02*
X043711Y025557D01*
X043765Y025611D02*
X044502Y025611D01*
X044423Y025689D02*
X043840Y025689D01*
X043840Y025768D02*
X044345Y025768D01*
X044266Y025846D02*
X043840Y025846D01*
X043783Y025925D02*
X044188Y025925D01*
X044109Y026003D02*
X043477Y026003D01*
X043457Y025925D02*
X043250Y025925D01*
X043294Y025846D02*
X043400Y025846D01*
X043400Y025768D02*
X043373Y025768D01*
X043162Y025611D02*
X021440Y025611D01*
X021440Y025689D02*
X043083Y025689D01*
X043066Y025707D02*
X043066Y025707D01*
X043005Y025768D02*
X021440Y025768D01*
X021440Y025846D02*
X042990Y025846D01*
X042990Y025925D02*
X021440Y025925D01*
X021440Y026003D02*
X042990Y026003D01*
X042990Y026082D02*
X021440Y026082D01*
X021440Y026160D02*
X042990Y026160D01*
X042990Y026239D02*
X021440Y026239D01*
X021440Y026317D02*
X042990Y026317D01*
X042990Y026396D02*
X021440Y026396D01*
X021440Y026474D02*
X042990Y026474D01*
X043250Y026474D02*
X043340Y026474D01*
X043340Y026553D02*
X043250Y026553D01*
X043250Y026631D02*
X043383Y026631D01*
X043317Y026710D02*
X043462Y026710D01*
X043522Y026788D02*
X044980Y026788D01*
X044980Y026867D02*
X043601Y026867D01*
X043640Y026945D02*
X045017Y026945D01*
X045096Y027024D02*
X043640Y027024D01*
X043658Y026710D02*
X044122Y026710D01*
X044043Y026631D02*
X043736Y026631D01*
X044318Y026710D02*
X044996Y026710D01*
X045074Y026631D02*
X044396Y026631D01*
X044449Y027757D02*
X044320Y027886D01*
X044320Y028068D01*
X044449Y028197D01*
X044631Y028197D01*
X044760Y028068D01*
X044760Y027886D01*
X044631Y027757D01*
X044449Y027757D01*
X044397Y027809D02*
X041034Y027809D01*
X040956Y027887D02*
X044320Y027887D01*
X044320Y027966D02*
X040877Y027966D01*
X040799Y028044D02*
X044320Y028044D01*
X044375Y028123D02*
X040720Y028123D01*
X040642Y028201D02*
X046460Y028201D01*
X046460Y028123D02*
X044705Y028123D01*
X044760Y028044D02*
X046460Y028044D01*
X046460Y027966D02*
X045787Y027966D01*
X045946Y027887D02*
X046460Y027887D01*
X046460Y027809D02*
X046025Y027809D01*
X046067Y027730D02*
X046460Y027730D01*
X046460Y027652D02*
X046100Y027652D01*
X046105Y027573D02*
X046460Y027573D01*
X046460Y027495D02*
X046105Y027495D01*
X046081Y027416D02*
X046460Y027416D01*
X046460Y027338D02*
X046048Y027338D01*
X045979Y027259D02*
X046460Y027259D01*
X046460Y027181D02*
X045867Y027181D01*
X045355Y027809D02*
X044683Y027809D01*
X044760Y027887D02*
X045433Y027887D01*
X045593Y027966D02*
X044760Y027966D01*
X046460Y028280D02*
X040563Y028280D01*
X040485Y028358D02*
X046460Y028358D01*
X046460Y028437D02*
X040406Y028437D01*
X040268Y028123D02*
X029630Y028123D01*
X029630Y028201D02*
X039429Y028201D01*
X039351Y028280D02*
X029630Y028280D01*
X029630Y028358D02*
X039272Y028358D01*
X039194Y028437D02*
X037066Y028437D01*
X037125Y028496D02*
X036996Y028367D01*
X036814Y028367D01*
X036685Y028496D01*
X036685Y028678D01*
X036814Y028807D01*
X036996Y028807D01*
X037125Y028678D01*
X037125Y028496D01*
X037125Y028515D02*
X039115Y028515D01*
X039037Y028594D02*
X037125Y028594D01*
X037125Y028672D02*
X038263Y028672D01*
X038309Y028627D02*
X038491Y028627D01*
X038620Y028756D01*
X038620Y028938D01*
X038491Y029067D01*
X038309Y029067D01*
X038180Y028938D01*
X038180Y028756D01*
X038309Y028627D01*
X038185Y028751D02*
X037052Y028751D01*
X036758Y028751D02*
X029630Y028751D01*
X029630Y028829D02*
X035206Y028829D01*
X035155Y028881D02*
X035284Y028752D01*
X035466Y028752D01*
X035595Y028881D01*
X035595Y029063D01*
X035466Y029192D01*
X035284Y029192D01*
X035155Y029063D01*
X035155Y028881D01*
X035155Y028908D02*
X029630Y028908D01*
X029630Y028986D02*
X035155Y028986D01*
X035157Y029065D02*
X029576Y029065D01*
X029497Y029143D02*
X035235Y029143D01*
X035514Y029143D02*
X038560Y029143D01*
X038566Y029065D02*
X038493Y029065D01*
X038571Y028986D02*
X038644Y028986D01*
X038620Y028908D02*
X038723Y028908D01*
X038801Y028829D02*
X038620Y028829D01*
X038615Y028751D02*
X038880Y028751D01*
X038958Y028672D02*
X038536Y028672D01*
X038180Y028829D02*
X035543Y028829D01*
X035595Y028908D02*
X038180Y028908D01*
X038228Y028986D02*
X035595Y028986D01*
X035593Y029065D02*
X038307Y029065D01*
X038560Y029222D02*
X029419Y029222D01*
X029340Y029300D02*
X038560Y029300D01*
X038560Y029379D02*
X029262Y029379D01*
X029183Y029457D02*
X038560Y029457D01*
X038560Y029536D02*
X029105Y029536D01*
X029040Y029614D02*
X038560Y029614D01*
X038560Y029693D02*
X035689Y029693D01*
X035748Y029771D02*
X038560Y029771D01*
X038560Y029850D02*
X035748Y029850D01*
X035797Y029928D02*
X038560Y029928D01*
X038560Y030007D02*
X035876Y030007D01*
X035954Y030085D02*
X038560Y030085D01*
X038560Y030164D02*
X036033Y030164D01*
X036111Y030242D02*
X038560Y030242D01*
X038560Y030321D02*
X036190Y030321D01*
X036268Y030399D02*
X038560Y030399D01*
X038560Y030478D02*
X036347Y030478D01*
X036425Y030556D02*
X038560Y030556D01*
X038560Y030635D02*
X036504Y030635D01*
X036582Y030713D02*
X038560Y030713D01*
X038560Y030792D02*
X036661Y030792D01*
X036739Y030870D02*
X038560Y030870D01*
X038560Y030949D02*
X036818Y030949D01*
X036896Y031027D02*
X038560Y031027D01*
X038560Y031106D02*
X036975Y031106D01*
X037053Y031184D02*
X038560Y031184D01*
X038560Y031263D02*
X037132Y031263D01*
X037210Y031341D02*
X038560Y031341D01*
X038560Y031420D02*
X037289Y031420D01*
X037314Y031498D02*
X038560Y031498D01*
X038560Y031577D02*
X037314Y031577D01*
X037314Y031655D02*
X038560Y031655D01*
X038560Y031734D02*
X037314Y031734D01*
X037314Y031812D02*
X038560Y031812D01*
X038560Y031891D02*
X037314Y031891D01*
X037314Y031969D02*
X038560Y031969D01*
X038560Y032048D02*
X037314Y032048D01*
X037314Y032126D02*
X038560Y032126D01*
X038560Y032205D02*
X037314Y032205D01*
X037314Y032283D02*
X038560Y032283D01*
X038560Y032362D02*
X037314Y032362D01*
X037314Y032440D02*
X038560Y032440D01*
X038512Y032519D02*
X037314Y032519D01*
X037314Y032597D02*
X038433Y032597D01*
X038355Y032676D02*
X037314Y032676D01*
X037314Y032754D02*
X038276Y032754D01*
X038198Y032833D02*
X037314Y032833D01*
X037314Y032911D02*
X038119Y032911D01*
X038041Y032990D02*
X037314Y032990D01*
X037314Y033068D02*
X037962Y033068D01*
X037884Y033147D02*
X037314Y033147D01*
X037314Y033225D02*
X037805Y033225D01*
X037800Y033304D02*
X037314Y033304D01*
X037314Y033382D02*
X037800Y033382D01*
X037800Y033461D02*
X037314Y033461D01*
X037314Y033539D02*
X037800Y033539D01*
X037800Y033618D02*
X037314Y033618D01*
X037314Y033696D02*
X037800Y033696D01*
X037800Y033775D02*
X037314Y033775D01*
X037314Y033853D02*
X037800Y033853D01*
X037800Y033932D02*
X037314Y033932D01*
X037314Y034010D02*
X037800Y034010D01*
X037800Y034089D02*
X037314Y034089D01*
X037318Y034167D02*
X037800Y034167D01*
X037800Y034246D02*
X037397Y034246D01*
X037475Y034324D02*
X037800Y034324D01*
X037800Y034403D02*
X037554Y034403D01*
X037632Y034481D02*
X037800Y034481D01*
X037800Y034560D02*
X037711Y034560D01*
X037789Y034638D02*
X037800Y034638D01*
X037868Y034717D02*
X037874Y034717D01*
X037946Y034795D02*
X037952Y034795D01*
X038025Y034874D02*
X038031Y034874D01*
X038103Y034952D02*
X038109Y034952D01*
X038182Y035031D02*
X038188Y035031D01*
X038260Y035109D02*
X038266Y035109D01*
X038339Y035188D02*
X038345Y035188D01*
X038417Y035266D02*
X038423Y035266D01*
X038496Y035345D02*
X038502Y035345D01*
X038574Y035423D02*
X038580Y035423D01*
X038653Y035502D02*
X038659Y035502D01*
X038731Y035580D02*
X038737Y035580D01*
X038810Y035659D02*
X038816Y035659D01*
X038888Y035737D02*
X038894Y035737D01*
X038967Y035816D02*
X038973Y035816D01*
X039045Y035894D02*
X039051Y035894D01*
X039124Y035973D02*
X039130Y035973D01*
X039202Y036051D02*
X039208Y036051D01*
X038992Y036208D02*
X038475Y036208D01*
X038397Y036130D02*
X038913Y036130D01*
X038835Y036051D02*
X038318Y036051D01*
X038240Y035973D02*
X038756Y035973D01*
X038678Y035894D02*
X038161Y035894D01*
X038083Y035816D02*
X038599Y035816D01*
X038521Y035737D02*
X038004Y035737D01*
X037926Y035659D02*
X038442Y035659D01*
X038364Y035580D02*
X037847Y035580D01*
X037769Y035502D02*
X038285Y035502D01*
X038207Y035423D02*
X037690Y035423D01*
X037612Y035345D02*
X038128Y035345D01*
X038050Y035266D02*
X037600Y035266D01*
X037572Y035188D02*
X037971Y035188D01*
X037893Y035109D02*
X037494Y035109D01*
X037266Y035109D02*
X031838Y035109D01*
X031840Y035108D02*
X031711Y035237D01*
X031529Y035237D01*
X031460Y035168D01*
X031331Y035297D01*
X031311Y035297D01*
X031320Y035306D01*
X031320Y035488D01*
X031191Y035617D01*
X031009Y035617D01*
X030880Y035488D01*
X030880Y035361D01*
X030860Y035341D01*
X030860Y035448D01*
X030731Y035577D01*
X030549Y035577D01*
X030420Y035448D01*
X030420Y035266D01*
X030040Y035266D01*
X030040Y035246D02*
X030040Y035428D01*
X029911Y035557D01*
X029729Y035557D01*
X029600Y035428D01*
X029600Y035246D01*
X029690Y035156D01*
X029690Y035115D01*
X029640Y035065D01*
X029640Y035068D01*
X029511Y035197D01*
X029384Y035197D01*
X028590Y035991D01*
X028590Y036971D01*
X027650Y037911D01*
X027640Y037921D01*
X027662Y037921D01*
X029386Y036197D01*
X029462Y036121D01*
X033043Y036121D01*
X033133Y036031D01*
X033315Y036031D01*
X033444Y036160D01*
X033444Y036342D01*
X033315Y036471D01*
X033133Y036471D01*
X033043Y036381D01*
X029570Y036381D01*
X028678Y037273D01*
X035455Y037273D01*
X035545Y037183D01*
X035727Y037183D01*
X035856Y037312D01*
X035856Y037494D01*
X035727Y037623D01*
X035545Y037623D01*
X035455Y037533D01*
X028985Y037533D01*
X029013Y037561D01*
X031388Y037561D01*
X031667Y037840D01*
X031794Y037840D01*
X031923Y037969D01*
X031923Y038151D01*
X031794Y038280D01*
X031612Y038280D01*
X031483Y038151D01*
X031483Y038024D01*
X031280Y037821D01*
X029013Y037821D01*
X028923Y037911D01*
X028741Y037911D01*
X028612Y037782D01*
X028612Y037645D01*
X027896Y038361D01*
X025660Y038361D01*
X025584Y038285D01*
X024956Y037657D01*
X024829Y037657D01*
X024740Y037568D01*
X024740Y037668D01*
X024611Y037797D01*
X024429Y037797D01*
X024300Y037668D01*
X024300Y037486D01*
X024390Y037396D01*
X024390Y037263D01*
X024466Y037187D01*
X024606Y037047D01*
X025074Y037047D01*
X025580Y037553D01*
X025580Y037446D01*
X025670Y037356D01*
X025670Y034491D01*
X022730Y031551D01*
X022730Y030931D01*
X021756Y029957D01*
X021629Y029957D01*
X021500Y029828D01*
X021500Y029646D01*
X021629Y029517D01*
X021811Y029517D01*
X021940Y029646D01*
X021940Y029773D01*
X021940Y029626D01*
X022069Y029497D01*
X022251Y029497D01*
X022380Y029626D01*
X022380Y029808D01*
X022251Y029937D01*
X022104Y029937D01*
X022914Y030747D01*
X022990Y030823D01*
X022990Y031443D01*
X025854Y034307D01*
X025930Y034383D01*
X025930Y037356D01*
X025960Y037386D01*
X025960Y037306D01*
X026050Y037216D01*
X026050Y031263D01*
X027130Y030183D01*
X027206Y030107D01*
X027666Y030107D01*
X027720Y030053D01*
X027720Y029926D01*
X027849Y029797D01*
X028030Y029797D01*
X028030Y029758D01*
X027940Y029668D01*
X027940Y029486D01*
X028069Y029357D01*
X028251Y029357D01*
X028380Y029486D01*
X028380Y029668D01*
X028290Y029758D01*
X028290Y029783D01*
X028330Y029823D01*
X028330Y030171D01*
X028030Y030471D01*
X027954Y030547D01*
X027434Y030547D01*
X026550Y031431D01*
X026550Y037123D01*
X026644Y037217D01*
X026771Y037217D01*
X026900Y037346D01*
X026900Y037473D01*
X026994Y037567D01*
X027059Y037567D01*
X027040Y037548D01*
X027040Y037366D01*
X027130Y037276D01*
X027130Y032223D01*
X027250Y032103D01*
X027326Y032027D01*
X028489Y032027D01*
X028440Y031978D01*
X028440Y031796D01*
X028569Y031667D01*
X028646Y031667D01*
X028586Y031607D01*
X028510Y031531D01*
X028510Y031478D01*
X028420Y031388D01*
X028420Y031206D01*
X028549Y031077D01*
X028731Y031077D01*
X028860Y031206D01*
X028860Y031388D01*
X028797Y031450D01*
X028874Y031527D01*
X029294Y031527D01*
X030014Y032247D01*
X030090Y032323D01*
X030090Y033663D01*
X031094Y034667D01*
X031454Y034667D01*
X031584Y034797D01*
X031711Y034797D01*
X031840Y034926D01*
X031840Y035108D01*
X031840Y035031D02*
X037814Y035031D01*
X037736Y034952D02*
X031840Y034952D01*
X031788Y034874D02*
X037657Y034874D01*
X037579Y034795D02*
X031582Y034795D01*
X031504Y034717D02*
X037500Y034717D01*
X037422Y034638D02*
X031065Y034638D01*
X030987Y034560D02*
X037343Y034560D01*
X037265Y034481D02*
X030908Y034481D01*
X030830Y034403D02*
X031355Y034403D01*
X031300Y034348D02*
X031300Y034166D01*
X031429Y034037D01*
X031611Y034037D01*
X031740Y034166D01*
X031740Y034348D01*
X031611Y034477D01*
X031429Y034477D01*
X031300Y034348D01*
X031300Y034324D02*
X030751Y034324D01*
X030673Y034246D02*
X031300Y034246D01*
X031300Y034167D02*
X030594Y034167D01*
X030516Y034089D02*
X031377Y034089D01*
X031663Y034089D02*
X037054Y034089D01*
X037054Y034167D02*
X031740Y034167D01*
X031740Y034246D02*
X037054Y034246D01*
X037108Y034324D02*
X031740Y034324D01*
X031685Y034403D02*
X037186Y034403D01*
X037054Y034010D02*
X030437Y034010D01*
X030359Y033932D02*
X037054Y033932D01*
X037054Y033853D02*
X030280Y033853D01*
X030202Y033775D02*
X037054Y033775D01*
X037054Y033696D02*
X030123Y033696D01*
X030090Y033618D02*
X037054Y033618D01*
X037054Y033539D02*
X030090Y033539D01*
X030090Y033461D02*
X037054Y033461D01*
X037054Y033382D02*
X030090Y033382D01*
X030090Y033304D02*
X037054Y033304D01*
X037054Y033225D02*
X030090Y033225D01*
X030090Y033147D02*
X035829Y033147D01*
X035889Y033207D02*
X035760Y033078D01*
X035760Y032896D01*
X035889Y032767D01*
X036071Y032767D01*
X036200Y032896D01*
X036200Y033078D01*
X036071Y033207D01*
X035889Y033207D01*
X035760Y033068D02*
X030090Y033068D01*
X030090Y032990D02*
X033882Y032990D01*
X033820Y032928D02*
X033820Y032746D01*
X033910Y032656D01*
X033910Y032651D01*
X032006Y030747D01*
X031174Y030747D01*
X030974Y030947D01*
X029361Y030947D01*
X029271Y031037D01*
X029089Y031037D01*
X028960Y030908D01*
X028960Y030726D01*
X029089Y030597D01*
X029271Y030597D01*
X029361Y030687D01*
X030866Y030687D01*
X030990Y030563D01*
X031066Y030487D01*
X032026Y030487D01*
X031886Y030347D01*
X029121Y030347D01*
X029031Y030437D01*
X028849Y030437D01*
X028720Y030308D01*
X028720Y030126D01*
X028849Y029997D01*
X029031Y029997D01*
X029121Y030087D01*
X031994Y030087D01*
X033320Y031413D01*
X033320Y031326D01*
X033449Y031197D01*
X033631Y031197D01*
X033760Y031326D01*
X033760Y031508D01*
X033631Y031637D01*
X033544Y031637D01*
X034264Y032357D01*
X034391Y032357D01*
X034520Y032486D01*
X034520Y032668D01*
X034391Y032797D01*
X034260Y032797D01*
X034260Y032928D01*
X034131Y033057D01*
X033949Y033057D01*
X033820Y032928D01*
X033820Y032911D02*
X030090Y032911D01*
X030090Y032833D02*
X030905Y032833D01*
X030909Y032837D02*
X030780Y032708D01*
X030780Y032526D01*
X030909Y032397D01*
X031091Y032397D01*
X031220Y032526D01*
X031220Y032708D01*
X031091Y032837D01*
X030909Y032837D01*
X030826Y032754D02*
X030090Y032754D01*
X030090Y032676D02*
X030780Y032676D01*
X030780Y032597D02*
X030090Y032597D01*
X030090Y032519D02*
X030787Y032519D01*
X030865Y032440D02*
X030090Y032440D01*
X030090Y032362D02*
X033621Y032362D01*
X033700Y032440D02*
X031135Y032440D01*
X031213Y032519D02*
X033778Y032519D01*
X033857Y032597D02*
X031220Y032597D01*
X031220Y032676D02*
X033890Y032676D01*
X033820Y032754D02*
X031173Y032754D01*
X031095Y032833D02*
X033820Y032833D01*
X034198Y032990D02*
X035760Y032990D01*
X035760Y032911D02*
X034260Y032911D01*
X034260Y032833D02*
X035823Y032833D01*
X036137Y032833D02*
X037054Y032833D01*
X037054Y032911D02*
X036200Y032911D01*
X036200Y032990D02*
X037054Y032990D01*
X037054Y033068D02*
X036200Y033068D01*
X036131Y033147D02*
X037054Y033147D01*
X037054Y032754D02*
X034433Y032754D01*
X034512Y032676D02*
X037054Y032676D01*
X037054Y032597D02*
X034520Y032597D01*
X034520Y032519D02*
X037054Y032519D01*
X037054Y032440D02*
X034475Y032440D01*
X034396Y032362D02*
X037054Y032362D01*
X037054Y032283D02*
X034190Y032283D01*
X034112Y032205D02*
X037054Y032205D01*
X037054Y032126D02*
X034033Y032126D01*
X033955Y032048D02*
X035830Y032048D01*
X035859Y032077D02*
X035730Y031948D01*
X035730Y031766D01*
X035859Y031637D01*
X036041Y031637D01*
X036170Y031766D01*
X036170Y031948D01*
X036041Y032077D01*
X035859Y032077D01*
X035751Y031969D02*
X033876Y031969D01*
X033798Y031891D02*
X035730Y031891D01*
X035730Y031812D02*
X033719Y031812D01*
X033641Y031734D02*
X035762Y031734D01*
X035840Y031655D02*
X033562Y031655D01*
X033691Y031577D02*
X037054Y031577D01*
X037054Y031655D02*
X036059Y031655D01*
X036138Y031734D02*
X037054Y031734D01*
X037054Y031812D02*
X036170Y031812D01*
X036170Y031891D02*
X037054Y031891D01*
X037054Y031969D02*
X036148Y031969D01*
X036070Y032048D02*
X037054Y032048D01*
X037000Y031498D02*
X033760Y031498D01*
X033760Y031420D02*
X035802Y031420D01*
X035859Y031477D02*
X035730Y031348D01*
X035730Y031166D01*
X035859Y031037D01*
X036041Y031037D01*
X036170Y031166D01*
X036170Y031348D01*
X036041Y031477D01*
X035859Y031477D01*
X035730Y031341D02*
X033760Y031341D01*
X033697Y031263D02*
X035730Y031263D01*
X035730Y031184D02*
X033091Y031184D01*
X033013Y031106D02*
X035790Y031106D01*
X036110Y031106D02*
X036607Y031106D01*
X036686Y031184D02*
X036170Y031184D01*
X036170Y031263D02*
X036764Y031263D01*
X036843Y031341D02*
X036170Y031341D01*
X036098Y031420D02*
X036921Y031420D01*
X036529Y031027D02*
X032934Y031027D01*
X032856Y030949D02*
X036450Y030949D01*
X036372Y030870D02*
X032777Y030870D01*
X032699Y030792D02*
X036293Y030792D01*
X036215Y030713D02*
X032620Y030713D01*
X032542Y030635D02*
X036136Y030635D01*
X036058Y030556D02*
X032463Y030556D01*
X032385Y030478D02*
X035979Y030478D01*
X035901Y030399D02*
X032306Y030399D01*
X032228Y030321D02*
X035822Y030321D01*
X035744Y030242D02*
X032149Y030242D01*
X032071Y030164D02*
X035665Y030164D01*
X035587Y030085D02*
X029119Y030085D01*
X029041Y030007D02*
X035381Y030007D01*
X035308Y029928D02*
X028330Y029928D01*
X028330Y029850D02*
X028722Y029850D01*
X028643Y029771D02*
X028290Y029771D01*
X028355Y029693D02*
X028600Y029693D01*
X028600Y029614D02*
X028380Y029614D01*
X028380Y029536D02*
X028610Y029536D01*
X028688Y029457D02*
X028351Y029457D01*
X028273Y029379D02*
X028894Y029379D01*
X028972Y029300D02*
X026100Y029300D01*
X026179Y029222D02*
X029051Y029222D01*
X029129Y029143D02*
X026257Y029143D01*
X026336Y029065D02*
X028817Y029065D01*
X028740Y028986D02*
X026414Y028986D01*
X026493Y028908D02*
X028740Y028908D01*
X028740Y028829D02*
X026571Y028829D01*
X026650Y028751D02*
X028795Y028751D01*
X028830Y028672D02*
X026728Y028672D01*
X026807Y028594D02*
X028830Y028594D01*
X028830Y028515D02*
X026885Y028515D01*
X026914Y028487D02*
X025414Y029987D01*
X025181Y029987D01*
X025091Y030077D01*
X024909Y030077D01*
X024780Y029948D01*
X024780Y029766D01*
X024909Y029637D01*
X025091Y029637D01*
X025181Y029727D01*
X025306Y029727D01*
X026730Y028303D01*
X026806Y028227D01*
X028064Y028227D01*
X028380Y027898D01*
X028380Y027766D01*
X028509Y027637D01*
X028691Y027637D01*
X028820Y027766D01*
X028820Y027948D01*
X028691Y028077D01*
X028569Y028077D01*
X028250Y028409D01*
X028250Y028411D01*
X028213Y028448D01*
X028176Y028486D01*
X028175Y028486D01*
X028174Y028487D01*
X028121Y028487D01*
X028069Y028488D01*
X028068Y028487D01*
X026914Y028487D01*
X026753Y028280D02*
X025301Y028280D01*
X025379Y028201D02*
X028089Y028201D01*
X028164Y028123D02*
X025458Y028123D01*
X025536Y028044D02*
X028240Y028044D01*
X028315Y027966D02*
X025615Y027966D01*
X025693Y027887D02*
X028380Y027887D01*
X028380Y027809D02*
X025772Y027809D01*
X025850Y027730D02*
X028415Y027730D01*
X028494Y027652D02*
X025929Y027652D01*
X026007Y027573D02*
X028830Y027573D01*
X028830Y027652D02*
X028706Y027652D01*
X028784Y027730D02*
X028830Y027730D01*
X028820Y027809D02*
X028830Y027809D01*
X028820Y027887D02*
X028830Y027887D01*
X028830Y027966D02*
X028802Y027966D01*
X028830Y028044D02*
X028723Y028044D01*
X028830Y028123D02*
X028525Y028123D01*
X028449Y028201D02*
X028830Y028201D01*
X028830Y028280D02*
X028374Y028280D01*
X028299Y028358D02*
X028830Y028358D01*
X028830Y028437D02*
X028224Y028437D01*
X029090Y028437D02*
X029370Y028437D01*
X029370Y028515D02*
X029090Y028515D01*
X029090Y028594D02*
X029370Y028594D01*
X029370Y028672D02*
X029090Y028672D01*
X029125Y028751D02*
X029370Y028751D01*
X029370Y028829D02*
X029180Y028829D01*
X029180Y028908D02*
X029365Y028908D01*
X029286Y028986D02*
X029180Y028986D01*
X029208Y029065D02*
X029103Y029065D01*
X029040Y029693D02*
X035367Y029693D01*
X035308Y029771D02*
X028996Y029771D01*
X028918Y029850D02*
X035308Y029850D01*
X036685Y028672D02*
X029630Y028672D01*
X029630Y028594D02*
X036685Y028594D01*
X036685Y028515D02*
X029630Y028515D01*
X029630Y028437D02*
X036744Y028437D01*
X038880Y029222D02*
X041008Y029222D01*
X041052Y029205D02*
X041231Y029152D01*
X041414Y029113D01*
X041600Y029086D01*
X041786Y029073D01*
X041840Y029073D01*
X041840Y031653D01*
X039260Y031653D01*
X039260Y031599D01*
X039273Y031412D01*
X039300Y031227D01*
X039340Y031044D01*
X039355Y030993D01*
X039271Y031077D01*
X039089Y031077D01*
X038960Y030948D01*
X038960Y030766D01*
X039089Y030637D01*
X039271Y030637D01*
X039400Y030766D01*
X039400Y030845D01*
X039458Y030689D01*
X039535Y030519D01*
X039625Y030355D01*
X039726Y030197D01*
X039839Y030048D01*
X039961Y029906D01*
X040093Y029774D01*
X040235Y029651D01*
X040385Y029539D01*
X040542Y029438D01*
X040706Y029348D01*
X040877Y029271D01*
X041052Y029205D01*
X041274Y029143D02*
X038940Y029143D01*
X039018Y029065D02*
X046460Y029065D01*
X046460Y029143D02*
X042486Y029143D01*
X042528Y029152D02*
X042708Y029205D01*
X042883Y029271D01*
X043053Y029348D01*
X043218Y029438D01*
X043375Y029539D01*
X043525Y029651D01*
X043666Y029774D01*
X043799Y029906D01*
X043921Y030048D01*
X044033Y030197D01*
X044135Y030355D01*
X044224Y030519D01*
X044302Y030689D01*
X044367Y030865D01*
X044420Y031044D01*
X044460Y031227D01*
X044486Y031412D01*
X044500Y031599D01*
X044500Y031653D01*
X041920Y031653D01*
X041920Y031733D01*
X041840Y031733D01*
X041840Y034313D01*
X041786Y034313D01*
X041600Y034299D01*
X041414Y034273D01*
X041231Y034233D01*
X041160Y034212D01*
X041160Y034308D01*
X041031Y034437D01*
X040849Y034437D01*
X040720Y034308D01*
X040720Y034126D01*
X040776Y034069D01*
X040706Y034037D01*
X040542Y033947D01*
X040385Y033846D01*
X040235Y033734D01*
X040093Y033611D01*
X039961Y033479D01*
X039839Y033338D01*
X039726Y033188D01*
X039625Y033030D01*
X039535Y032866D01*
X039458Y032696D01*
X039392Y032521D01*
X039340Y032341D01*
X039300Y032158D01*
X039273Y031973D01*
X039260Y031786D01*
X039260Y031733D01*
X041840Y031733D01*
X041840Y031653D01*
X041920Y031653D01*
X041920Y029073D01*
X041973Y029073D01*
X042160Y029086D01*
X042345Y029113D01*
X042528Y029152D01*
X042752Y029222D02*
X046460Y029222D01*
X046460Y029300D02*
X042948Y029300D01*
X043109Y029379D02*
X046460Y029379D01*
X046460Y029457D02*
X043247Y029457D01*
X043370Y029536D02*
X046460Y029536D01*
X046460Y029614D02*
X043475Y029614D01*
X043573Y029693D02*
X046460Y029693D01*
X046460Y029771D02*
X043663Y029771D01*
X043742Y029850D02*
X046460Y029850D01*
X046460Y029928D02*
X043818Y029928D01*
X043886Y030007D02*
X046460Y030007D01*
X046460Y030085D02*
X043949Y030085D01*
X044008Y030164D02*
X046460Y030164D01*
X046460Y030242D02*
X044062Y030242D01*
X044113Y030321D02*
X046460Y030321D01*
X046460Y030399D02*
X044159Y030399D01*
X044202Y030478D02*
X046460Y030478D01*
X046460Y030556D02*
X044241Y030556D01*
X044277Y030635D02*
X046460Y030635D01*
X046460Y030713D02*
X044311Y030713D01*
X044340Y030792D02*
X046460Y030792D01*
X046460Y030870D02*
X044369Y030870D01*
X044392Y030949D02*
X046460Y030949D01*
X046460Y031027D02*
X044415Y031027D01*
X044433Y031106D02*
X046460Y031106D01*
X046460Y031184D02*
X044451Y031184D01*
X044465Y031263D02*
X046460Y031263D01*
X046460Y031341D02*
X044476Y031341D01*
X044487Y031420D02*
X046460Y031420D01*
X046460Y031498D02*
X044493Y031498D01*
X044498Y031577D02*
X046460Y031577D01*
X046460Y031655D02*
X041920Y031655D01*
X041920Y031733D02*
X044500Y031733D01*
X044500Y031786D01*
X044486Y031973D01*
X044460Y032158D01*
X044420Y032341D01*
X044367Y032521D01*
X044302Y032696D01*
X044224Y032866D01*
X044135Y033030D01*
X044033Y033188D01*
X043921Y033338D01*
X043799Y033479D01*
X043666Y033611D01*
X043525Y033734D01*
X043375Y033846D01*
X043218Y033947D01*
X043053Y034037D01*
X042883Y034115D01*
X042708Y034180D01*
X042528Y034233D01*
X042345Y034273D01*
X042160Y034299D01*
X041973Y034313D01*
X041920Y034313D01*
X041920Y031733D01*
X041920Y031734D02*
X041840Y031734D01*
X041840Y031812D02*
X041920Y031812D01*
X041920Y031891D02*
X041840Y031891D01*
X041840Y031969D02*
X041920Y031969D01*
X041920Y032048D02*
X041840Y032048D01*
X041840Y032126D02*
X041920Y032126D01*
X041920Y032205D02*
X041840Y032205D01*
X041840Y032283D02*
X041920Y032283D01*
X041920Y032362D02*
X041840Y032362D01*
X041840Y032440D02*
X041920Y032440D01*
X041920Y032519D02*
X041840Y032519D01*
X041840Y032597D02*
X041920Y032597D01*
X041920Y032676D02*
X041840Y032676D01*
X041840Y032754D02*
X041920Y032754D01*
X041920Y032833D02*
X041840Y032833D01*
X041840Y032911D02*
X041920Y032911D01*
X041920Y032990D02*
X041840Y032990D01*
X041840Y033068D02*
X041920Y033068D01*
X041920Y033147D02*
X041840Y033147D01*
X041840Y033225D02*
X041920Y033225D01*
X041920Y033304D02*
X041840Y033304D01*
X041840Y033382D02*
X041920Y033382D01*
X041920Y033461D02*
X041840Y033461D01*
X041840Y033539D02*
X041920Y033539D01*
X041920Y033618D02*
X041840Y033618D01*
X041840Y033696D02*
X041920Y033696D01*
X041920Y033775D02*
X041840Y033775D01*
X041840Y033853D02*
X041920Y033853D01*
X041920Y033932D02*
X041840Y033932D01*
X041840Y034010D02*
X041920Y034010D01*
X041920Y034089D02*
X041840Y034089D01*
X041840Y034167D02*
X041920Y034167D01*
X041920Y034246D02*
X041840Y034246D01*
X041290Y034246D02*
X041160Y034246D01*
X041143Y034324D02*
X046460Y034324D01*
X046460Y034246D02*
X042469Y034246D01*
X042743Y034167D02*
X046460Y034167D01*
X046460Y034089D02*
X042940Y034089D01*
X043102Y034010D02*
X046460Y034010D01*
X046460Y033932D02*
X043242Y033932D01*
X043364Y033853D02*
X046460Y033853D01*
X046460Y033775D02*
X043470Y033775D01*
X043568Y033696D02*
X046460Y033696D01*
X046460Y033618D02*
X043659Y033618D01*
X043739Y033539D02*
X046460Y033539D01*
X046460Y033461D02*
X043815Y033461D01*
X043883Y033382D02*
X046460Y033382D01*
X046460Y033304D02*
X043947Y033304D01*
X044005Y033225D02*
X046460Y033225D01*
X046460Y033147D02*
X044060Y033147D01*
X044110Y033068D02*
X044382Y033068D01*
X044401Y033087D02*
X044272Y032958D01*
X044272Y032776D01*
X044401Y032647D01*
X044583Y032647D01*
X044712Y032776D01*
X044712Y032958D01*
X044583Y033087D01*
X044401Y033087D01*
X044304Y032990D02*
X044157Y032990D01*
X044200Y032911D02*
X044272Y032911D01*
X044272Y032833D02*
X044239Y032833D01*
X044275Y032754D02*
X044293Y032754D01*
X044309Y032676D02*
X044372Y032676D01*
X044339Y032597D02*
X046460Y032597D01*
X046460Y032519D02*
X044368Y032519D01*
X044391Y032440D02*
X046460Y032440D01*
X046460Y032362D02*
X044414Y032362D01*
X044433Y032283D02*
X046460Y032283D01*
X046460Y032205D02*
X044450Y032205D01*
X044464Y032126D02*
X046460Y032126D01*
X046460Y032048D02*
X044476Y032048D01*
X044487Y031969D02*
X046460Y031969D01*
X046460Y031891D02*
X044492Y031891D01*
X044498Y031812D02*
X046460Y031812D01*
X046460Y031734D02*
X044500Y031734D01*
X044612Y032676D02*
X046460Y032676D01*
X046460Y032754D02*
X044691Y032754D01*
X044712Y032833D02*
X046460Y032833D01*
X046460Y032911D02*
X044712Y032911D01*
X044680Y032990D02*
X046460Y032990D01*
X046460Y033068D02*
X044601Y033068D01*
X046460Y034403D02*
X041065Y034403D01*
X040907Y034560D02*
X046460Y034560D01*
X046460Y034638D02*
X040985Y034638D01*
X041030Y034683D02*
X040130Y033783D01*
X040054Y033707D01*
X039441Y033707D01*
X039351Y033617D01*
X039169Y033617D01*
X039040Y033746D01*
X039040Y033928D01*
X039169Y034057D01*
X039351Y034057D01*
X039441Y033967D01*
X039946Y033967D01*
X040770Y034791D01*
X040770Y034876D01*
X040680Y034966D01*
X040680Y035148D01*
X040809Y035277D01*
X040991Y035277D01*
X041120Y035148D01*
X041120Y034966D01*
X041030Y034876D01*
X041030Y034683D01*
X041030Y034717D02*
X046460Y034717D01*
X046460Y034795D02*
X041030Y034795D01*
X041030Y034874D02*
X046460Y034874D01*
X046460Y034952D02*
X041107Y034952D01*
X041120Y035031D02*
X046460Y035031D01*
X046460Y035109D02*
X041120Y035109D01*
X041080Y035188D02*
X046460Y035188D01*
X046460Y035266D02*
X041001Y035266D01*
X040798Y035266D02*
X038876Y035266D01*
X038954Y035345D02*
X046460Y035345D01*
X046460Y035423D02*
X039033Y035423D01*
X039111Y035502D02*
X046460Y035502D01*
X046460Y035580D02*
X039190Y035580D01*
X039268Y035659D02*
X040780Y035659D01*
X040780Y035737D02*
X039347Y035737D01*
X039070Y036287D02*
X038554Y036287D01*
X038632Y036365D02*
X039427Y036365D01*
X039349Y036444D02*
X038711Y036444D01*
X038917Y036522D02*
X039270Y036522D01*
X039192Y036601D02*
X038990Y036601D01*
X038990Y036679D02*
X039113Y036679D01*
X039035Y036758D02*
X038990Y036758D01*
X038956Y036836D02*
X038931Y036836D01*
X039089Y037072D02*
X040510Y037072D01*
X040510Y037150D02*
X037677Y037150D01*
X037671Y036836D02*
X038608Y036836D01*
X038550Y036758D02*
X029193Y036758D01*
X029271Y036679D02*
X038550Y036679D01*
X038500Y036601D02*
X037267Y036601D01*
X037251Y036617D02*
X037069Y036617D01*
X036940Y036488D01*
X036940Y036306D01*
X037069Y036177D01*
X037251Y036177D01*
X037380Y036306D01*
X037380Y036488D01*
X037251Y036617D01*
X037345Y036522D02*
X038422Y036522D01*
X038343Y036444D02*
X037380Y036444D01*
X037380Y036365D02*
X038265Y036365D01*
X038186Y036287D02*
X037361Y036287D01*
X037283Y036208D02*
X038108Y036208D01*
X038029Y036130D02*
X033414Y036130D01*
X033444Y036208D02*
X037037Y036208D01*
X036959Y036287D02*
X033444Y036287D01*
X033420Y036365D02*
X036940Y036365D01*
X036940Y036444D02*
X033342Y036444D01*
X033106Y036444D02*
X029507Y036444D01*
X029428Y036522D02*
X036974Y036522D01*
X037053Y036601D02*
X029350Y036601D01*
X029139Y036444D02*
X028590Y036444D01*
X028590Y036522D02*
X029060Y036522D01*
X028982Y036601D02*
X028590Y036601D01*
X028590Y036679D02*
X028903Y036679D01*
X028825Y036758D02*
X028590Y036758D01*
X028590Y036836D02*
X028746Y036836D01*
X028668Y036915D02*
X028590Y036915D01*
X028589Y036993D02*
X028567Y036993D01*
X028511Y037072D02*
X028489Y037072D01*
X028432Y037150D02*
X028410Y037150D01*
X028354Y037229D02*
X028332Y037229D01*
X028275Y037307D02*
X028253Y037307D01*
X028197Y037386D02*
X028175Y037386D01*
X028118Y037464D02*
X028096Y037464D01*
X028040Y037543D02*
X028018Y037543D01*
X027961Y037621D02*
X027939Y037621D01*
X027883Y037700D02*
X027861Y037700D01*
X027804Y037778D02*
X027782Y037778D01*
X027726Y037857D02*
X027704Y037857D01*
X027480Y037473D02*
X027630Y037323D01*
X027630Y035963D01*
X027706Y035887D01*
X028760Y034833D01*
X028760Y034706D01*
X028889Y034577D01*
X029071Y034577D01*
X029200Y034706D01*
X029200Y034888D01*
X029071Y035017D01*
X028944Y035017D01*
X027890Y036071D01*
X027890Y037303D01*
X028330Y036863D01*
X028330Y035883D01*
X028406Y035807D01*
X029200Y035013D01*
X029200Y034886D01*
X029329Y034757D01*
X029332Y034757D01*
X029122Y034547D01*
X028826Y034547D01*
X028750Y034471D01*
X028736Y034457D01*
X028609Y034457D01*
X028480Y034328D01*
X028480Y034146D01*
X028609Y034017D01*
X028676Y034017D01*
X028550Y033891D01*
X028550Y033838D01*
X028460Y033748D01*
X028460Y033566D01*
X028589Y033437D01*
X028771Y033437D01*
X028810Y033476D01*
X028810Y033361D01*
X028726Y033277D01*
X028599Y033277D01*
X028470Y033148D01*
X028470Y032966D01*
X028599Y032837D01*
X028781Y032837D01*
X028910Y032966D01*
X028910Y033093D01*
X029070Y033253D01*
X029070Y033743D01*
X029154Y033827D01*
X029327Y033827D01*
X029327Y033826D01*
X029346Y033826D01*
X029206Y033687D01*
X029130Y033611D01*
X029130Y032791D01*
X028946Y032607D01*
X028841Y032607D01*
X028751Y032697D01*
X028569Y032697D01*
X028440Y032568D01*
X028440Y032386D01*
X028539Y032287D01*
X027434Y032287D01*
X027390Y032331D01*
X027390Y037276D01*
X027480Y037366D01*
X027480Y037473D01*
X027480Y037464D02*
X027488Y037464D01*
X027480Y037386D02*
X027567Y037386D01*
X027630Y037307D02*
X027422Y037307D01*
X027390Y037229D02*
X027630Y037229D01*
X027630Y037150D02*
X027390Y037150D01*
X027390Y037072D02*
X027630Y037072D01*
X027630Y036993D02*
X027390Y036993D01*
X027390Y036915D02*
X027630Y036915D01*
X027630Y036836D02*
X027390Y036836D01*
X027390Y036758D02*
X027630Y036758D01*
X027630Y036679D02*
X027390Y036679D01*
X027390Y036601D02*
X027630Y036601D01*
X027630Y036522D02*
X027390Y036522D01*
X027390Y036444D02*
X027630Y036444D01*
X027630Y036365D02*
X027390Y036365D01*
X027390Y036287D02*
X027630Y036287D01*
X027630Y036208D02*
X027390Y036208D01*
X027390Y036130D02*
X027630Y036130D01*
X027630Y036051D02*
X027390Y036051D01*
X027390Y035973D02*
X027630Y035973D01*
X027698Y035894D02*
X027390Y035894D01*
X027390Y035816D02*
X027777Y035816D01*
X027855Y035737D02*
X027390Y035737D01*
X027390Y035659D02*
X027934Y035659D01*
X028012Y035580D02*
X027390Y035580D01*
X027390Y035502D02*
X028091Y035502D01*
X028169Y035423D02*
X027390Y035423D01*
X027390Y035345D02*
X028248Y035345D01*
X028326Y035266D02*
X027390Y035266D01*
X027390Y035188D02*
X028405Y035188D01*
X028483Y035109D02*
X027390Y035109D01*
X027390Y035031D02*
X028562Y035031D01*
X028640Y034952D02*
X027390Y034952D01*
X027390Y034874D02*
X028719Y034874D01*
X028760Y034795D02*
X027390Y034795D01*
X027390Y034717D02*
X028760Y034717D01*
X028827Y034638D02*
X027390Y034638D01*
X027390Y034560D02*
X029135Y034560D01*
X029133Y034638D02*
X029214Y034638D01*
X029200Y034717D02*
X029292Y034717D01*
X029290Y034795D02*
X029200Y034795D01*
X029200Y034874D02*
X029212Y034874D01*
X029200Y034952D02*
X029135Y034952D01*
X029182Y035031D02*
X028930Y035031D01*
X028851Y035109D02*
X029103Y035109D01*
X029025Y035188D02*
X028773Y035188D01*
X028694Y035266D02*
X028946Y035266D01*
X028868Y035345D02*
X028616Y035345D01*
X028537Y035423D02*
X028789Y035423D01*
X028711Y035502D02*
X028459Y035502D01*
X028380Y035580D02*
X028632Y035580D01*
X028554Y035659D02*
X028302Y035659D01*
X028223Y035737D02*
X028475Y035737D01*
X028397Y035816D02*
X028145Y035816D01*
X028066Y035894D02*
X028330Y035894D01*
X028330Y035973D02*
X027988Y035973D01*
X027909Y036051D02*
X028330Y036051D01*
X028330Y036130D02*
X027890Y036130D01*
X027890Y036208D02*
X028330Y036208D01*
X028330Y036287D02*
X027890Y036287D01*
X027890Y036365D02*
X028330Y036365D01*
X028330Y036444D02*
X027890Y036444D01*
X027890Y036522D02*
X028330Y036522D01*
X028330Y036601D02*
X027890Y036601D01*
X027890Y036679D02*
X028330Y036679D01*
X028330Y036758D02*
X027890Y036758D01*
X027890Y036836D02*
X028330Y036836D01*
X028278Y036915D02*
X027890Y036915D01*
X027890Y036993D02*
X028199Y036993D01*
X028121Y037072D02*
X027890Y037072D01*
X027890Y037150D02*
X028042Y037150D01*
X027964Y037229D02*
X027890Y037229D01*
X027130Y037229D02*
X026783Y037229D01*
X026862Y037307D02*
X027098Y037307D01*
X027040Y037386D02*
X026900Y037386D01*
X026900Y037464D02*
X027040Y037464D01*
X027040Y037543D02*
X026970Y037543D01*
X027130Y037150D02*
X026577Y037150D01*
X026550Y037072D02*
X027130Y037072D01*
X027130Y036993D02*
X026550Y036993D01*
X026550Y036915D02*
X027130Y036915D01*
X027130Y036836D02*
X026550Y036836D01*
X026550Y036758D02*
X027130Y036758D01*
X027130Y036679D02*
X026550Y036679D01*
X026550Y036601D02*
X027130Y036601D01*
X027130Y036522D02*
X026550Y036522D01*
X026550Y036444D02*
X027130Y036444D01*
X027130Y036365D02*
X026550Y036365D01*
X026550Y036287D02*
X027130Y036287D01*
X027130Y036208D02*
X026550Y036208D01*
X026550Y036130D02*
X027130Y036130D01*
X027130Y036051D02*
X026550Y036051D01*
X026550Y035973D02*
X027130Y035973D01*
X027130Y035894D02*
X026550Y035894D01*
X026550Y035816D02*
X027130Y035816D01*
X027130Y035737D02*
X026550Y035737D01*
X026550Y035659D02*
X027130Y035659D01*
X027130Y035580D02*
X026550Y035580D01*
X026550Y035502D02*
X027130Y035502D01*
X027130Y035423D02*
X026550Y035423D01*
X026550Y035345D02*
X027130Y035345D01*
X027130Y035266D02*
X026550Y035266D01*
X026550Y035188D02*
X027130Y035188D01*
X027130Y035109D02*
X026550Y035109D01*
X026550Y035031D02*
X027130Y035031D01*
X027130Y034952D02*
X026550Y034952D01*
X026550Y034874D02*
X027130Y034874D01*
X027130Y034795D02*
X026550Y034795D01*
X026550Y034717D02*
X027130Y034717D01*
X027130Y034638D02*
X026550Y034638D01*
X026550Y034560D02*
X027130Y034560D01*
X027130Y034481D02*
X026550Y034481D01*
X026550Y034403D02*
X027130Y034403D01*
X027130Y034324D02*
X026550Y034324D01*
X026550Y034246D02*
X027130Y034246D01*
X027130Y034167D02*
X026550Y034167D01*
X026550Y034089D02*
X027130Y034089D01*
X027130Y034010D02*
X026550Y034010D01*
X026550Y033932D02*
X027130Y033932D01*
X027130Y033853D02*
X026550Y033853D01*
X026550Y033775D02*
X027130Y033775D01*
X027130Y033696D02*
X026550Y033696D01*
X026550Y033618D02*
X027130Y033618D01*
X027130Y033539D02*
X026550Y033539D01*
X026550Y033461D02*
X027130Y033461D01*
X027130Y033382D02*
X026550Y033382D01*
X026550Y033304D02*
X027130Y033304D01*
X027130Y033225D02*
X026550Y033225D01*
X026550Y033147D02*
X027130Y033147D01*
X027130Y033068D02*
X026550Y033068D01*
X026550Y032990D02*
X027130Y032990D01*
X027130Y032911D02*
X026550Y032911D01*
X026550Y032833D02*
X027130Y032833D01*
X027130Y032754D02*
X026550Y032754D01*
X026550Y032676D02*
X027130Y032676D01*
X027130Y032597D02*
X026550Y032597D01*
X026550Y032519D02*
X027130Y032519D01*
X027130Y032440D02*
X026550Y032440D01*
X026550Y032362D02*
X027130Y032362D01*
X027130Y032283D02*
X026550Y032283D01*
X026550Y032205D02*
X027148Y032205D01*
X027226Y032126D02*
X026550Y032126D01*
X026550Y032048D02*
X027305Y032048D01*
X027390Y032362D02*
X028464Y032362D01*
X028440Y032440D02*
X027390Y032440D01*
X027390Y032519D02*
X028440Y032519D01*
X028469Y032597D02*
X027390Y032597D01*
X027390Y032676D02*
X028548Y032676D01*
X028772Y032676D02*
X029015Y032676D01*
X029094Y032754D02*
X027390Y032754D01*
X027390Y032833D02*
X029130Y032833D01*
X029130Y032911D02*
X028856Y032911D01*
X028910Y032990D02*
X029130Y032990D01*
X029130Y033068D02*
X028910Y033068D01*
X028964Y033147D02*
X029130Y033147D01*
X029130Y033225D02*
X029042Y033225D01*
X029070Y033304D02*
X029130Y033304D01*
X029130Y033382D02*
X029070Y033382D01*
X029070Y033461D02*
X029130Y033461D01*
X029130Y033539D02*
X029070Y033539D01*
X029070Y033618D02*
X029137Y033618D01*
X029070Y033696D02*
X029216Y033696D01*
X029294Y033775D02*
X029102Y033775D01*
X028810Y033461D02*
X028795Y033461D01*
X028810Y033382D02*
X027390Y033382D01*
X027390Y033304D02*
X028753Y033304D01*
X028547Y033225D02*
X027390Y033225D01*
X027390Y033147D02*
X028470Y033147D01*
X028470Y033068D02*
X027390Y033068D01*
X027390Y032990D02*
X028470Y032990D01*
X028524Y032911D02*
X027390Y032911D01*
X027390Y033461D02*
X028565Y033461D01*
X028486Y033539D02*
X027390Y033539D01*
X027390Y033618D02*
X028460Y033618D01*
X028460Y033696D02*
X027390Y033696D01*
X027390Y033775D02*
X028487Y033775D01*
X028550Y033853D02*
X027390Y033853D01*
X027390Y033932D02*
X028591Y033932D01*
X028670Y034010D02*
X027390Y034010D01*
X027390Y034089D02*
X028537Y034089D01*
X028480Y034167D02*
X027390Y034167D01*
X027390Y034246D02*
X028480Y034246D01*
X028480Y034324D02*
X027390Y034324D01*
X027390Y034403D02*
X028555Y034403D01*
X028761Y034481D02*
X027390Y034481D01*
X026050Y034481D02*
X025930Y034481D01*
X025930Y034403D02*
X026050Y034403D01*
X026050Y034324D02*
X025871Y034324D01*
X025793Y034246D02*
X026050Y034246D01*
X026050Y034167D02*
X025714Y034167D01*
X025636Y034089D02*
X026050Y034089D01*
X026050Y034010D02*
X025557Y034010D01*
X025479Y033932D02*
X026050Y033932D01*
X026050Y033853D02*
X025400Y033853D01*
X025322Y033775D02*
X026050Y033775D01*
X026050Y033696D02*
X025243Y033696D01*
X025165Y033618D02*
X026050Y033618D01*
X026050Y033539D02*
X025086Y033539D01*
X025008Y033461D02*
X026050Y033461D01*
X026050Y033382D02*
X024929Y033382D01*
X024851Y033304D02*
X026050Y033304D01*
X026050Y033225D02*
X024772Y033225D01*
X024694Y033147D02*
X026050Y033147D01*
X026050Y033068D02*
X024615Y033068D01*
X024537Y032990D02*
X026050Y032990D01*
X026050Y032911D02*
X024458Y032911D01*
X024380Y032833D02*
X026050Y032833D01*
X026050Y032754D02*
X024301Y032754D01*
X024223Y032676D02*
X026050Y032676D01*
X026050Y032597D02*
X024144Y032597D01*
X024066Y032519D02*
X026050Y032519D01*
X026050Y032440D02*
X023987Y032440D01*
X023909Y032362D02*
X026050Y032362D01*
X026050Y032283D02*
X023830Y032283D01*
X023752Y032205D02*
X026050Y032205D01*
X026050Y032126D02*
X023673Y032126D01*
X023595Y032048D02*
X026050Y032048D01*
X026050Y031969D02*
X023516Y031969D01*
X023438Y031891D02*
X026050Y031891D01*
X026050Y031812D02*
X023359Y031812D01*
X023281Y031734D02*
X026050Y031734D01*
X026050Y031655D02*
X023202Y031655D01*
X023124Y031577D02*
X026050Y031577D01*
X026050Y031498D02*
X023045Y031498D01*
X022990Y031420D02*
X026050Y031420D01*
X026050Y031341D02*
X022990Y031341D01*
X022990Y031263D02*
X026050Y031263D01*
X026128Y031184D02*
X022990Y031184D01*
X022990Y031106D02*
X026207Y031106D01*
X026285Y031027D02*
X022990Y031027D01*
X022990Y030949D02*
X026364Y030949D01*
X026442Y030870D02*
X022990Y030870D01*
X022959Y030792D02*
X026521Y030792D01*
X026599Y030713D02*
X022880Y030713D01*
X022802Y030635D02*
X026678Y030635D01*
X026756Y030556D02*
X022723Y030556D01*
X022645Y030478D02*
X026835Y030478D01*
X026913Y030399D02*
X022566Y030399D01*
X022488Y030321D02*
X026992Y030321D01*
X027070Y030242D02*
X022409Y030242D01*
X022331Y030164D02*
X027149Y030164D01*
X027424Y030556D02*
X030996Y030556D01*
X030918Y030635D02*
X029309Y030635D01*
X029051Y030635D02*
X027346Y030635D01*
X027267Y030713D02*
X028972Y030713D01*
X028960Y030792D02*
X027189Y030792D01*
X027110Y030870D02*
X028960Y030870D01*
X029001Y030949D02*
X027032Y030949D01*
X026953Y031027D02*
X029079Y031027D01*
X029280Y031027D02*
X032287Y031027D01*
X032365Y031106D02*
X028760Y031106D01*
X028838Y031184D02*
X032444Y031184D01*
X032522Y031263D02*
X028860Y031263D01*
X028860Y031341D02*
X032601Y031341D01*
X032679Y031420D02*
X028828Y031420D01*
X028845Y031498D02*
X032758Y031498D01*
X032836Y031577D02*
X029344Y031577D01*
X029422Y031655D02*
X032915Y031655D01*
X032993Y031734D02*
X029501Y031734D01*
X029579Y031812D02*
X033072Y031812D01*
X033150Y031891D02*
X029658Y031891D01*
X029736Y031969D02*
X033229Y031969D01*
X033307Y032048D02*
X029815Y032048D01*
X029893Y032126D02*
X033386Y032126D01*
X033464Y032205D02*
X029972Y032205D01*
X030050Y032283D02*
X033543Y032283D01*
X033320Y031341D02*
X033248Y031341D01*
X033170Y031263D02*
X033383Y031263D01*
X032208Y030949D02*
X029359Y030949D01*
X029068Y030399D02*
X031939Y030399D01*
X032017Y030478D02*
X028023Y030478D01*
X028101Y030399D02*
X028811Y030399D01*
X028733Y030321D02*
X028180Y030321D01*
X028258Y030242D02*
X028720Y030242D01*
X028720Y030164D02*
X028330Y030164D01*
X028330Y030085D02*
X028760Y030085D01*
X028839Y030007D02*
X028330Y030007D01*
X028030Y029771D02*
X025629Y029771D01*
X025708Y029693D02*
X027965Y029693D01*
X027940Y029614D02*
X025786Y029614D01*
X025865Y029536D02*
X027940Y029536D01*
X027968Y029457D02*
X025943Y029457D01*
X026022Y029379D02*
X028047Y029379D01*
X027796Y029850D02*
X025551Y029850D01*
X025472Y029928D02*
X027720Y029928D01*
X027720Y030007D02*
X025161Y030007D01*
X025147Y029693D02*
X025340Y029693D01*
X025418Y029614D02*
X023573Y029614D01*
X023495Y029693D02*
X024853Y029693D01*
X024780Y029771D02*
X022380Y029771D01*
X022380Y029693D02*
X023305Y029693D01*
X023226Y029614D02*
X022368Y029614D01*
X022290Y029536D02*
X023180Y029536D01*
X023180Y029457D02*
X021440Y029457D01*
X021440Y029379D02*
X023187Y029379D01*
X023265Y029300D02*
X021440Y029300D01*
X021440Y029222D02*
X023991Y029222D01*
X023912Y029300D02*
X023534Y029300D01*
X024069Y029143D02*
X021440Y029143D01*
X021440Y029065D02*
X024148Y029065D01*
X024226Y028986D02*
X021440Y028986D01*
X021440Y028908D02*
X024305Y028908D01*
X024383Y028829D02*
X021440Y028829D01*
X021440Y028751D02*
X024462Y028751D01*
X024540Y028672D02*
X021440Y028672D01*
X021440Y028594D02*
X024619Y028594D01*
X024697Y028515D02*
X021440Y028515D01*
X021440Y028437D02*
X024776Y028437D01*
X024854Y028358D02*
X021440Y028358D01*
X021440Y028280D02*
X023242Y028280D01*
X023170Y028201D02*
X021440Y028201D01*
X021440Y028123D02*
X023170Y028123D01*
X023170Y028044D02*
X021440Y028044D01*
X021440Y027966D02*
X023230Y027966D01*
X023427Y027887D02*
X021440Y027887D01*
X021440Y027809D02*
X023500Y027809D01*
X023572Y027730D02*
X021440Y027730D01*
X021440Y027652D02*
X025044Y027652D01*
X025356Y027652D02*
X025561Y027652D01*
X025482Y027730D02*
X025420Y027730D01*
X025639Y027573D02*
X021440Y027573D01*
X021440Y027495D02*
X025718Y027495D01*
X025796Y027416D02*
X021440Y027416D01*
X021440Y027338D02*
X025875Y027338D01*
X026086Y027495D02*
X028774Y027495D01*
X028985Y027338D02*
X029357Y027338D01*
X029370Y027416D02*
X029063Y027416D01*
X029090Y027495D02*
X029370Y027495D01*
X029370Y027573D02*
X029090Y027573D01*
X029090Y027652D02*
X029370Y027652D01*
X029370Y027730D02*
X029090Y027730D01*
X029090Y027809D02*
X029370Y027809D01*
X029370Y027887D02*
X029090Y027887D01*
X029090Y027966D02*
X029370Y027966D01*
X029370Y028044D02*
X029090Y028044D01*
X029090Y028123D02*
X029370Y028123D01*
X029370Y028201D02*
X029090Y028201D01*
X029090Y028280D02*
X029370Y028280D01*
X029370Y028358D02*
X029090Y028358D01*
X029630Y028044D02*
X040346Y028044D01*
X040425Y027966D02*
X029630Y027966D01*
X029630Y027887D02*
X040503Y027887D01*
X040582Y027809D02*
X029630Y027809D01*
X029630Y027730D02*
X040660Y027730D01*
X040739Y027652D02*
X029630Y027652D01*
X029630Y027573D02*
X040780Y027573D01*
X040780Y027495D02*
X029630Y027495D01*
X029630Y027416D02*
X040780Y027416D01*
X040780Y027338D02*
X029630Y027338D01*
X029630Y027259D02*
X040780Y027259D01*
X040780Y027181D02*
X029568Y027181D01*
X029489Y027102D02*
X040780Y027102D01*
X040780Y027024D02*
X029411Y027024D01*
X029340Y026945D02*
X040780Y026945D01*
X040780Y026867D02*
X029340Y026867D01*
X029302Y026788D02*
X040780Y026788D01*
X039568Y028515D02*
X046460Y028515D01*
X046460Y028594D02*
X039489Y028594D01*
X039411Y028672D02*
X046460Y028672D01*
X046460Y028751D02*
X039332Y028751D01*
X039254Y028829D02*
X046460Y028829D01*
X046460Y028908D02*
X039175Y028908D01*
X039097Y028986D02*
X046460Y028986D01*
X041920Y029143D02*
X041840Y029143D01*
X041840Y029222D02*
X041920Y029222D01*
X041920Y029300D02*
X041840Y029300D01*
X041840Y029379D02*
X041920Y029379D01*
X041920Y029457D02*
X041840Y029457D01*
X041840Y029536D02*
X041920Y029536D01*
X041920Y029614D02*
X041840Y029614D01*
X041840Y029693D02*
X041920Y029693D01*
X041920Y029771D02*
X041840Y029771D01*
X041840Y029850D02*
X041920Y029850D01*
X041920Y029928D02*
X041840Y029928D01*
X041840Y030007D02*
X041920Y030007D01*
X041920Y030085D02*
X041840Y030085D01*
X041840Y030164D02*
X041920Y030164D01*
X041920Y030242D02*
X041840Y030242D01*
X041840Y030321D02*
X041920Y030321D01*
X041920Y030399D02*
X041840Y030399D01*
X041840Y030478D02*
X041920Y030478D01*
X041920Y030556D02*
X041840Y030556D01*
X041840Y030635D02*
X041920Y030635D01*
X041920Y030713D02*
X041840Y030713D01*
X041840Y030792D02*
X041920Y030792D01*
X041920Y030870D02*
X041840Y030870D01*
X041840Y030949D02*
X041920Y030949D01*
X041920Y031027D02*
X041840Y031027D01*
X041840Y031106D02*
X041920Y031106D01*
X041920Y031184D02*
X041840Y031184D01*
X041840Y031263D02*
X041920Y031263D01*
X041920Y031341D02*
X041840Y031341D01*
X041840Y031420D02*
X041920Y031420D01*
X041920Y031498D02*
X041840Y031498D01*
X041840Y031577D02*
X041920Y031577D01*
X041840Y031655D02*
X038880Y031655D01*
X038880Y031577D02*
X039261Y031577D01*
X039267Y031498D02*
X038880Y031498D01*
X038880Y031420D02*
X039273Y031420D01*
X039283Y031341D02*
X038880Y031341D01*
X038880Y031263D02*
X039295Y031263D01*
X039309Y031184D02*
X038880Y031184D01*
X038880Y031106D02*
X039326Y031106D01*
X039320Y031027D02*
X039345Y031027D01*
X039400Y030792D02*
X039420Y030792D01*
X039449Y030713D02*
X039347Y030713D01*
X039483Y030635D02*
X038880Y030635D01*
X038880Y030713D02*
X039012Y030713D01*
X038960Y030792D02*
X038880Y030792D01*
X038880Y030870D02*
X038960Y030870D01*
X038961Y030949D02*
X038880Y030949D01*
X038880Y031027D02*
X039039Y031027D01*
X038880Y030556D02*
X039519Y030556D01*
X039558Y030478D02*
X038880Y030478D01*
X038880Y030399D02*
X039601Y030399D01*
X039647Y030321D02*
X038880Y030321D01*
X038880Y030242D02*
X039698Y030242D01*
X039752Y030164D02*
X038880Y030164D01*
X038880Y030085D02*
X039810Y030085D01*
X039874Y030007D02*
X038880Y030007D01*
X038880Y029928D02*
X039942Y029928D01*
X040018Y029850D02*
X038880Y029850D01*
X038880Y029771D02*
X040096Y029771D01*
X040187Y029693D02*
X038880Y029693D01*
X038880Y029614D02*
X040284Y029614D01*
X040390Y029536D02*
X038880Y029536D01*
X038880Y029457D02*
X040512Y029457D01*
X040651Y029379D02*
X038880Y029379D01*
X038880Y029300D02*
X040812Y029300D01*
X039260Y031734D02*
X038880Y031734D01*
X038880Y031812D02*
X039262Y031812D01*
X039267Y031891D02*
X038880Y031891D01*
X038880Y031969D02*
X039273Y031969D01*
X039284Y032048D02*
X038880Y032048D01*
X038880Y032126D02*
X039295Y032126D01*
X039310Y032205D02*
X038880Y032205D01*
X038880Y032283D02*
X039327Y032283D01*
X039346Y032362D02*
X038880Y032362D01*
X038880Y032440D02*
X039369Y032440D01*
X039392Y032519D02*
X038880Y032519D01*
X038880Y032597D02*
X039421Y032597D01*
X039450Y032676D02*
X038807Y032676D01*
X038729Y032754D02*
X039484Y032754D01*
X039520Y032833D02*
X038650Y032833D01*
X038572Y032911D02*
X039560Y032911D01*
X039603Y032990D02*
X038493Y032990D01*
X038415Y033068D02*
X039649Y033068D01*
X039700Y033147D02*
X038336Y033147D01*
X038258Y033225D02*
X039754Y033225D01*
X039813Y033304D02*
X038179Y033304D01*
X038120Y033382D02*
X039877Y033382D01*
X039945Y033461D02*
X038120Y033461D01*
X038120Y033539D02*
X040021Y033539D01*
X040101Y033618D02*
X039352Y033618D01*
X039431Y033696D02*
X040191Y033696D01*
X040122Y033775D02*
X040289Y033775D01*
X040200Y033853D02*
X040396Y033853D01*
X040279Y033932D02*
X040518Y033932D01*
X040657Y034010D02*
X040357Y034010D01*
X040436Y034089D02*
X040757Y034089D01*
X040720Y034167D02*
X040514Y034167D01*
X040593Y034246D02*
X040720Y034246D01*
X040736Y034324D02*
X040671Y034324D01*
X040750Y034403D02*
X040815Y034403D01*
X040828Y034481D02*
X046460Y034481D01*
X046460Y035659D02*
X042980Y035659D01*
X042980Y035737D02*
X046460Y035737D01*
X046460Y035816D02*
X042980Y035816D01*
X042980Y035894D02*
X046460Y035894D01*
X046460Y035973D02*
X042980Y035973D01*
X042980Y036051D02*
X046460Y036051D01*
X046460Y036130D02*
X042980Y036130D01*
X042980Y036208D02*
X046460Y036208D01*
X046460Y036287D02*
X042980Y036287D01*
X042980Y036365D02*
X046460Y036365D01*
X046460Y036444D02*
X042980Y036444D01*
X042980Y036522D02*
X046460Y036522D01*
X046460Y036601D02*
X042980Y036601D01*
X042980Y036679D02*
X046460Y036679D01*
X046460Y036758D02*
X042956Y036758D01*
X042133Y036836D02*
X046460Y036836D01*
X046460Y036915D02*
X042139Y036915D01*
X042146Y036993D02*
X046460Y036993D01*
X046460Y037072D02*
X042153Y037072D01*
X042159Y037150D02*
X046460Y037150D01*
X046460Y037229D02*
X042166Y037229D01*
X042172Y037307D02*
X046460Y037307D01*
X046460Y037386D02*
X042224Y037386D01*
X042248Y037464D02*
X046460Y037464D01*
X046460Y037543D02*
X042248Y037543D01*
X042218Y037621D02*
X046460Y037621D01*
X046460Y037700D02*
X042140Y037700D01*
X041916Y037700D02*
X031527Y037700D01*
X031605Y037778D02*
X044201Y037778D01*
X044257Y037723D02*
X044439Y037723D01*
X044568Y037852D01*
X044568Y038034D01*
X044439Y038163D01*
X044257Y038163D01*
X044128Y038034D01*
X044128Y037852D01*
X044257Y037723D01*
X044128Y037857D02*
X031811Y037857D01*
X031890Y037935D02*
X044128Y037935D01*
X044128Y038014D02*
X031923Y038014D01*
X031923Y038092D02*
X044186Y038092D01*
X044509Y038092D02*
X046460Y038092D01*
X046460Y038014D02*
X044568Y038014D01*
X044568Y037935D02*
X046460Y037935D01*
X046460Y037857D02*
X044568Y037857D01*
X044495Y037778D02*
X046460Y037778D01*
X046460Y038171D02*
X031903Y038171D01*
X031824Y038249D02*
X046460Y038249D01*
X046460Y038328D02*
X027929Y038328D01*
X028007Y038249D02*
X031581Y038249D01*
X031503Y038171D02*
X028086Y038171D01*
X028164Y038092D02*
X031483Y038092D01*
X031473Y038014D02*
X028243Y038014D01*
X028321Y037935D02*
X031395Y037935D01*
X031316Y037857D02*
X028977Y037857D01*
X028687Y037857D02*
X028400Y037857D01*
X028478Y037778D02*
X028612Y037778D01*
X028612Y037700D02*
X028557Y037700D01*
X028995Y037543D02*
X035465Y037543D01*
X035543Y037621D02*
X031448Y037621D01*
X032495Y038720D02*
X023380Y038720D01*
X023380Y038642D02*
X032574Y038642D01*
X032575Y038641D02*
X032757Y038641D01*
X032886Y038770D01*
X032886Y038952D01*
X032757Y039081D01*
X032575Y039081D01*
X032446Y038952D01*
X032446Y038770D01*
X032575Y038641D01*
X032758Y038642D02*
X046460Y038642D01*
X046460Y038720D02*
X032837Y038720D01*
X032886Y038799D02*
X046460Y038799D01*
X046460Y038877D02*
X032886Y038877D01*
X032882Y038956D02*
X046460Y038956D01*
X046460Y039034D02*
X032803Y039034D01*
X032528Y039034D02*
X023380Y039034D01*
X023380Y038956D02*
X032450Y038956D01*
X032446Y038877D02*
X023380Y038877D01*
X023380Y038799D02*
X032446Y038799D01*
X035499Y037229D02*
X028722Y037229D01*
X028800Y037150D02*
X037362Y037150D01*
X037300Y037072D02*
X028879Y037072D01*
X028957Y036993D02*
X037300Y036993D01*
X037300Y036915D02*
X029036Y036915D01*
X029114Y036836D02*
X037369Y036836D01*
X037951Y036051D02*
X033336Y036051D01*
X033112Y036051D02*
X028590Y036051D01*
X028590Y036130D02*
X029453Y036130D01*
X029374Y036208D02*
X028590Y036208D01*
X028590Y036287D02*
X029296Y036287D01*
X029217Y036365D02*
X028590Y036365D01*
X028608Y035973D02*
X037872Y035973D01*
X037794Y035894D02*
X028686Y035894D01*
X028765Y035816D02*
X037715Y035816D01*
X037637Y035737D02*
X028843Y035737D01*
X028922Y035659D02*
X037558Y035659D01*
X037480Y035580D02*
X031227Y035580D01*
X031306Y035502D02*
X037264Y035502D01*
X037185Y035423D02*
X031320Y035423D01*
X031320Y035345D02*
X037160Y035345D01*
X037160Y035266D02*
X031361Y035266D01*
X031440Y035188D02*
X031480Y035188D01*
X031460Y035168D02*
X031460Y035168D01*
X031760Y035188D02*
X037188Y035188D01*
X038169Y034560D02*
X038400Y034560D01*
X038400Y034568D02*
X038400Y034386D01*
X038529Y034257D01*
X038711Y034257D01*
X038801Y034347D01*
X040054Y034347D01*
X040284Y034577D01*
X040411Y034577D01*
X040540Y034706D01*
X040540Y034888D01*
X040411Y035017D01*
X040229Y035017D01*
X040100Y034888D01*
X040100Y034761D01*
X039946Y034607D01*
X038801Y034607D01*
X038711Y034697D01*
X038529Y034697D01*
X038400Y034568D01*
X038400Y034481D02*
X038120Y034481D01*
X038120Y034403D02*
X038400Y034403D01*
X038461Y034324D02*
X038120Y034324D01*
X038120Y034246D02*
X040225Y034246D01*
X040304Y034324D02*
X038779Y034324D01*
X038769Y034638D02*
X039978Y034638D01*
X040056Y034717D02*
X038326Y034717D01*
X038405Y034795D02*
X040100Y034795D01*
X040100Y034874D02*
X038483Y034874D01*
X038562Y034952D02*
X040164Y034952D01*
X040475Y034952D02*
X040693Y034952D01*
X040680Y035031D02*
X038640Y035031D01*
X038719Y035109D02*
X040680Y035109D01*
X040720Y035188D02*
X038797Y035188D01*
X038470Y034638D02*
X038248Y034638D01*
X038120Y034167D02*
X040147Y034167D01*
X040068Y034089D02*
X038120Y034089D01*
X038120Y034010D02*
X039122Y034010D01*
X039044Y033932D02*
X038120Y033932D01*
X038120Y033853D02*
X039040Y033853D01*
X039040Y033775D02*
X038120Y033775D01*
X038120Y033696D02*
X039089Y033696D01*
X039168Y033618D02*
X038120Y033618D01*
X039397Y034010D02*
X039990Y034010D01*
X040110Y034403D02*
X040382Y034403D01*
X040461Y034481D02*
X040188Y034481D01*
X040267Y034560D02*
X040539Y034560D01*
X040473Y034638D02*
X040618Y034638D01*
X040540Y034717D02*
X040696Y034717D01*
X040770Y034795D02*
X040540Y034795D01*
X040540Y034874D02*
X040770Y034874D01*
X040445Y036365D02*
X040360Y036365D01*
X040360Y036444D02*
X040523Y036444D01*
X040602Y036522D02*
X040360Y036522D01*
X040287Y036601D02*
X040654Y036601D01*
X040654Y036679D02*
X039481Y036679D01*
X039560Y036601D02*
X039993Y036601D01*
X040510Y036836D02*
X039324Y036836D01*
X039403Y036758D02*
X040579Y036758D01*
X040510Y036915D02*
X039246Y036915D01*
X039167Y036993D02*
X040510Y036993D01*
X040510Y037229D02*
X035773Y037229D01*
X035852Y037307D02*
X040460Y037307D01*
X040420Y037386D02*
X035856Y037386D01*
X035856Y037464D02*
X040420Y037464D01*
X040433Y037543D02*
X035807Y037543D01*
X035728Y037621D02*
X040511Y037621D01*
X040768Y037621D02*
X041837Y037621D01*
X041808Y037543D02*
X040847Y037543D01*
X040860Y037464D02*
X041808Y037464D01*
X041832Y037386D02*
X040860Y037386D01*
X040820Y037307D02*
X041851Y037307D01*
X041845Y037229D02*
X040770Y037229D01*
X040770Y037150D02*
X040822Y037150D01*
X041017Y037150D02*
X041838Y037150D01*
X041831Y037072D02*
X041096Y037072D01*
X041140Y036993D02*
X041825Y036993D01*
X041818Y036915D02*
X041140Y036915D01*
X041131Y036836D02*
X041812Y036836D01*
X044770Y039427D02*
X023380Y039427D01*
X023380Y039505D02*
X044729Y039505D01*
X044696Y039584D02*
X023380Y039584D01*
X023380Y039662D02*
X044664Y039662D01*
X044631Y039741D02*
X023380Y039741D01*
X023380Y039819D02*
X044630Y039819D01*
X044630Y039898D02*
X023380Y039898D01*
X023380Y039976D02*
X044630Y039976D01*
X044630Y040055D02*
X023380Y040055D01*
X023380Y040133D02*
X044656Y040133D01*
X044689Y040212D02*
X023380Y040212D01*
X023380Y040290D02*
X024035Y040290D01*
X023980Y040346D02*
X024109Y040217D01*
X024291Y040217D01*
X024420Y040346D01*
X024420Y040528D01*
X024291Y040657D01*
X024109Y040657D01*
X023980Y040528D01*
X023980Y040346D01*
X023980Y040369D02*
X023380Y040369D01*
X023380Y040447D02*
X023980Y040447D01*
X023980Y040526D02*
X023380Y040526D01*
X023380Y040604D02*
X024056Y040604D01*
X024343Y040604D02*
X028482Y040604D01*
X028468Y040590D02*
X028468Y040408D01*
X028597Y040279D01*
X028779Y040279D01*
X028908Y040408D01*
X028908Y040590D01*
X028779Y040719D01*
X028597Y040719D01*
X028468Y040590D01*
X028468Y040526D02*
X024420Y040526D01*
X024420Y040447D02*
X028468Y040447D01*
X028507Y040369D02*
X024420Y040369D01*
X024365Y040290D02*
X028585Y040290D01*
X028791Y040290D02*
X044721Y040290D01*
X044754Y040369D02*
X028869Y040369D01*
X028908Y040447D02*
X044831Y040447D01*
X044909Y040526D02*
X028908Y040526D01*
X028893Y040604D02*
X044991Y040604D01*
X045181Y040683D02*
X028815Y040683D01*
X028561Y040683D02*
X023380Y040683D01*
X023380Y040761D02*
X045781Y040761D01*
X045760Y040683D02*
X045719Y040683D01*
X045814Y040840D02*
X023380Y040840D01*
X023380Y039348D02*
X044849Y039348D01*
X044927Y039270D02*
X023380Y039270D01*
X023380Y039191D02*
X045034Y039191D01*
X045224Y039113D02*
X023380Y039113D01*
X023380Y038563D02*
X046460Y038563D01*
X046460Y038485D02*
X023380Y038485D01*
X023380Y038406D02*
X046460Y038406D01*
X046460Y039113D02*
X045676Y039113D01*
X045865Y039191D02*
X046460Y039191D01*
X046460Y039270D02*
X045973Y039270D01*
X046051Y039348D02*
X046460Y039348D01*
X046460Y039427D02*
X046130Y039427D01*
X046171Y039505D02*
X046460Y039505D01*
X046460Y039584D02*
X046204Y039584D01*
X046236Y039662D02*
X046460Y039662D01*
X046460Y039741D02*
X046269Y039741D01*
X046270Y039819D02*
X046460Y039819D01*
X046460Y039898D02*
X046270Y039898D01*
X046270Y039976D02*
X046460Y039976D01*
X046460Y040055D02*
X046270Y040055D01*
X046244Y040133D02*
X046460Y040133D01*
X046460Y040212D02*
X046211Y040212D01*
X046345Y040290D02*
X046460Y040290D01*
X046460Y040369D02*
X046438Y040369D01*
X032130Y030870D02*
X031050Y030870D01*
X031129Y030792D02*
X032051Y030792D01*
X028635Y031655D02*
X026550Y031655D01*
X026550Y031577D02*
X028556Y031577D01*
X028586Y031607D02*
X028586Y031607D01*
X028510Y031498D02*
X026550Y031498D01*
X026561Y031420D02*
X028452Y031420D01*
X028420Y031341D02*
X026639Y031341D01*
X026718Y031263D02*
X028420Y031263D01*
X028441Y031184D02*
X026796Y031184D01*
X026875Y031106D02*
X028520Y031106D01*
X028502Y031734D02*
X026550Y031734D01*
X026550Y031812D02*
X028440Y031812D01*
X028440Y031891D02*
X026550Y031891D01*
X026550Y031969D02*
X028440Y031969D01*
X027687Y030085D02*
X022252Y030085D01*
X022174Y030007D02*
X024839Y030007D01*
X024780Y029928D02*
X022259Y029928D01*
X022338Y029850D02*
X024780Y029850D01*
X024280Y029300D02*
X025732Y029300D01*
X025654Y029379D02*
X024202Y029379D01*
X024123Y029457D02*
X025575Y029457D01*
X025497Y029536D02*
X024045Y029536D01*
X024359Y029222D02*
X025811Y029222D01*
X025889Y029143D02*
X024437Y029143D01*
X024516Y029065D02*
X025968Y029065D01*
X026046Y028986D02*
X024594Y028986D01*
X024673Y028908D02*
X026125Y028908D01*
X026203Y028829D02*
X024751Y028829D01*
X024830Y028751D02*
X026282Y028751D01*
X026360Y028672D02*
X024908Y028672D01*
X024987Y028594D02*
X026439Y028594D01*
X026517Y028515D02*
X025065Y028515D01*
X025144Y028437D02*
X026596Y028437D01*
X026674Y028358D02*
X025222Y028358D01*
X025011Y028201D02*
X023610Y028201D01*
X023610Y028123D02*
X025090Y028123D01*
X025168Y028044D02*
X023636Y028044D01*
X023709Y027966D02*
X025048Y027966D01*
X024933Y028280D02*
X023538Y028280D01*
X022030Y029536D02*
X021830Y029536D01*
X021908Y029614D02*
X021951Y029614D01*
X021940Y029693D02*
X021940Y029693D01*
X021940Y029771D02*
X021940Y029771D01*
X021940Y029773D02*
X021940Y029773D01*
X021806Y030007D02*
X021440Y030007D01*
X021440Y030085D02*
X021885Y030085D01*
X021963Y030164D02*
X021440Y030164D01*
X021440Y030242D02*
X022042Y030242D01*
X022120Y030321D02*
X021440Y030321D01*
X021440Y030399D02*
X022199Y030399D01*
X022277Y030478D02*
X021440Y030478D01*
X021440Y030556D02*
X022356Y030556D01*
X022434Y030635D02*
X021440Y030635D01*
X021440Y030713D02*
X022513Y030713D01*
X022591Y030792D02*
X021440Y030792D01*
X021440Y030870D02*
X022670Y030870D01*
X022730Y030949D02*
X021440Y030949D01*
X021440Y031027D02*
X022730Y031027D01*
X022730Y031106D02*
X021440Y031106D01*
X021440Y031184D02*
X022730Y031184D01*
X022730Y031263D02*
X021440Y031263D01*
X021440Y031341D02*
X022730Y031341D01*
X022730Y031420D02*
X021440Y031420D01*
X021440Y031498D02*
X022730Y031498D01*
X022756Y031577D02*
X021440Y031577D01*
X021440Y031655D02*
X022835Y031655D01*
X022913Y031734D02*
X021440Y031734D01*
X021440Y031812D02*
X022992Y031812D01*
X023070Y031891D02*
X021440Y031891D01*
X021440Y031969D02*
X023149Y031969D01*
X023227Y032048D02*
X021440Y032048D01*
X021440Y032126D02*
X023306Y032126D01*
X023384Y032205D02*
X021440Y032205D01*
X021440Y032283D02*
X023463Y032283D01*
X023541Y032362D02*
X021440Y032362D01*
X021440Y032440D02*
X023620Y032440D01*
X023698Y032519D02*
X021440Y032519D01*
X021440Y032597D02*
X023777Y032597D01*
X023855Y032676D02*
X021440Y032676D01*
X021440Y032754D02*
X023934Y032754D01*
X024012Y032833D02*
X023380Y032833D01*
X023380Y032911D02*
X024091Y032911D01*
X024169Y032990D02*
X023380Y032990D01*
X023380Y033068D02*
X024248Y033068D01*
X024326Y033147D02*
X023380Y033147D01*
X023380Y033225D02*
X024405Y033225D01*
X024483Y033304D02*
X023380Y033304D01*
X023380Y033382D02*
X024562Y033382D01*
X024640Y033461D02*
X023380Y033461D01*
X023380Y033539D02*
X024719Y033539D01*
X024797Y033618D02*
X023380Y033618D01*
X023380Y033696D02*
X024876Y033696D01*
X024954Y033775D02*
X023380Y033775D01*
X023380Y033853D02*
X025033Y033853D01*
X025111Y033932D02*
X023380Y033932D01*
X023380Y034010D02*
X025190Y034010D01*
X025268Y034089D02*
X023380Y034089D01*
X023380Y034167D02*
X025347Y034167D01*
X025425Y034246D02*
X023380Y034246D01*
X023380Y034324D02*
X025504Y034324D01*
X025582Y034403D02*
X023380Y034403D01*
X023380Y034481D02*
X025661Y034481D01*
X025670Y034560D02*
X023380Y034560D01*
X023380Y034638D02*
X025670Y034638D01*
X025670Y034717D02*
X023380Y034717D01*
X023380Y034795D02*
X025670Y034795D01*
X025670Y034874D02*
X023380Y034874D01*
X023380Y034952D02*
X025670Y034952D01*
X025670Y035031D02*
X023380Y035031D01*
X023380Y035109D02*
X025670Y035109D01*
X025670Y035188D02*
X023380Y035188D01*
X023380Y035266D02*
X025670Y035266D01*
X025670Y035345D02*
X023380Y035345D01*
X023380Y035423D02*
X025670Y035423D01*
X025670Y035502D02*
X023380Y035502D01*
X023380Y035580D02*
X025670Y035580D01*
X025670Y035659D02*
X023380Y035659D01*
X023380Y035737D02*
X025670Y035737D01*
X025670Y035816D02*
X023380Y035816D01*
X023380Y035894D02*
X025670Y035894D01*
X025670Y035973D02*
X023380Y035973D01*
X023380Y036051D02*
X025670Y036051D01*
X025670Y036130D02*
X023380Y036130D01*
X023380Y036208D02*
X025670Y036208D01*
X025670Y036287D02*
X023380Y036287D01*
X023380Y036365D02*
X025670Y036365D01*
X025670Y036444D02*
X023380Y036444D01*
X023380Y036522D02*
X025670Y036522D01*
X025670Y036601D02*
X023380Y036601D01*
X023380Y036679D02*
X025670Y036679D01*
X025670Y036758D02*
X023380Y036758D01*
X023380Y036836D02*
X025670Y036836D01*
X025670Y036915D02*
X023380Y036915D01*
X023380Y036993D02*
X025670Y036993D01*
X025670Y037072D02*
X025099Y037072D01*
X025177Y037150D02*
X025670Y037150D01*
X025670Y037229D02*
X025256Y037229D01*
X025334Y037307D02*
X025670Y037307D01*
X025640Y037386D02*
X025413Y037386D01*
X025491Y037464D02*
X025580Y037464D01*
X025570Y037543D02*
X025580Y037543D01*
X025930Y037307D02*
X025960Y037307D01*
X025930Y037229D02*
X026037Y037229D01*
X026050Y037150D02*
X025930Y037150D01*
X025930Y037072D02*
X026050Y037072D01*
X026050Y036993D02*
X025930Y036993D01*
X025930Y036915D02*
X026050Y036915D01*
X026050Y036836D02*
X025930Y036836D01*
X025930Y036758D02*
X026050Y036758D01*
X026050Y036679D02*
X025930Y036679D01*
X025930Y036601D02*
X026050Y036601D01*
X026050Y036522D02*
X025930Y036522D01*
X025930Y036444D02*
X026050Y036444D01*
X026050Y036365D02*
X025930Y036365D01*
X025930Y036287D02*
X026050Y036287D01*
X026050Y036208D02*
X025930Y036208D01*
X025930Y036130D02*
X026050Y036130D01*
X026050Y036051D02*
X025930Y036051D01*
X025930Y035973D02*
X026050Y035973D01*
X026050Y035894D02*
X025930Y035894D01*
X025930Y035816D02*
X026050Y035816D01*
X026050Y035737D02*
X025930Y035737D01*
X025930Y035659D02*
X026050Y035659D01*
X026050Y035580D02*
X025930Y035580D01*
X025930Y035502D02*
X026050Y035502D01*
X026050Y035423D02*
X025930Y035423D01*
X025930Y035345D02*
X026050Y035345D01*
X026050Y035266D02*
X025930Y035266D01*
X025930Y035188D02*
X026050Y035188D01*
X026050Y035109D02*
X025930Y035109D01*
X025930Y035031D02*
X026050Y035031D01*
X026050Y034952D02*
X025930Y034952D01*
X025930Y034874D02*
X026050Y034874D01*
X026050Y034795D02*
X025930Y034795D01*
X025930Y034717D02*
X026050Y034717D01*
X026050Y034638D02*
X025930Y034638D01*
X025930Y034560D02*
X026050Y034560D01*
X029000Y035580D02*
X030972Y035580D01*
X030894Y035502D02*
X030806Y035502D01*
X030860Y035423D02*
X030880Y035423D01*
X030864Y035345D02*
X030860Y035345D01*
X030474Y035502D02*
X029966Y035502D01*
X030040Y035423D02*
X030420Y035423D01*
X030420Y035345D02*
X030040Y035345D01*
X030040Y035246D02*
X030031Y035237D01*
X030191Y035237D01*
X030320Y035108D01*
X030320Y035098D01*
X030453Y035233D01*
X030420Y035266D01*
X030408Y035188D02*
X030240Y035188D01*
X030318Y035109D02*
X030331Y035109D01*
X029685Y035109D02*
X029598Y035109D01*
X029658Y035188D02*
X029520Y035188D01*
X029600Y035266D02*
X029314Y035266D01*
X029236Y035345D02*
X029600Y035345D01*
X029600Y035423D02*
X029157Y035423D01*
X029079Y035502D02*
X029674Y035502D01*
X025627Y038328D02*
X023380Y038328D01*
X023380Y038249D02*
X025549Y038249D01*
X025470Y038171D02*
X023380Y038171D01*
X023380Y038092D02*
X025392Y038092D01*
X025313Y038014D02*
X023380Y038014D01*
X023380Y037935D02*
X025235Y037935D01*
X025156Y037857D02*
X023380Y037857D01*
X023380Y037778D02*
X024410Y037778D01*
X024332Y037700D02*
X023380Y037700D01*
X023380Y037621D02*
X024300Y037621D01*
X024300Y037543D02*
X023380Y037543D01*
X023380Y037464D02*
X024321Y037464D01*
X024390Y037386D02*
X023380Y037386D01*
X023380Y037307D02*
X024390Y037307D01*
X024424Y037229D02*
X023380Y037229D01*
X023380Y037150D02*
X024502Y037150D01*
X024581Y037072D02*
X023380Y037072D01*
X024629Y037778D02*
X025078Y037778D01*
X024999Y037700D02*
X024708Y037700D01*
X024740Y037621D02*
X024793Y037621D01*
X021600Y029928D02*
X021440Y029928D01*
X021440Y029850D02*
X021522Y029850D01*
X021500Y029771D02*
X021440Y029771D01*
X021440Y029693D02*
X021500Y029693D01*
X021531Y029614D02*
X021440Y029614D01*
X021440Y029536D02*
X021610Y029536D01*
X021440Y025532D02*
X043240Y025532D01*
X043300Y025454D02*
X021440Y025454D01*
X021440Y025375D02*
X043300Y025375D01*
X043349Y025297D02*
X021440Y025297D01*
X021440Y025218D02*
X043427Y025218D01*
X043999Y024590D02*
X037670Y024590D01*
X037749Y024512D02*
X043921Y024512D01*
X043757Y024433D02*
X037827Y024433D01*
X037906Y024355D02*
X043679Y024355D01*
X043678Y024276D02*
X037984Y024276D01*
X038063Y024198D02*
X043678Y024198D01*
X043730Y024119D02*
X038141Y024119D01*
X037773Y024119D02*
X033448Y024119D01*
X034532Y023020D02*
X023177Y023020D01*
X023144Y022942D02*
X034454Y022942D01*
X034747Y023020D02*
X035479Y023020D01*
X035558Y023099D02*
X023210Y023099D01*
X023242Y023177D02*
X035636Y023177D01*
X035715Y023256D02*
X023270Y023256D01*
X023270Y023334D02*
X035793Y023334D01*
X035533Y022706D02*
X044998Y022706D01*
X045188Y022628D02*
X034762Y022628D01*
X029279Y027259D02*
X028906Y027259D01*
X022132Y024826D02*
X044235Y024826D01*
X044313Y024904D02*
X021995Y024904D01*
X045712Y022628D02*
X046460Y022628D01*
X046460Y022706D02*
X045901Y022706D01*
X045987Y022785D02*
X046460Y022785D01*
X046460Y022863D02*
X046066Y022863D01*
X046144Y022942D02*
X046460Y022942D01*
X046460Y023020D02*
X046177Y023020D01*
X046210Y023099D02*
X046460Y023099D01*
X046460Y023177D02*
X046242Y023177D01*
X046270Y023256D02*
X046460Y023256D01*
X046460Y023334D02*
X046270Y023334D01*
X046270Y023413D02*
X046460Y023413D01*
X046460Y023491D02*
X046270Y023491D01*
X046270Y023570D02*
X046460Y023570D01*
X046460Y023648D02*
X046237Y023648D01*
X046205Y023727D02*
X046460Y023727D01*
X046460Y023805D02*
X046172Y023805D01*
X046132Y023884D02*
X046460Y023884D01*
X046460Y023962D02*
X046054Y023962D01*
X045975Y024041D02*
X046460Y024041D01*
D14*
X046180Y025297D03*
X046180Y025817D03*
X045140Y025817D03*
X044780Y025997D03*
X044620Y026437D03*
X044220Y026497D03*
X043560Y026497D03*
X043340Y026177D03*
X043620Y025777D03*
X043520Y025437D03*
X044690Y025055D03*
X043898Y024263D03*
X042494Y023279D03*
X043420Y026997D03*
X044540Y027977D03*
X043830Y028597D03*
X043710Y029277D03*
X043600Y030637D03*
X042860Y030797D03*
X042860Y030457D03*
X043100Y031857D03*
X042638Y033287D03*
X042258Y033291D03*
X041200Y032957D03*
X040940Y034217D03*
X040900Y035057D03*
X040500Y035197D03*
X040320Y034797D03*
X038620Y034477D03*
X039260Y033837D03*
X038280Y033517D03*
X037660Y033557D03*
X036240Y032817D03*
X035980Y032987D03*
X035950Y031857D03*
X035950Y031257D03*
X036020Y030857D03*
X035528Y029843D03*
X035375Y028972D03*
X035340Y028357D03*
X036600Y028097D03*
X036905Y028587D03*
X038400Y028477D03*
X038400Y028847D03*
X038160Y029977D03*
X037800Y030817D03*
X038440Y030937D03*
X039020Y031357D03*
X039180Y030857D03*
X039700Y030037D03*
X039880Y028877D03*
X041020Y028937D03*
X041110Y031377D03*
X039040Y032017D03*
X037380Y035307D03*
X037160Y036397D03*
X037160Y036777D03*
X037520Y036997D03*
X038770Y036687D03*
X039940Y036677D03*
X040140Y036437D03*
X040530Y036657D03*
X040920Y036937D03*
X040640Y037439D03*
X042028Y037501D03*
X043364Y036166D03*
X044348Y037943D03*
X042210Y039592D03*
X041590Y040412D03*
X043050Y040292D03*
X045215Y034810D03*
X045429Y033810D03*
X044492Y032867D03*
X044747Y032560D03*
X044574Y031245D03*
X045480Y031047D03*
X045200Y026817D03*
X038336Y023007D03*
X037200Y023737D03*
X036200Y023557D03*
X034640Y022817D03*
X033800Y022717D03*
X034201Y023573D03*
X033320Y023937D03*
X032150Y022547D03*
X029070Y025207D03*
X028650Y025887D03*
X029120Y026917D03*
X028600Y027857D03*
X027980Y027757D03*
X028960Y028897D03*
X028820Y029637D03*
X028940Y030217D03*
X029180Y030817D03*
X028640Y031297D03*
X028660Y031887D03*
X028660Y032477D03*
X028690Y033057D03*
X028680Y033657D03*
X028700Y034237D03*
X028980Y034797D03*
X029420Y034977D03*
X029820Y035337D03*
X030100Y035017D03*
X030640Y035357D03*
X031100Y035397D03*
X031240Y035077D03*
X031620Y035017D03*
X031520Y034257D03*
X030850Y033747D03*
X031000Y032617D03*
X031000Y031437D03*
X032030Y031157D03*
X033270Y031237D03*
X033540Y031417D03*
X034140Y031737D03*
X034300Y032577D03*
X034040Y032837D03*
X034120Y033417D03*
X034680Y033277D03*
X033190Y032387D03*
X032730Y032647D03*
X034700Y031057D03*
X034160Y030777D03*
X031870Y028827D03*
X028160Y029577D03*
X027940Y030017D03*
X027600Y029957D03*
X026850Y031307D03*
X025490Y030907D03*
X025000Y029857D03*
X023700Y029777D03*
X023400Y029477D03*
X023400Y028477D03*
X023390Y028117D03*
X025200Y027807D03*
X026020Y027757D03*
X023170Y025847D03*
X023590Y025207D03*
X027000Y024497D03*
X022160Y029717D03*
X021720Y029737D03*
X021945Y030907D03*
X022535Y030907D03*
X023125Y030907D03*
X023720Y030907D03*
X029560Y033097D03*
X026800Y036007D03*
X028150Y036412D03*
X028870Y036412D03*
X028832Y037691D03*
X027260Y037457D03*
X026680Y037437D03*
X026180Y037397D03*
X025800Y037537D03*
X024920Y037437D03*
X024520Y037577D03*
X024200Y040437D03*
X028688Y040499D03*
X031190Y039552D03*
X031715Y040409D03*
X032666Y038861D03*
X031703Y038060D03*
X033224Y036251D03*
X035636Y037403D03*
D15*
X037960Y034577D02*
X039320Y035937D01*
X041750Y035937D01*
X041880Y036193D01*
X041920Y036207D01*
X042028Y037501D01*
X037960Y034577D02*
X037960Y033297D01*
X038720Y032537D01*
X038720Y029137D01*
X039560Y028297D01*
X040320Y028297D01*
X041460Y027157D01*
X041880Y027193D01*
X044690Y025055D02*
X043898Y024263D01*
X043898Y024263D01*
X041690Y031377D02*
X041110Y031377D01*
X041690Y031377D02*
X041880Y031693D01*
D16*
X040000Y033837D02*
X039260Y033837D01*
X040000Y033837D02*
X040900Y034737D01*
X040900Y035057D01*
X040320Y034797D02*
X040000Y034477D01*
X038620Y034477D01*
X037184Y034217D02*
X037184Y031499D01*
X035528Y029843D01*
X034300Y032577D02*
X031940Y030217D01*
X028940Y030217D01*
X028820Y029637D02*
X029500Y028957D01*
X029500Y027297D01*
X029120Y026917D01*
X028800Y027337D02*
X026060Y027337D01*
X023920Y029477D01*
X023400Y029477D01*
X023390Y028117D02*
X023680Y027807D01*
X025200Y027807D01*
X026860Y028357D02*
X028120Y028357D01*
X028600Y027857D01*
X028960Y027497D02*
X028800Y027337D01*
X028960Y027497D02*
X028960Y028897D01*
X028160Y029577D02*
X028160Y029837D01*
X028200Y029877D01*
X028200Y030117D01*
X027900Y030417D01*
X027380Y030417D01*
X026420Y031377D01*
X026420Y037177D01*
X026680Y037437D01*
X026940Y037697D01*
X027440Y037697D01*
X027760Y037377D01*
X027760Y036017D01*
X028980Y034797D01*
X028880Y034417D02*
X029176Y034417D01*
X029820Y035061D01*
X029820Y035337D01*
X030100Y035017D02*
X029220Y034137D01*
X028980Y034137D01*
X028680Y033837D01*
X028680Y033657D01*
X028940Y033797D02*
X028940Y033307D01*
X028690Y033057D01*
X028660Y032477D02*
X029000Y032477D01*
X029260Y032737D01*
X029260Y033557D01*
X031100Y035397D01*
X031060Y035077D02*
X031240Y035077D01*
X031060Y035077D02*
X029800Y033817D01*
X029800Y032457D01*
X029230Y031887D01*
X028660Y031887D01*
X028820Y031657D02*
X029240Y031657D01*
X029960Y032377D01*
X029960Y033717D01*
X031040Y034797D01*
X031400Y034797D01*
X031620Y035017D01*
X030640Y035357D02*
X030580Y035177D01*
X029380Y033957D01*
X029100Y033957D01*
X028940Y033797D01*
X028700Y034237D02*
X028880Y034417D01*
X029420Y034977D02*
X028460Y035937D01*
X028460Y036917D01*
X027520Y037857D01*
X026620Y037857D01*
X026180Y037397D01*
X026180Y031317D01*
X027260Y030237D01*
X027720Y030237D01*
X027940Y030017D01*
X029180Y030817D02*
X030920Y030817D01*
X031120Y030617D01*
X032060Y030617D01*
X034040Y032597D01*
X034040Y032837D01*
X037184Y034217D02*
X039164Y036197D01*
X040460Y036197D01*
X040784Y036521D01*
X040784Y036737D01*
X040640Y036881D01*
X040640Y037439D01*
X040140Y036437D02*
X039540Y036437D01*
X038980Y036997D01*
X037520Y036997D01*
X038770Y036687D02*
X037390Y035307D01*
X037380Y035307D01*
X035636Y037403D02*
X028670Y037403D01*
X027842Y038231D01*
X025714Y038231D01*
X024920Y037437D01*
X025020Y037177D02*
X025894Y038051D01*
X027716Y038051D01*
X029516Y036251D01*
X033224Y036251D01*
X031703Y038060D02*
X031334Y037691D01*
X028832Y037691D01*
X027260Y037457D02*
X027260Y032277D01*
X027380Y032157D01*
X029240Y032157D01*
X029560Y032477D01*
X029560Y033097D01*
X028820Y031657D02*
X028640Y031477D01*
X028640Y031297D01*
X026860Y028357D02*
X025360Y029857D01*
X025000Y029857D01*
X022860Y030877D02*
X022860Y031497D01*
X025800Y034437D01*
X025800Y037537D01*
X025020Y037177D02*
X024660Y037177D01*
X024520Y037317D01*
X024520Y037577D01*
X022860Y030877D02*
X021720Y029737D01*
X027000Y024497D02*
X037580Y024497D01*
X038336Y023741D01*
X038336Y023007D01*
X038336Y023007D01*
X037200Y023737D02*
X036980Y023957D01*
X033320Y023937D01*
X034640Y022817D02*
X035460Y022817D01*
X036200Y023557D01*
X043120Y025837D02*
X043520Y025437D01*
X043120Y025837D02*
X043120Y026697D01*
X043420Y026997D01*
X043560Y026497D02*
X044220Y026497D01*
X044120Y026177D02*
X043340Y026177D01*
X044120Y026177D02*
X045000Y025297D01*
X046180Y025297D01*
X046180Y025817D02*
X045840Y026157D01*
X044940Y026157D01*
X044780Y025997D01*
D17*
X025316Y023813D03*
M02*
