G75*
%MOIN*%
%OFA0B0*%
%FSLAX24Y24*%
%IPPOS*%
%LPD*%
%AMOC8*
5,1,8,0,0,1.08239X$1,22.5*
%
%ADD10C,0.0240*%
%ADD11C,0.0120*%
%ADD12C,0.0080*%
%ADD13C,0.0360*%
D10*
X032150Y022547D03*
X033800Y022717D03*
X034640Y022817D03*
X034201Y023573D03*
X033320Y023937D03*
X036200Y023557D03*
X037200Y023737D03*
X038336Y023007D03*
X042494Y023279D03*
X043898Y024263D03*
X044690Y025055D03*
X043520Y025437D03*
X043620Y025777D03*
X043340Y026177D03*
X043560Y026497D03*
X043420Y026997D03*
X044220Y026497D03*
X044620Y026437D03*
X044780Y025997D03*
X045140Y025817D03*
X045200Y026817D03*
X044540Y027977D03*
X043830Y028597D03*
X043710Y029277D03*
X043600Y030637D03*
X042860Y030797D03*
X042860Y030457D03*
X043100Y031857D03*
X042638Y033287D03*
X042258Y033291D03*
X041200Y032957D03*
X040940Y034217D03*
X040900Y035057D03*
X040500Y035197D03*
X040320Y034797D03*
X038620Y034477D03*
X039260Y033837D03*
X038280Y033517D03*
X037660Y033557D03*
X036240Y032817D03*
X035980Y032987D03*
X035950Y031857D03*
X035950Y031257D03*
X036020Y030857D03*
X035528Y029843D03*
X035375Y028972D03*
X035340Y028357D03*
X036600Y028097D03*
X036905Y028587D03*
X038400Y028477D03*
X038400Y028847D03*
X038160Y029977D03*
X037800Y030817D03*
X038440Y030937D03*
X039020Y031357D03*
X039180Y030857D03*
X039700Y030037D03*
X039880Y028877D03*
X041020Y028937D03*
X041110Y031377D03*
X039040Y032017D03*
X037380Y035307D03*
X037160Y036397D03*
X037160Y036777D03*
X037520Y036997D03*
X038770Y036687D03*
X039940Y036677D03*
X040140Y036437D03*
X040530Y036657D03*
X040920Y036937D03*
X040640Y037439D03*
X042028Y037501D03*
X043364Y036166D03*
X044348Y037943D03*
X042210Y039592D03*
X041590Y040412D03*
X043050Y040292D03*
X045215Y034810D03*
X045429Y033810D03*
X044492Y032867D03*
X044747Y032560D03*
X044574Y031245D03*
X045480Y031047D03*
X046180Y025817D03*
X046180Y025297D03*
X034700Y031057D03*
X034160Y030777D03*
X033540Y031417D03*
X033270Y031237D03*
X034140Y031737D03*
X034300Y032577D03*
X034040Y032837D03*
X034120Y033417D03*
X034680Y033277D03*
X033190Y032387D03*
X032730Y032647D03*
X032030Y031157D03*
X031000Y031437D03*
X031000Y032617D03*
X030850Y033747D03*
X031520Y034257D03*
X031620Y035017D03*
X031240Y035077D03*
X031100Y035397D03*
X030640Y035357D03*
X030100Y035017D03*
X029820Y035337D03*
X029420Y034977D03*
X028980Y034797D03*
X028700Y034237D03*
X028680Y033657D03*
X028690Y033057D03*
X028660Y032477D03*
X028660Y031887D03*
X028640Y031297D03*
X029180Y030817D03*
X028940Y030217D03*
X028820Y029637D03*
X028160Y029577D03*
X027940Y030017D03*
X027600Y029957D03*
X026850Y031307D03*
X025490Y030907D03*
X025000Y029857D03*
X023700Y029777D03*
X023400Y029477D03*
X023400Y028477D03*
X023390Y028117D03*
X025200Y027807D03*
X026020Y027757D03*
X027980Y027757D03*
X028600Y027857D03*
X029120Y026917D03*
X028650Y025887D03*
X029070Y025207D03*
X027000Y024497D03*
X023590Y025207D03*
X023170Y025847D03*
X022160Y029717D03*
X021720Y029737D03*
X021945Y030907D03*
X022535Y030907D03*
X023125Y030907D03*
X023720Y030907D03*
X028960Y028897D03*
X031870Y028827D03*
X029560Y033097D03*
X026800Y036007D03*
X028150Y036412D03*
X028870Y036412D03*
X028832Y037691D03*
X027260Y037457D03*
X026680Y037437D03*
X026180Y037397D03*
X025800Y037537D03*
X024920Y037437D03*
X024520Y037577D03*
X024200Y040437D03*
X028688Y040499D03*
X031190Y039552D03*
X031715Y040409D03*
X032666Y038861D03*
X031703Y038060D03*
X033224Y036251D03*
X035636Y037403D03*
D11*
X036820Y036717D02*
X037140Y036397D01*
X037160Y036397D01*
X036820Y036717D02*
X036820Y038517D01*
X035480Y039857D01*
X027860Y039857D01*
X026780Y038777D01*
X024540Y040777D02*
X038500Y040777D01*
X042028Y037501D01*
X044540Y027977D02*
X044540Y027059D01*
X045464Y026135D01*
X045464Y025523D01*
X044996Y025055D01*
X044690Y025055D01*
X043898Y024263D02*
X042134Y022499D01*
X042134Y022499D01*
X034018Y022499D01*
X033800Y022717D01*
X024200Y040437D02*
X024540Y040777D01*
D12*
X021440Y032777D02*
X021440Y022397D01*
X031932Y022397D01*
X031929Y022399D01*
X031890Y022495D01*
X031890Y022598D01*
X031929Y022694D01*
X032003Y022767D01*
X032098Y022807D01*
X032202Y022807D01*
X032297Y022767D01*
X032370Y022694D01*
X032410Y022598D01*
X032410Y022495D01*
X032370Y022399D01*
X032368Y022397D01*
X033750Y022397D01*
X033750Y022457D01*
X033748Y022457D01*
X033653Y022496D01*
X033579Y022569D01*
X033540Y022665D01*
X033540Y022768D01*
X033579Y022864D01*
X033653Y022937D01*
X033748Y022977D01*
X033750Y022977D01*
X033750Y040577D01*
X031915Y040577D01*
X031935Y040557D01*
X031975Y040461D01*
X031975Y040358D01*
X031935Y040262D01*
X031862Y040189D01*
X031767Y040149D01*
X031663Y040149D01*
X031568Y040189D01*
X031495Y040262D01*
X031455Y040358D01*
X031455Y040461D01*
X031495Y040557D01*
X031515Y040577D01*
X024623Y040577D01*
X024460Y040414D01*
X024460Y040385D01*
X024420Y040289D01*
X024347Y040216D01*
X024252Y040177D01*
X024148Y040177D01*
X024053Y040216D01*
X023979Y040289D01*
X023940Y040385D01*
X023940Y040488D01*
X023979Y040584D01*
X024053Y040657D01*
X024148Y040697D01*
X024177Y040697D01*
X024340Y040860D01*
X024397Y040917D01*
X023380Y040917D01*
X023380Y032824D01*
X023333Y032777D01*
X021440Y032777D01*
X021440Y032754D02*
X032493Y032754D01*
X032509Y032794D02*
X032470Y032698D01*
X032470Y032595D01*
X032509Y032499D01*
X032583Y032426D01*
X032678Y032387D01*
X032782Y032387D01*
X032877Y032426D01*
X032950Y032499D01*
X032990Y032595D01*
X032990Y032698D01*
X032950Y032794D01*
X032877Y032867D01*
X032782Y032907D01*
X032678Y032907D01*
X032583Y032867D01*
X032509Y032794D01*
X032548Y032833D02*
X028829Y032833D01*
X028837Y032836D02*
X028910Y032909D01*
X028950Y033005D01*
X028950Y033108D01*
X028910Y033204D01*
X028837Y033277D01*
X028742Y033317D01*
X028638Y033317D01*
X028543Y033277D01*
X028469Y033204D01*
X028430Y033108D01*
X028430Y033005D01*
X028469Y032909D01*
X028543Y032836D01*
X028638Y032797D01*
X028742Y032797D01*
X028837Y032836D01*
X028911Y032911D02*
X029378Y032911D01*
X029413Y032876D02*
X029508Y032837D01*
X029612Y032837D01*
X029707Y032876D01*
X029780Y032949D01*
X029820Y033045D01*
X029820Y033148D01*
X029780Y033244D01*
X029707Y033317D01*
X029612Y033357D01*
X029508Y033357D01*
X029413Y033317D01*
X029339Y033244D01*
X029300Y033148D01*
X029300Y033045D01*
X029339Y032949D01*
X029413Y032876D01*
X029323Y032990D02*
X028944Y032990D01*
X028950Y033068D02*
X029300Y033068D01*
X029300Y033147D02*
X028934Y033147D01*
X028889Y033225D02*
X029332Y033225D01*
X029399Y033304D02*
X028773Y033304D01*
X028732Y033397D02*
X028827Y033436D01*
X028900Y033509D01*
X028940Y033605D01*
X028940Y033708D01*
X028900Y033804D01*
X028827Y033877D01*
X028732Y033917D01*
X028628Y033917D01*
X028533Y033877D01*
X028459Y033804D01*
X028420Y033708D01*
X028420Y033605D01*
X028459Y033509D01*
X028533Y033436D01*
X028628Y033397D01*
X028732Y033397D01*
X028852Y033461D02*
X033750Y033461D01*
X033750Y033539D02*
X031010Y033539D01*
X030997Y033526D02*
X031070Y033599D01*
X031110Y033695D01*
X031110Y033798D01*
X031070Y033894D01*
X030997Y033967D01*
X030902Y034007D01*
X030798Y034007D01*
X030703Y033967D01*
X030629Y033894D01*
X030590Y033798D01*
X030590Y033695D01*
X030629Y033599D01*
X030703Y033526D01*
X030798Y033487D01*
X030902Y033487D01*
X030997Y033526D01*
X031078Y033618D02*
X033750Y033618D01*
X033750Y033696D02*
X031110Y033696D01*
X031110Y033775D02*
X033750Y033775D01*
X033750Y033853D02*
X031087Y033853D01*
X031032Y033932D02*
X033750Y033932D01*
X033750Y034010D02*
X028833Y034010D01*
X028847Y034016D02*
X028920Y034089D01*
X028960Y034185D01*
X028960Y034288D01*
X028920Y034384D01*
X028847Y034457D01*
X028752Y034497D01*
X028648Y034497D01*
X028553Y034457D01*
X028479Y034384D01*
X028440Y034288D01*
X028440Y034185D01*
X028479Y034089D01*
X028553Y034016D01*
X028648Y033977D01*
X028752Y033977D01*
X028847Y034016D01*
X028920Y034089D02*
X033750Y034089D01*
X033750Y034167D02*
X028952Y034167D01*
X028960Y034246D02*
X033750Y034246D01*
X033750Y034324D02*
X028945Y034324D01*
X028901Y034403D02*
X033750Y034403D01*
X033750Y034481D02*
X028789Y034481D01*
X028833Y034576D02*
X028928Y034537D01*
X029032Y034537D01*
X029127Y034576D01*
X029200Y034649D01*
X029240Y034745D01*
X029240Y034789D01*
X029273Y034756D01*
X029368Y034717D01*
X029228Y034717D01*
X029189Y034638D02*
X033750Y034638D01*
X033750Y034560D02*
X029087Y034560D01*
X028873Y034560D02*
X023380Y034560D01*
X023380Y034638D02*
X028771Y034638D01*
X028759Y034649D02*
X028833Y034576D01*
X028759Y034649D02*
X028720Y034745D01*
X028720Y034848D01*
X028759Y034944D01*
X028833Y035017D01*
X028928Y035057D01*
X029032Y035057D01*
X029127Y035017D01*
X029160Y034984D01*
X029160Y035028D01*
X029199Y035124D01*
X029273Y035197D01*
X029368Y035237D01*
X029472Y035237D01*
X029567Y035197D01*
X029640Y035124D01*
X029680Y035028D01*
X029680Y034925D01*
X029640Y034829D01*
X029567Y034756D01*
X029472Y034717D01*
X033750Y034717D01*
X033750Y034795D02*
X031765Y034795D01*
X031767Y034796D02*
X031840Y034869D01*
X031880Y034965D01*
X031880Y035068D01*
X031840Y035164D01*
X031767Y035237D01*
X031672Y035277D01*
X031568Y035277D01*
X031473Y035237D01*
X031460Y035224D01*
X031387Y035297D01*
X031347Y035314D01*
X031360Y035345D01*
X031360Y035448D01*
X031320Y035544D01*
X031247Y035617D01*
X031152Y035657D01*
X031048Y035657D01*
X030953Y035617D01*
X030879Y035544D01*
X030862Y035501D01*
X030860Y035504D01*
X030787Y035577D01*
X030692Y035617D01*
X030588Y035617D01*
X030493Y035577D01*
X030419Y035504D01*
X030380Y035408D01*
X030380Y035305D01*
X030419Y035209D01*
X030493Y035136D01*
X030588Y035097D01*
X030692Y035097D01*
X030787Y035136D01*
X030860Y035209D01*
X030878Y035253D01*
X030879Y035249D01*
X030953Y035176D01*
X030993Y035160D01*
X030980Y035128D01*
X030980Y035025D01*
X031019Y034929D01*
X031093Y034856D01*
X031188Y034817D01*
X031292Y034817D01*
X031387Y034856D01*
X031400Y034869D01*
X031473Y034796D01*
X031568Y034757D01*
X031672Y034757D01*
X031767Y034796D01*
X031842Y034874D02*
X033750Y034874D01*
X033750Y034952D02*
X031875Y034952D01*
X031880Y035031D02*
X033750Y035031D01*
X033750Y035109D02*
X031863Y035109D01*
X031816Y035188D02*
X033750Y035188D01*
X033750Y035266D02*
X031697Y035266D01*
X031543Y035266D02*
X031418Y035266D01*
X031360Y035345D02*
X033750Y035345D01*
X033750Y035423D02*
X031360Y035423D01*
X031338Y035502D02*
X033750Y035502D01*
X033750Y035580D02*
X031284Y035580D01*
X030916Y035580D02*
X030780Y035580D01*
X030861Y035502D02*
X030862Y035502D01*
X030839Y035188D02*
X030941Y035188D01*
X030980Y035109D02*
X030722Y035109D01*
X030558Y035109D02*
X030343Y035109D01*
X030360Y035068D02*
X030320Y035164D01*
X030247Y035237D01*
X030152Y035277D01*
X030076Y035277D01*
X030080Y035285D01*
X030080Y035388D01*
X030040Y035484D01*
X029967Y035557D01*
X029872Y035597D01*
X029768Y035597D01*
X029673Y035557D01*
X029599Y035484D01*
X029560Y035388D01*
X029560Y035285D01*
X029599Y035189D01*
X029673Y035116D01*
X029768Y035077D01*
X029843Y035077D01*
X029840Y035068D01*
X029840Y034965D01*
X029879Y034869D01*
X029953Y034796D01*
X030048Y034757D01*
X030152Y034757D01*
X030247Y034796D01*
X030320Y034869D01*
X030360Y034965D01*
X030360Y035068D01*
X030360Y035031D02*
X030980Y035031D01*
X031010Y034952D02*
X030355Y034952D01*
X030322Y034874D02*
X031075Y034874D01*
X031475Y034795D02*
X030245Y034795D01*
X029955Y034795D02*
X029606Y034795D01*
X029659Y034874D02*
X029878Y034874D01*
X029845Y034952D02*
X029680Y034952D01*
X029679Y035031D02*
X029840Y035031D01*
X029690Y035109D02*
X029646Y035109D01*
X029601Y035188D02*
X029576Y035188D01*
X029568Y035266D02*
X023380Y035266D01*
X023380Y035188D02*
X029263Y035188D01*
X029193Y035109D02*
X023380Y035109D01*
X023380Y035031D02*
X028865Y035031D01*
X028768Y034952D02*
X023380Y034952D01*
X023380Y034874D02*
X028730Y034874D01*
X028720Y034795D02*
X023380Y034795D01*
X023380Y034717D02*
X028732Y034717D01*
X028611Y034481D02*
X023380Y034481D01*
X023380Y034403D02*
X028498Y034403D01*
X028455Y034324D02*
X023380Y034324D01*
X023380Y034246D02*
X028440Y034246D01*
X028447Y034167D02*
X023380Y034167D01*
X023380Y034089D02*
X028480Y034089D01*
X028567Y034010D02*
X023380Y034010D01*
X023380Y033932D02*
X030667Y033932D01*
X030613Y033853D02*
X028851Y033853D01*
X028912Y033775D02*
X030590Y033775D01*
X030590Y033696D02*
X028940Y033696D01*
X028940Y033618D02*
X030622Y033618D01*
X030690Y033539D02*
X028913Y033539D01*
X028607Y033304D02*
X023380Y033304D01*
X023380Y033382D02*
X033750Y033382D01*
X033750Y033304D02*
X029721Y033304D01*
X029788Y033225D02*
X033750Y033225D01*
X033750Y033147D02*
X029820Y033147D01*
X029820Y033068D02*
X033750Y033068D01*
X033750Y032990D02*
X029797Y032990D01*
X029742Y032911D02*
X033750Y032911D01*
X033750Y032833D02*
X032912Y032833D01*
X032967Y032754D02*
X033750Y032754D01*
X033750Y032676D02*
X032990Y032676D01*
X032990Y032597D02*
X033033Y032597D01*
X033043Y032607D02*
X032969Y032534D01*
X032930Y032438D01*
X032930Y032335D01*
X032969Y032239D01*
X033043Y032166D01*
X033138Y032127D01*
X033242Y032127D01*
X033337Y032166D01*
X033410Y032239D01*
X033450Y032335D01*
X033450Y032438D01*
X033410Y032534D01*
X033337Y032607D01*
X033242Y032647D01*
X033138Y032647D01*
X033043Y032607D01*
X032963Y032519D02*
X032958Y032519D01*
X032931Y032440D02*
X032891Y032440D01*
X032930Y032362D02*
X028894Y032362D01*
X028880Y032329D02*
X028920Y032425D01*
X028920Y032528D01*
X028880Y032624D01*
X028807Y032697D01*
X028712Y032737D01*
X028608Y032737D01*
X028513Y032697D01*
X028439Y032624D01*
X028400Y032528D01*
X028400Y032425D01*
X028439Y032329D01*
X028513Y032256D01*
X028608Y032217D01*
X028712Y032217D01*
X028807Y032256D01*
X028880Y032329D01*
X028834Y032283D02*
X032951Y032283D01*
X033004Y032205D02*
X021440Y032205D01*
X021440Y032283D02*
X028486Y032283D01*
X028426Y032362D02*
X021440Y032362D01*
X021440Y032440D02*
X028400Y032440D01*
X028400Y032519D02*
X021440Y032519D01*
X021440Y032597D02*
X028428Y032597D01*
X028491Y032676D02*
X021440Y032676D01*
X021440Y032126D02*
X028559Y032126D01*
X028513Y032107D02*
X028439Y032034D01*
X028400Y031938D01*
X028400Y031835D01*
X028439Y031739D01*
X028513Y031666D01*
X028608Y031627D01*
X028712Y031627D01*
X028807Y031666D01*
X028880Y031739D01*
X028920Y031835D01*
X028920Y031938D01*
X028880Y032034D01*
X028807Y032107D01*
X028712Y032147D01*
X028608Y032147D01*
X028513Y032107D01*
X028453Y032048D02*
X021440Y032048D01*
X021440Y031969D02*
X028413Y031969D01*
X028400Y031891D02*
X021440Y031891D01*
X021440Y031812D02*
X028409Y031812D01*
X028445Y031734D02*
X021440Y031734D01*
X021440Y031655D02*
X028539Y031655D01*
X028588Y031557D02*
X028493Y031517D01*
X028419Y031444D01*
X028380Y031348D01*
X028380Y031245D01*
X028419Y031149D01*
X028493Y031076D01*
X028588Y031037D01*
X028692Y031037D01*
X028787Y031076D01*
X028860Y031149D01*
X028900Y031245D01*
X028900Y031348D01*
X028860Y031444D01*
X028787Y031517D01*
X028692Y031557D01*
X028588Y031557D01*
X028474Y031498D02*
X027026Y031498D01*
X026997Y031527D02*
X026902Y031567D01*
X026798Y031567D01*
X026703Y031527D01*
X026629Y031454D01*
X026590Y031358D01*
X026590Y031255D01*
X026629Y031159D01*
X026703Y031086D01*
X026798Y031047D01*
X026902Y031047D01*
X026997Y031086D01*
X027070Y031159D01*
X027110Y031255D01*
X027110Y031358D01*
X027070Y031454D01*
X026997Y031527D01*
X027084Y031420D02*
X028409Y031420D01*
X028380Y031341D02*
X027110Y031341D01*
X027110Y031263D02*
X028380Y031263D01*
X028405Y031184D02*
X027081Y031184D01*
X027017Y031106D02*
X028463Y031106D01*
X028817Y031106D02*
X031770Y031106D01*
X031770Y031105D02*
X031809Y031009D01*
X031883Y030936D01*
X031978Y030897D01*
X032082Y030897D01*
X032177Y030936D01*
X032250Y031009D01*
X032290Y031105D01*
X032290Y031208D01*
X032250Y031304D01*
X032177Y031377D01*
X032082Y031417D01*
X031978Y031417D01*
X031883Y031377D01*
X031809Y031304D01*
X031770Y031208D01*
X031770Y031105D01*
X031770Y031184D02*
X031070Y031184D01*
X031052Y031177D02*
X031147Y031216D01*
X031220Y031289D01*
X031260Y031385D01*
X031260Y031488D01*
X031220Y031584D01*
X031147Y031657D01*
X031052Y031697D01*
X030948Y031697D01*
X030853Y031657D01*
X030779Y031584D01*
X030740Y031488D01*
X030740Y031385D01*
X030779Y031289D01*
X030853Y031216D01*
X030948Y031177D01*
X031052Y031177D01*
X030930Y031184D02*
X028875Y031184D01*
X028900Y031263D02*
X030806Y031263D01*
X030758Y031341D02*
X028900Y031341D01*
X028870Y031420D02*
X030740Y031420D01*
X030744Y031498D02*
X028806Y031498D01*
X028780Y031655D02*
X030851Y031655D01*
X030776Y031577D02*
X021440Y031577D01*
X021440Y031498D02*
X026674Y031498D01*
X026615Y031420D02*
X021440Y031420D01*
X021440Y031341D02*
X026590Y031341D01*
X026590Y031263D02*
X021440Y031263D01*
X021440Y031184D02*
X026619Y031184D01*
X026683Y031106D02*
X025659Y031106D01*
X025637Y031127D02*
X025542Y031167D01*
X025438Y031167D01*
X025343Y031127D01*
X025269Y031054D01*
X025230Y030958D01*
X025230Y030855D01*
X025269Y030759D01*
X025343Y030686D01*
X025438Y030647D01*
X025542Y030647D01*
X025637Y030686D01*
X025710Y030759D01*
X025750Y030855D01*
X025750Y030958D01*
X025710Y031054D01*
X025637Y031127D01*
X025721Y031027D02*
X029023Y031027D01*
X029033Y031037D02*
X028959Y030964D01*
X028920Y030868D01*
X028920Y030765D01*
X028959Y030669D01*
X029033Y030596D01*
X029128Y030557D01*
X029232Y030557D01*
X029327Y030596D01*
X029400Y030669D01*
X029440Y030765D01*
X029440Y030868D01*
X029400Y030964D01*
X029327Y031037D01*
X029232Y031077D01*
X029128Y031077D01*
X029033Y031037D01*
X028953Y030949D02*
X025750Y030949D01*
X025750Y030870D02*
X028921Y030870D01*
X028920Y030792D02*
X025724Y030792D01*
X025664Y030713D02*
X028941Y030713D01*
X028994Y030635D02*
X021440Y030635D01*
X021440Y030713D02*
X021771Y030713D01*
X021798Y030686D02*
X021893Y030647D01*
X021997Y030647D01*
X022092Y030686D01*
X022165Y030759D01*
X022205Y030855D01*
X022205Y030958D01*
X022165Y031054D01*
X022092Y031127D01*
X021997Y031167D01*
X021893Y031167D01*
X021798Y031127D01*
X021724Y031054D01*
X021685Y030958D01*
X021685Y030855D01*
X021724Y030759D01*
X021798Y030686D01*
X021711Y030792D02*
X021440Y030792D01*
X021440Y030870D02*
X021685Y030870D01*
X021685Y030949D02*
X021440Y030949D01*
X021440Y031027D02*
X021713Y031027D01*
X021776Y031106D02*
X021440Y031106D01*
X021440Y030556D02*
X033750Y030556D01*
X033750Y030478D02*
X021440Y030478D01*
X021440Y030399D02*
X028755Y030399D01*
X028719Y030364D02*
X028680Y030268D01*
X028680Y030165D01*
X028719Y030069D01*
X028793Y029996D01*
X028888Y029957D01*
X028992Y029957D01*
X029087Y029996D01*
X029160Y030069D01*
X029200Y030165D01*
X029200Y030268D01*
X029160Y030364D01*
X029087Y030437D01*
X028992Y030477D01*
X028888Y030477D01*
X028793Y030437D01*
X028719Y030364D01*
X028702Y030321D02*
X021440Y030321D01*
X021440Y030242D02*
X027805Y030242D01*
X027793Y030237D02*
X027737Y030181D01*
X027652Y030217D01*
X027548Y030217D01*
X027453Y030177D01*
X027379Y030104D01*
X027340Y030008D01*
X027340Y029905D01*
X027379Y029809D01*
X027453Y029736D01*
X027548Y029697D01*
X027652Y029697D01*
X027747Y029736D01*
X027803Y029792D01*
X027888Y029757D01*
X027972Y029757D01*
X027939Y029724D01*
X027900Y029628D01*
X027900Y029525D01*
X027939Y029429D01*
X028013Y029356D01*
X028108Y029317D01*
X028212Y029317D01*
X028307Y029356D01*
X028380Y029429D01*
X028420Y029525D01*
X028420Y029628D01*
X028380Y029724D01*
X028307Y029797D01*
X028212Y029837D01*
X028128Y029837D01*
X028160Y029869D01*
X028200Y029965D01*
X028200Y030068D01*
X028160Y030164D01*
X028087Y030237D01*
X027992Y030277D01*
X027888Y030277D01*
X027793Y030237D01*
X028075Y030242D02*
X028680Y030242D01*
X028680Y030164D02*
X028160Y030164D01*
X028193Y030085D02*
X028713Y030085D01*
X028782Y030007D02*
X028200Y030007D01*
X028185Y029928D02*
X033750Y029928D01*
X033750Y029850D02*
X028975Y029850D01*
X028967Y029857D02*
X028872Y029897D01*
X028768Y029897D01*
X028673Y029857D01*
X028599Y029784D01*
X028560Y029688D01*
X028560Y029585D01*
X028599Y029489D01*
X028673Y029416D01*
X028768Y029377D01*
X028872Y029377D01*
X028967Y029416D01*
X029040Y029489D01*
X029080Y029585D01*
X029080Y029688D01*
X029040Y029784D01*
X028967Y029857D01*
X029046Y029771D02*
X033750Y029771D01*
X033750Y029693D02*
X029078Y029693D01*
X029080Y029614D02*
X033750Y029614D01*
X033750Y029536D02*
X029059Y029536D01*
X029008Y029457D02*
X033750Y029457D01*
X033750Y029379D02*
X028876Y029379D01*
X028763Y029379D02*
X028330Y029379D01*
X028392Y029457D02*
X028632Y029457D01*
X028580Y029536D02*
X028420Y029536D01*
X028420Y029614D02*
X028560Y029614D01*
X028562Y029693D02*
X028393Y029693D01*
X028333Y029771D02*
X028594Y029771D01*
X028665Y029850D02*
X028141Y029850D01*
X027926Y029693D02*
X025204Y029693D01*
X025220Y029709D02*
X025260Y029805D01*
X025260Y029908D01*
X025220Y030004D01*
X025147Y030077D01*
X025052Y030117D01*
X024948Y030117D01*
X024853Y030077D01*
X024779Y030004D01*
X024740Y029908D01*
X024740Y029805D01*
X024779Y029709D01*
X024853Y029636D01*
X024948Y029597D01*
X025052Y029597D01*
X025147Y029636D01*
X025220Y029709D01*
X025246Y029771D02*
X027418Y029771D01*
X027363Y029850D02*
X025260Y029850D01*
X025252Y029928D02*
X027340Y029928D01*
X027340Y030007D02*
X025218Y030007D01*
X025128Y030085D02*
X027372Y030085D01*
X027439Y030164D02*
X021440Y030164D01*
X021440Y030085D02*
X024872Y030085D01*
X024782Y030007D02*
X023824Y030007D01*
X023847Y029997D02*
X023752Y030037D01*
X023648Y030037D01*
X023553Y029997D01*
X023479Y029924D01*
X023440Y029828D01*
X023440Y029737D01*
X023348Y029737D01*
X023253Y029697D01*
X023179Y029624D01*
X023140Y029528D01*
X023140Y029425D01*
X023179Y029329D01*
X023253Y029256D01*
X023348Y029217D01*
X023452Y029217D01*
X023547Y029256D01*
X023620Y029329D01*
X023660Y029425D01*
X023660Y029517D01*
X023752Y029517D01*
X023847Y029556D01*
X023920Y029629D01*
X023960Y029725D01*
X023960Y029828D01*
X023920Y029924D01*
X023847Y029997D01*
X023916Y029928D02*
X024748Y029928D01*
X024740Y029850D02*
X023951Y029850D01*
X023960Y029771D02*
X024754Y029771D01*
X024796Y029693D02*
X023946Y029693D01*
X023905Y029614D02*
X024906Y029614D01*
X025094Y029614D02*
X027900Y029614D01*
X027900Y029536D02*
X023797Y029536D01*
X023660Y029457D02*
X027928Y029457D01*
X027990Y029379D02*
X023641Y029379D01*
X023591Y029300D02*
X033750Y029300D01*
X033750Y029222D02*
X023464Y029222D01*
X023336Y029222D02*
X021440Y029222D01*
X021440Y029300D02*
X023209Y029300D01*
X023159Y029379D02*
X021440Y029379D01*
X021440Y029457D02*
X023140Y029457D01*
X023143Y029536D02*
X021887Y029536D01*
X021867Y029516D02*
X021940Y029589D01*
X021980Y029685D01*
X021980Y029788D01*
X021940Y029884D01*
X021867Y029957D01*
X021772Y029997D01*
X021668Y029997D01*
X021573Y029957D01*
X021499Y029884D01*
X021460Y029788D01*
X021460Y029685D01*
X021499Y029589D01*
X021573Y029516D01*
X021668Y029477D01*
X021772Y029477D01*
X021867Y029516D01*
X021951Y029614D02*
X023175Y029614D01*
X023248Y029693D02*
X021980Y029693D01*
X021980Y029771D02*
X023440Y029771D01*
X023449Y029850D02*
X021954Y029850D01*
X021896Y029928D02*
X023484Y029928D01*
X023576Y030007D02*
X021440Y030007D01*
X021440Y029928D02*
X021544Y029928D01*
X021485Y029850D02*
X021440Y029850D01*
X021440Y029771D02*
X021460Y029771D01*
X021460Y029693D02*
X021440Y029693D01*
X021440Y029614D02*
X021489Y029614D01*
X021440Y029536D02*
X021553Y029536D01*
X021440Y029143D02*
X028876Y029143D01*
X028908Y029157D02*
X028813Y029117D01*
X028739Y029044D01*
X028700Y028948D01*
X028700Y028845D01*
X028739Y028749D01*
X028813Y028676D01*
X028908Y028637D01*
X029012Y028637D01*
X029107Y028676D01*
X029180Y028749D01*
X029220Y028845D01*
X029220Y028948D01*
X029180Y029044D01*
X029107Y029117D01*
X029012Y029157D01*
X028908Y029157D01*
X029044Y029143D02*
X033750Y029143D01*
X033750Y029065D02*
X031975Y029065D01*
X032017Y029047D02*
X031922Y029087D01*
X031818Y029087D01*
X031723Y029047D01*
X031649Y028974D01*
X031610Y028878D01*
X031610Y028775D01*
X031649Y028679D01*
X031723Y028606D01*
X031818Y028567D01*
X031922Y028567D01*
X032017Y028606D01*
X032090Y028679D01*
X032130Y028775D01*
X032130Y028878D01*
X032090Y028974D01*
X032017Y029047D01*
X032078Y028986D02*
X033750Y028986D01*
X033750Y028908D02*
X032118Y028908D01*
X032130Y028829D02*
X033750Y028829D01*
X033750Y028751D02*
X032120Y028751D01*
X032083Y028672D02*
X033750Y028672D01*
X033750Y028594D02*
X031987Y028594D01*
X031753Y028594D02*
X023633Y028594D01*
X023620Y028624D02*
X023547Y028697D01*
X023452Y028737D01*
X023348Y028737D01*
X023253Y028697D01*
X023179Y028624D01*
X023140Y028528D01*
X023140Y028425D01*
X023179Y028329D01*
X023207Y028302D01*
X023169Y028264D01*
X023130Y028168D01*
X023130Y028065D01*
X023169Y027969D01*
X023243Y027896D01*
X023338Y027857D01*
X023442Y027857D01*
X023537Y027896D01*
X023610Y027969D01*
X023650Y028065D01*
X023650Y028168D01*
X023610Y028264D01*
X023583Y028292D01*
X023620Y028329D01*
X023660Y028425D01*
X023660Y028528D01*
X023620Y028624D01*
X023572Y028672D02*
X028822Y028672D01*
X028739Y028751D02*
X021440Y028751D01*
X021440Y028829D02*
X028706Y028829D01*
X028700Y028908D02*
X021440Y028908D01*
X021440Y028986D02*
X028716Y028986D01*
X028760Y029065D02*
X021440Y029065D01*
X021440Y028672D02*
X023228Y028672D01*
X023167Y028594D02*
X021440Y028594D01*
X021440Y028515D02*
X023140Y028515D01*
X023140Y028437D02*
X021440Y028437D01*
X021440Y028358D02*
X023167Y028358D01*
X023185Y028280D02*
X021440Y028280D01*
X021440Y028201D02*
X023143Y028201D01*
X023130Y028123D02*
X021440Y028123D01*
X021440Y028044D02*
X023138Y028044D01*
X023173Y027966D02*
X021440Y027966D01*
X021440Y027887D02*
X023264Y027887D01*
X023515Y027887D02*
X024952Y027887D01*
X024940Y027858D02*
X024940Y027755D01*
X024979Y027659D01*
X025053Y027586D01*
X025148Y027547D01*
X025252Y027547D01*
X025347Y027586D01*
X025420Y027659D01*
X025460Y027755D01*
X025460Y027858D01*
X025420Y027954D01*
X025347Y028027D01*
X025252Y028067D01*
X025148Y028067D01*
X025053Y028027D01*
X024979Y027954D01*
X024940Y027858D01*
X024940Y027809D02*
X021440Y027809D01*
X021440Y027730D02*
X024950Y027730D01*
X024987Y027652D02*
X021440Y027652D01*
X021440Y027573D02*
X025084Y027573D01*
X025316Y027573D02*
X025836Y027573D01*
X025799Y027609D02*
X025873Y027536D01*
X025968Y027497D01*
X026072Y027497D01*
X026167Y027536D01*
X026240Y027609D01*
X026280Y027705D01*
X026280Y027808D01*
X026240Y027904D01*
X026167Y027977D01*
X026072Y028017D01*
X025968Y028017D01*
X025873Y027977D01*
X025799Y027904D01*
X025760Y027808D01*
X025760Y027705D01*
X025799Y027609D01*
X025782Y027652D02*
X025413Y027652D01*
X025450Y027730D02*
X025760Y027730D01*
X025760Y027809D02*
X025460Y027809D01*
X025448Y027887D02*
X025792Y027887D01*
X025861Y027966D02*
X025409Y027966D01*
X025306Y028044D02*
X028420Y028044D01*
X028453Y028077D02*
X028379Y028004D01*
X028340Y027908D01*
X028340Y027805D01*
X028379Y027709D01*
X028453Y027636D01*
X028548Y027597D01*
X028652Y027597D01*
X028747Y027636D01*
X028820Y027709D01*
X028860Y027805D01*
X028860Y027908D01*
X028820Y028004D01*
X028747Y028077D01*
X028652Y028117D01*
X028548Y028117D01*
X028453Y028077D01*
X028364Y027966D02*
X028139Y027966D01*
X028127Y027977D02*
X028032Y028017D01*
X027928Y028017D01*
X027833Y027977D01*
X027759Y027904D01*
X027720Y027808D01*
X027720Y027705D01*
X027759Y027609D01*
X027833Y027536D01*
X027928Y027497D01*
X028032Y027497D01*
X028127Y027536D01*
X028200Y027609D01*
X028240Y027705D01*
X028240Y027808D01*
X028200Y027904D01*
X028127Y027977D01*
X028207Y027887D02*
X028340Y027887D01*
X028340Y027809D02*
X028240Y027809D01*
X028240Y027730D02*
X028371Y027730D01*
X028437Y027652D02*
X028218Y027652D01*
X028164Y027573D02*
X033750Y027573D01*
X033750Y027495D02*
X021440Y027495D01*
X021440Y027416D02*
X033750Y027416D01*
X033750Y027338D02*
X021440Y027338D01*
X021440Y027259D02*
X033750Y027259D01*
X033750Y027181D02*
X021440Y027181D01*
X021440Y027102D02*
X028938Y027102D01*
X028973Y027137D02*
X028899Y027064D01*
X028860Y026968D01*
X028860Y026865D01*
X028899Y026769D01*
X028973Y026696D01*
X029068Y026657D01*
X029172Y026657D01*
X029267Y026696D01*
X029340Y026769D01*
X029380Y026865D01*
X029380Y026968D01*
X029340Y027064D01*
X029267Y027137D01*
X029172Y027177D01*
X029068Y027177D01*
X028973Y027137D01*
X028883Y027024D02*
X021440Y027024D01*
X021440Y026945D02*
X028860Y026945D01*
X028860Y026867D02*
X021440Y026867D01*
X021440Y026788D02*
X028892Y026788D01*
X028959Y026710D02*
X021440Y026710D01*
X021440Y026631D02*
X033750Y026631D01*
X033750Y026553D02*
X021440Y026553D01*
X021440Y026474D02*
X033750Y026474D01*
X033750Y026396D02*
X021440Y026396D01*
X021440Y026317D02*
X033750Y026317D01*
X033750Y026239D02*
X021440Y026239D01*
X021440Y026160D02*
X033750Y026160D01*
X033750Y026082D02*
X028823Y026082D01*
X028797Y026107D02*
X028702Y026147D01*
X028598Y026147D01*
X028503Y026107D01*
X028429Y026034D01*
X028390Y025938D01*
X028390Y025835D01*
X028429Y025739D01*
X028503Y025666D01*
X028598Y025627D01*
X028702Y025627D01*
X028797Y025666D01*
X028870Y025739D01*
X028910Y025835D01*
X028910Y025938D01*
X028870Y026034D01*
X028797Y026107D01*
X028883Y026003D02*
X033750Y026003D01*
X033750Y025925D02*
X028910Y025925D01*
X028910Y025846D02*
X033750Y025846D01*
X033750Y025768D02*
X028882Y025768D01*
X028820Y025689D02*
X033750Y025689D01*
X033750Y025611D02*
X023280Y025611D01*
X023317Y025626D02*
X023390Y025699D01*
X023430Y025795D01*
X023430Y025898D01*
X023390Y025994D01*
X023317Y026067D01*
X023222Y026107D01*
X023118Y026107D01*
X023023Y026067D01*
X022949Y025994D01*
X022910Y025898D01*
X022910Y025795D01*
X022949Y025699D01*
X023023Y025626D01*
X023118Y025587D01*
X023222Y025587D01*
X023317Y025626D01*
X023380Y025689D02*
X028480Y025689D01*
X028418Y025768D02*
X023419Y025768D01*
X023430Y025846D02*
X028390Y025846D01*
X028390Y025925D02*
X023419Y025925D01*
X023381Y026003D02*
X028417Y026003D01*
X028477Y026082D02*
X023282Y026082D01*
X023058Y026082D02*
X021440Y026082D01*
X021440Y026003D02*
X022959Y026003D01*
X022921Y025925D02*
X021440Y025925D01*
X021440Y025846D02*
X022910Y025846D01*
X022921Y025768D02*
X021440Y025768D01*
X021440Y025689D02*
X022960Y025689D01*
X023060Y025611D02*
X021440Y025611D01*
X021440Y025532D02*
X033750Y025532D01*
X033750Y025454D02*
X029153Y025454D01*
X029122Y025467D02*
X029018Y025467D01*
X028923Y025427D01*
X028849Y025354D01*
X028810Y025258D01*
X028810Y025155D01*
X028849Y025059D01*
X028923Y024986D01*
X029018Y024947D01*
X029122Y024947D01*
X029217Y024986D01*
X029290Y025059D01*
X029330Y025155D01*
X029330Y025258D01*
X029290Y025354D01*
X029217Y025427D01*
X029122Y025467D01*
X028987Y025454D02*
X023673Y025454D01*
X023642Y025467D02*
X023538Y025467D01*
X023443Y025427D01*
X023369Y025354D01*
X023330Y025258D01*
X023330Y025155D01*
X023369Y025059D01*
X023443Y024986D01*
X023538Y024947D01*
X023642Y024947D01*
X023737Y024986D01*
X023810Y025059D01*
X023850Y025155D01*
X023850Y025258D01*
X023810Y025354D01*
X023737Y025427D01*
X023642Y025467D01*
X023507Y025454D02*
X021440Y025454D01*
X021440Y025375D02*
X023391Y025375D01*
X023346Y025297D02*
X021440Y025297D01*
X021440Y025218D02*
X023330Y025218D01*
X023336Y025140D02*
X021440Y025140D01*
X021440Y025061D02*
X023369Y025061D01*
X023451Y024983D02*
X021440Y024983D01*
X021440Y024904D02*
X033750Y024904D01*
X033750Y024826D02*
X021440Y024826D01*
X021440Y024747D02*
X026925Y024747D01*
X026948Y024757D02*
X026853Y024717D01*
X026779Y024644D01*
X026740Y024548D01*
X026740Y024445D01*
X026779Y024349D01*
X026853Y024276D01*
X021440Y024276D01*
X021440Y024198D02*
X022217Y024198D01*
X022287Y024227D02*
X021985Y024102D01*
X021755Y023871D01*
X021630Y023570D01*
X021630Y023244D01*
X021755Y022942D01*
X021440Y022942D01*
X021440Y023020D02*
X021722Y023020D01*
X021755Y022942D02*
X021985Y022712D01*
X022287Y022587D01*
X022613Y022587D01*
X022914Y022712D01*
X023145Y022942D01*
X023270Y023244D01*
X023270Y023570D01*
X023145Y023871D01*
X022914Y024102D01*
X022613Y024227D01*
X022287Y024227D01*
X022027Y024119D02*
X021440Y024119D01*
X021440Y024041D02*
X021924Y024041D01*
X021846Y023962D02*
X021440Y023962D01*
X021440Y023884D02*
X021767Y023884D01*
X021727Y023805D02*
X021440Y023805D01*
X021440Y023727D02*
X021695Y023727D01*
X021662Y023648D02*
X021440Y023648D01*
X021440Y023570D02*
X021630Y023570D01*
X021630Y023491D02*
X021440Y023491D01*
X021440Y023413D02*
X021630Y023413D01*
X021630Y023334D02*
X021440Y023334D01*
X021440Y023256D02*
X021630Y023256D01*
X021657Y023177D02*
X021440Y023177D01*
X021440Y023099D02*
X021690Y023099D01*
X021834Y022863D02*
X021440Y022863D01*
X021440Y022785D02*
X021912Y022785D01*
X021998Y022706D02*
X021440Y022706D01*
X021440Y022628D02*
X022188Y022628D01*
X022712Y022628D02*
X031902Y022628D01*
X031890Y022549D02*
X021440Y022549D01*
X021440Y022471D02*
X031900Y022471D01*
X031942Y022706D02*
X022901Y022706D01*
X022987Y022785D02*
X032045Y022785D01*
X032255Y022785D02*
X033547Y022785D01*
X033540Y022706D02*
X032358Y022706D01*
X032398Y022628D02*
X033555Y022628D01*
X033600Y022549D02*
X032410Y022549D01*
X032400Y022471D02*
X033714Y022471D01*
X033579Y022863D02*
X023066Y022863D01*
X023144Y022942D02*
X033664Y022942D01*
X033750Y023020D02*
X023177Y023020D01*
X023210Y023099D02*
X033750Y023099D01*
X033750Y023177D02*
X023242Y023177D01*
X023270Y023256D02*
X033750Y023256D01*
X033750Y023334D02*
X023270Y023334D01*
X023270Y023413D02*
X033750Y023413D01*
X033750Y023491D02*
X023270Y023491D01*
X023270Y023570D02*
X025107Y023570D01*
X025135Y023541D02*
X025253Y023493D01*
X025380Y023493D01*
X025498Y023541D01*
X025588Y023631D01*
X025636Y023749D01*
X025636Y023876D01*
X025588Y023994D01*
X025498Y024084D01*
X025380Y024133D01*
X025253Y024133D01*
X025135Y024084D01*
X025045Y023994D01*
X024996Y023876D01*
X024996Y023749D01*
X025045Y023631D01*
X025135Y023541D01*
X025038Y023648D02*
X023237Y023648D01*
X023205Y023727D02*
X025006Y023727D01*
X024996Y023805D02*
X023172Y023805D01*
X023132Y023884D02*
X024999Y023884D01*
X025032Y023962D02*
X023054Y023962D01*
X022975Y024041D02*
X025092Y024041D01*
X025220Y024119D02*
X022872Y024119D01*
X022683Y024198D02*
X033750Y024198D01*
X033750Y024276D02*
X027147Y024276D01*
X027220Y024349D01*
X027260Y024445D01*
X027260Y024548D01*
X027220Y024644D01*
X027147Y024717D01*
X027052Y024757D01*
X026948Y024757D01*
X027074Y024747D02*
X033750Y024747D01*
X033750Y024669D02*
X027196Y024669D01*
X027243Y024590D02*
X033750Y024590D01*
X033750Y024512D02*
X027260Y024512D01*
X027255Y024433D02*
X033750Y024433D01*
X033750Y024355D02*
X027222Y024355D01*
X027147Y024276D02*
X027052Y024237D01*
X026948Y024237D01*
X026853Y024276D01*
X026777Y024355D02*
X021440Y024355D01*
X021440Y024433D02*
X026745Y024433D01*
X026740Y024512D02*
X021440Y024512D01*
X021440Y024590D02*
X026757Y024590D01*
X026804Y024669D02*
X021440Y024669D01*
X023728Y024983D02*
X028931Y024983D01*
X028849Y025061D02*
X023811Y025061D01*
X023844Y025140D02*
X028816Y025140D01*
X028810Y025218D02*
X023850Y025218D01*
X023834Y025297D02*
X028826Y025297D01*
X028871Y025375D02*
X023789Y025375D01*
X025413Y024119D02*
X033135Y024119D01*
X033099Y024084D02*
X033060Y023988D01*
X033060Y023885D01*
X033099Y023789D01*
X033173Y023716D01*
X033268Y023677D01*
X033372Y023677D01*
X033467Y023716D01*
X033540Y023789D01*
X033580Y023885D01*
X033580Y023988D01*
X033540Y024084D01*
X033467Y024157D01*
X033372Y024197D01*
X033268Y024197D01*
X033173Y024157D01*
X033099Y024084D01*
X033082Y024041D02*
X025541Y024041D01*
X025601Y023962D02*
X033060Y023962D01*
X033060Y023884D02*
X025633Y023884D01*
X025636Y023805D02*
X033093Y023805D01*
X033162Y023727D02*
X025627Y023727D01*
X025595Y023648D02*
X033750Y023648D01*
X033750Y023570D02*
X025526Y023570D01*
X029208Y024983D02*
X033750Y024983D01*
X033750Y025061D02*
X029291Y025061D01*
X029324Y025140D02*
X033750Y025140D01*
X033750Y025218D02*
X029330Y025218D01*
X029314Y025297D02*
X033750Y025297D01*
X033750Y025375D02*
X029269Y025375D01*
X029281Y026710D02*
X033750Y026710D01*
X033750Y026788D02*
X029348Y026788D01*
X029380Y026867D02*
X033750Y026867D01*
X033750Y026945D02*
X029380Y026945D01*
X029357Y027024D02*
X033750Y027024D01*
X033750Y027102D02*
X029302Y027102D01*
X028763Y027652D02*
X033750Y027652D01*
X033750Y027730D02*
X028829Y027730D01*
X028860Y027809D02*
X033750Y027809D01*
X033750Y027887D02*
X028860Y027887D01*
X028836Y027966D02*
X033750Y027966D01*
X033750Y028044D02*
X028780Y028044D01*
X029097Y028672D02*
X031657Y028672D01*
X031620Y028751D02*
X029181Y028751D01*
X029213Y028829D02*
X031610Y028829D01*
X031622Y028908D02*
X029220Y028908D01*
X029204Y028986D02*
X031662Y028986D01*
X031765Y029065D02*
X029160Y029065D01*
X029098Y030007D02*
X033750Y030007D01*
X033750Y030085D02*
X029167Y030085D01*
X029199Y030164D02*
X033750Y030164D01*
X033750Y030242D02*
X029200Y030242D01*
X029178Y030321D02*
X033750Y030321D01*
X033750Y030399D02*
X029125Y030399D01*
X029366Y030635D02*
X033750Y030635D01*
X033750Y030713D02*
X029418Y030713D01*
X029440Y030792D02*
X033750Y030792D01*
X033750Y030870D02*
X029439Y030870D01*
X029407Y030949D02*
X031870Y030949D01*
X031802Y031027D02*
X029337Y031027D01*
X028875Y031734D02*
X033750Y031734D01*
X033750Y031812D02*
X028910Y031812D01*
X028920Y031891D02*
X033750Y031891D01*
X033750Y031969D02*
X028907Y031969D01*
X028867Y032048D02*
X033750Y032048D01*
X033750Y032126D02*
X028761Y032126D01*
X028920Y032440D02*
X032569Y032440D01*
X032501Y032519D02*
X028920Y032519D01*
X028891Y032597D02*
X032470Y032597D01*
X032470Y032676D02*
X028829Y032676D01*
X028551Y032833D02*
X023380Y032833D01*
X023380Y032911D02*
X028469Y032911D01*
X028436Y032990D02*
X023380Y032990D01*
X023380Y033068D02*
X028430Y033068D01*
X028446Y033147D02*
X023380Y033147D01*
X023380Y033225D02*
X028491Y033225D01*
X028508Y033461D02*
X023380Y033461D01*
X023380Y033539D02*
X028447Y033539D01*
X028420Y033618D02*
X023380Y033618D01*
X023380Y033696D02*
X028420Y033696D01*
X028447Y033775D02*
X023380Y033775D01*
X023380Y033853D02*
X028509Y033853D01*
X029368Y034717D02*
X029472Y034717D01*
X029161Y035031D02*
X029094Y035031D01*
X029560Y035345D02*
X023380Y035345D01*
X023380Y035423D02*
X029574Y035423D01*
X029617Y035502D02*
X023380Y035502D01*
X023380Y035580D02*
X029728Y035580D01*
X029911Y035580D02*
X030500Y035580D01*
X030419Y035502D02*
X030022Y035502D01*
X030065Y035423D02*
X030386Y035423D01*
X030380Y035345D02*
X030080Y035345D01*
X030177Y035266D02*
X030396Y035266D01*
X030441Y035188D02*
X030296Y035188D01*
X029090Y036264D02*
X029130Y036360D01*
X029130Y036463D01*
X029090Y036559D01*
X029017Y036632D01*
X028922Y036672D01*
X028818Y036672D01*
X028723Y036632D01*
X028649Y036559D01*
X028610Y036463D01*
X028610Y036360D01*
X028649Y036264D01*
X028723Y036191D01*
X028818Y036152D01*
X028922Y036152D01*
X029017Y036191D01*
X029090Y036264D01*
X029100Y036287D02*
X032964Y036287D01*
X032964Y036302D02*
X032964Y036199D01*
X033003Y036103D01*
X033077Y036030D01*
X033172Y035991D01*
X033276Y035991D01*
X033371Y036030D01*
X033444Y036103D01*
X033484Y036199D01*
X033484Y036302D01*
X033444Y036398D01*
X033371Y036471D01*
X033276Y036511D01*
X033172Y036511D01*
X033077Y036471D01*
X033003Y036398D01*
X032964Y036302D01*
X032990Y036365D02*
X029130Y036365D01*
X029130Y036444D02*
X033049Y036444D01*
X032964Y036208D02*
X029034Y036208D01*
X029105Y036522D02*
X033750Y036522D01*
X033750Y036444D02*
X033398Y036444D01*
X033458Y036365D02*
X033750Y036365D01*
X033750Y036287D02*
X033484Y036287D01*
X033484Y036208D02*
X033750Y036208D01*
X033750Y036130D02*
X033455Y036130D01*
X033392Y036051D02*
X033750Y036051D01*
X033750Y035973D02*
X027060Y035973D01*
X027060Y035955D02*
X027020Y035859D01*
X026947Y035786D01*
X026852Y035747D01*
X026748Y035747D01*
X026653Y035786D01*
X026579Y035859D01*
X026540Y035955D01*
X026540Y036058D01*
X026579Y036154D01*
X026653Y036227D01*
X026748Y036267D01*
X026852Y036267D01*
X026947Y036227D01*
X027020Y036154D01*
X027060Y036058D01*
X027060Y035955D01*
X027035Y035894D02*
X033750Y035894D01*
X033750Y035816D02*
X026977Y035816D01*
X027060Y036051D02*
X033056Y036051D01*
X032993Y036130D02*
X027030Y036130D01*
X026966Y036208D02*
X027986Y036208D01*
X028003Y036191D02*
X028098Y036152D01*
X028202Y036152D01*
X028297Y036191D01*
X028370Y036264D01*
X028410Y036360D01*
X028410Y036463D01*
X028370Y036559D01*
X028297Y036632D01*
X028202Y036672D01*
X028098Y036672D01*
X028003Y036632D01*
X027929Y036559D01*
X027890Y036463D01*
X027890Y036360D01*
X027929Y036264D01*
X028003Y036191D01*
X027920Y036287D02*
X023380Y036287D01*
X023380Y036365D02*
X027890Y036365D01*
X027890Y036444D02*
X023380Y036444D01*
X023380Y036522D02*
X027914Y036522D01*
X027971Y036601D02*
X023380Y036601D01*
X023380Y036679D02*
X033750Y036679D01*
X033750Y036601D02*
X029048Y036601D01*
X028691Y036601D02*
X028328Y036601D01*
X028385Y036522D02*
X028634Y036522D01*
X028610Y036444D02*
X028410Y036444D01*
X028410Y036365D02*
X028610Y036365D01*
X028640Y036287D02*
X028380Y036287D01*
X028314Y036208D02*
X028706Y036208D01*
X028780Y037431D02*
X028884Y037431D01*
X028979Y037470D01*
X029052Y037543D01*
X033750Y037543D01*
X033750Y037621D02*
X029084Y037621D01*
X029092Y037639D02*
X029052Y037543D01*
X029092Y037639D02*
X029092Y037742D01*
X029052Y037838D01*
X028979Y037911D01*
X028884Y037951D01*
X028780Y037951D01*
X028685Y037911D01*
X028611Y037838D01*
X028572Y037742D01*
X028572Y037639D01*
X028611Y037543D01*
X028685Y037470D01*
X028780Y037431D01*
X028699Y037464D02*
X027520Y037464D01*
X027520Y037508D02*
X027480Y037604D01*
X027407Y037677D01*
X027312Y037717D01*
X027208Y037717D01*
X027113Y037677D01*
X027039Y037604D01*
X027000Y037508D01*
X027000Y037405D01*
X027039Y037309D01*
X027113Y037236D01*
X027208Y037197D01*
X027312Y037197D01*
X027407Y037236D01*
X027480Y037309D01*
X027520Y037405D01*
X027520Y037508D01*
X027506Y037543D02*
X028612Y037543D01*
X028579Y037621D02*
X027463Y037621D01*
X027352Y037700D02*
X028572Y037700D01*
X028587Y037778D02*
X025896Y037778D01*
X025852Y037797D02*
X025748Y037797D01*
X025653Y037757D01*
X025579Y037684D01*
X025540Y037588D01*
X025540Y037485D01*
X025579Y037389D01*
X025653Y037316D01*
X025748Y037277D01*
X025852Y037277D01*
X025934Y037311D01*
X025959Y037249D01*
X026033Y037176D01*
X026128Y037137D01*
X026232Y037137D01*
X026327Y037176D01*
X026400Y037249D01*
X026438Y037341D01*
X026459Y037289D01*
X026533Y037216D01*
X026628Y037177D01*
X026732Y037177D01*
X026827Y037216D01*
X026900Y037289D01*
X026940Y037385D01*
X026940Y037488D01*
X026900Y037584D01*
X026827Y037657D01*
X026732Y037697D01*
X026628Y037697D01*
X026533Y037657D01*
X026459Y037584D01*
X026422Y037493D01*
X026400Y037544D01*
X026327Y037617D01*
X026232Y037657D01*
X026128Y037657D01*
X026046Y037623D01*
X026020Y037684D01*
X025947Y037757D01*
X025852Y037797D01*
X025704Y037778D02*
X024686Y037778D01*
X024667Y037797D02*
X024740Y037724D01*
X024769Y037654D01*
X024773Y037657D01*
X024868Y037697D01*
X024972Y037697D01*
X025067Y037657D01*
X025140Y037584D01*
X025180Y037488D01*
X025180Y037385D01*
X025140Y037289D01*
X025067Y037216D01*
X024972Y037177D01*
X024868Y037177D01*
X024773Y037216D01*
X024699Y037289D01*
X024670Y037360D01*
X024667Y037356D01*
X024572Y037317D01*
X024468Y037317D01*
X024373Y037356D01*
X024299Y037429D01*
X024260Y037525D01*
X024260Y037628D01*
X024299Y037724D01*
X024373Y037797D01*
X024468Y037837D01*
X024572Y037837D01*
X024667Y037797D01*
X024750Y037700D02*
X025595Y037700D01*
X025553Y037621D02*
X025103Y037621D01*
X025157Y037543D02*
X025540Y037543D01*
X025548Y037464D02*
X025180Y037464D01*
X025180Y037386D02*
X025583Y037386D01*
X025674Y037307D02*
X025148Y037307D01*
X025080Y037229D02*
X025980Y037229D01*
X025935Y037307D02*
X025925Y037307D01*
X026095Y037150D02*
X023380Y037150D01*
X023380Y037072D02*
X033750Y037072D01*
X033750Y037150D02*
X026264Y037150D01*
X026380Y037229D02*
X026520Y037229D01*
X026452Y037307D02*
X026424Y037307D01*
X026442Y037543D02*
X026401Y037543D01*
X026317Y037621D02*
X026497Y037621D01*
X026863Y037621D02*
X027057Y037621D01*
X027014Y037543D02*
X026917Y037543D01*
X026940Y037464D02*
X027000Y037464D01*
X027008Y037386D02*
X026940Y037386D01*
X026908Y037307D02*
X027042Y037307D01*
X027131Y037229D02*
X026840Y037229D01*
X027389Y037229D02*
X033750Y037229D01*
X033750Y037307D02*
X027478Y037307D01*
X027512Y037386D02*
X033750Y037386D01*
X033750Y037464D02*
X028965Y037464D01*
X029092Y037700D02*
X033750Y037700D01*
X033750Y037778D02*
X029077Y037778D01*
X029033Y037857D02*
X031538Y037857D01*
X031556Y037839D02*
X031651Y037800D01*
X031755Y037800D01*
X031850Y037839D01*
X031923Y037912D01*
X031963Y038008D01*
X031963Y038111D01*
X031923Y038207D01*
X031850Y038280D01*
X031755Y038320D01*
X031651Y038320D01*
X031556Y038280D01*
X031482Y038207D01*
X031443Y038111D01*
X031443Y038008D01*
X031482Y037912D01*
X031556Y037839D01*
X031473Y037935D02*
X028921Y037935D01*
X028743Y037935D02*
X023380Y037935D01*
X023380Y037857D02*
X028630Y037857D01*
X027167Y037700D02*
X026004Y037700D01*
X024760Y037229D02*
X023380Y037229D01*
X023380Y037307D02*
X024692Y037307D01*
X024343Y037386D02*
X023380Y037386D01*
X023380Y037464D02*
X024285Y037464D01*
X024260Y037543D02*
X023380Y037543D01*
X023380Y037621D02*
X024260Y037621D01*
X024289Y037700D02*
X023380Y037700D01*
X023380Y037778D02*
X024354Y037778D01*
X023380Y038014D02*
X031443Y038014D01*
X031443Y038092D02*
X023380Y038092D01*
X023380Y038171D02*
X031467Y038171D01*
X031525Y038249D02*
X023380Y038249D01*
X023380Y038328D02*
X033750Y038328D01*
X033750Y038406D02*
X023380Y038406D01*
X023380Y038485D02*
X033750Y038485D01*
X033750Y038563D02*
X023380Y038563D01*
X023380Y038642D02*
X033750Y038642D01*
X033750Y038720D02*
X023380Y038720D01*
X023380Y038799D02*
X033750Y038799D01*
X033750Y038877D02*
X023380Y038877D01*
X023380Y038956D02*
X033750Y038956D01*
X033750Y039034D02*
X023380Y039034D01*
X023380Y039113D02*
X033750Y039113D01*
X033750Y039191D02*
X023380Y039191D01*
X023380Y039270D02*
X033750Y039270D01*
X033750Y039348D02*
X031354Y039348D01*
X031337Y039331D02*
X031410Y039404D01*
X031450Y039500D01*
X031450Y039603D01*
X031410Y039699D01*
X031337Y039772D01*
X031242Y039812D01*
X031138Y039812D01*
X031043Y039772D01*
X030969Y039699D01*
X030930Y039603D01*
X030930Y039500D01*
X030969Y039404D01*
X031043Y039331D01*
X031138Y039292D01*
X031242Y039292D01*
X031337Y039331D01*
X031420Y039427D02*
X033750Y039427D01*
X033750Y039505D02*
X031450Y039505D01*
X031450Y039584D02*
X033750Y039584D01*
X033750Y039662D02*
X031425Y039662D01*
X031368Y039741D02*
X033750Y039741D01*
X033750Y039819D02*
X023380Y039819D01*
X023380Y039741D02*
X031011Y039741D01*
X030954Y039662D02*
X023380Y039662D01*
X023380Y039584D02*
X030930Y039584D01*
X030930Y039505D02*
X023380Y039505D01*
X023380Y039427D02*
X030960Y039427D01*
X031026Y039348D02*
X023380Y039348D01*
X023380Y039898D02*
X033750Y039898D01*
X033750Y039976D02*
X023380Y039976D01*
X023380Y040055D02*
X033750Y040055D01*
X033750Y040133D02*
X023380Y040133D01*
X023380Y040212D02*
X024063Y040212D01*
X023979Y040290D02*
X023380Y040290D01*
X023380Y040369D02*
X023947Y040369D01*
X023940Y040447D02*
X023380Y040447D01*
X023380Y040526D02*
X023955Y040526D01*
X024000Y040604D02*
X023380Y040604D01*
X023380Y040683D02*
X024114Y040683D01*
X024242Y040761D02*
X023380Y040761D01*
X023380Y040840D02*
X024320Y040840D01*
X024572Y040526D02*
X031482Y040526D01*
X031455Y040447D02*
X024493Y040447D01*
X024453Y040369D02*
X031455Y040369D01*
X031483Y040290D02*
X024421Y040290D01*
X024336Y040212D02*
X031545Y040212D01*
X031885Y040212D02*
X033750Y040212D01*
X033750Y040290D02*
X031947Y040290D01*
X031975Y040369D02*
X033750Y040369D01*
X033750Y040447D02*
X031975Y040447D01*
X031948Y040526D02*
X033750Y040526D01*
X033880Y040526D02*
X038476Y040526D01*
X038421Y040577D02*
X041768Y037469D01*
X041768Y037449D01*
X041807Y037353D01*
X041881Y037280D01*
X041976Y037241D01*
X042080Y037241D01*
X042175Y037280D01*
X042248Y037353D01*
X042288Y037449D01*
X042288Y037552D01*
X042248Y037648D01*
X042175Y037721D01*
X042080Y037761D01*
X042042Y037761D01*
X038643Y040917D01*
X046460Y040917D01*
X046460Y024748D01*
X046442Y024792D01*
X046325Y024909D01*
X046172Y024972D01*
X046007Y024972D01*
X045855Y024909D01*
X045738Y024792D01*
X045690Y024675D01*
X045642Y024792D01*
X045525Y024909D01*
X045372Y024972D01*
X045207Y024972D01*
X045187Y024963D01*
X045196Y024972D01*
X045664Y025440D01*
X045664Y026218D01*
X045547Y026335D01*
X044740Y027142D01*
X044740Y027809D01*
X044760Y027829D01*
X044800Y027925D01*
X044800Y028028D01*
X044760Y028124D01*
X044687Y028197D01*
X044592Y028237D01*
X044488Y028237D01*
X044393Y028197D01*
X044319Y028124D01*
X044280Y028028D01*
X044280Y027925D01*
X044319Y027829D01*
X044340Y027809D01*
X044340Y026976D01*
X044619Y026697D01*
X044568Y026697D01*
X044473Y026657D01*
X044446Y026630D01*
X044440Y026644D01*
X044367Y026717D01*
X044272Y026757D01*
X044168Y026757D01*
X044073Y026717D01*
X043999Y026644D01*
X043960Y026548D01*
X043960Y026445D01*
X043999Y026349D01*
X044073Y026276D01*
X044168Y026237D01*
X044272Y026237D01*
X044367Y026276D01*
X044394Y026303D01*
X044399Y026289D01*
X044473Y026216D01*
X044568Y026177D01*
X044592Y026177D01*
X044559Y026144D01*
X044520Y026048D01*
X044520Y025945D01*
X044559Y025849D01*
X044633Y025776D01*
X044728Y025737D01*
X044832Y025737D01*
X044883Y025758D01*
X044919Y025669D01*
X044993Y025596D01*
X045088Y025557D01*
X045192Y025557D01*
X045232Y025573D01*
X044913Y025255D01*
X044858Y025255D01*
X044837Y025275D01*
X044742Y025315D01*
X044638Y025315D01*
X044543Y025275D01*
X044469Y025202D01*
X044430Y025106D01*
X044430Y025003D01*
X044469Y024907D01*
X044543Y024834D01*
X044638Y024795D01*
X044742Y024795D01*
X044837Y024834D01*
X044858Y024855D01*
X045001Y024855D01*
X044938Y024792D01*
X044875Y024639D01*
X044875Y024474D01*
X044938Y024322D01*
X045055Y024205D01*
X045144Y024168D01*
X044985Y024102D01*
X044755Y023871D01*
X044630Y023570D01*
X044630Y023244D01*
X044755Y022942D01*
X042860Y022942D01*
X042938Y023020D02*
X044722Y023020D01*
X044755Y022942D02*
X044985Y022712D01*
X045287Y022587D01*
X045613Y022587D01*
X045914Y022712D01*
X046145Y022942D01*
X046270Y023244D01*
X046270Y023570D01*
X046145Y023871D01*
X045914Y024102D01*
X045613Y024227D01*
X045547Y024227D01*
X045642Y024322D01*
X045690Y024438D01*
X045738Y024322D01*
X045855Y024205D01*
X046007Y024142D01*
X046172Y024142D01*
X046325Y024205D01*
X046442Y024322D01*
X046460Y024366D01*
X046460Y022397D01*
X042315Y022397D01*
X042334Y022416D01*
X043921Y024003D01*
X043950Y024003D01*
X044045Y024042D01*
X044118Y024115D01*
X044158Y024211D01*
X044158Y024314D01*
X044118Y024410D01*
X044045Y024483D01*
X043950Y024523D01*
X043846Y024523D01*
X043751Y024483D01*
X043677Y024410D01*
X043638Y024314D01*
X043638Y024286D01*
X042733Y023381D01*
X042714Y023426D01*
X042641Y023499D01*
X042546Y023539D01*
X042442Y023539D01*
X042347Y023499D01*
X042273Y023426D01*
X042234Y023330D01*
X042234Y023227D01*
X042273Y023131D01*
X042347Y023058D01*
X042392Y023040D01*
X042051Y022699D01*
X042051Y022699D01*
X034872Y022699D01*
X034900Y022765D01*
X034900Y022868D01*
X034860Y022964D01*
X034787Y023037D01*
X034692Y023077D01*
X034588Y023077D01*
X034493Y023037D01*
X034419Y022964D01*
X034380Y022868D01*
X034380Y022765D01*
X034407Y022699D01*
X034101Y022699D01*
X034060Y022740D01*
X034060Y022768D01*
X034020Y022864D01*
X033947Y022937D01*
X033880Y022965D01*
X033880Y032629D01*
X033893Y032616D01*
X033988Y032577D01*
X034040Y032577D01*
X034040Y032525D01*
X034079Y032429D01*
X034153Y032356D01*
X034248Y032317D01*
X034352Y032317D01*
X034447Y032356D01*
X034520Y032429D01*
X034560Y032525D01*
X034560Y032628D01*
X034520Y032724D01*
X034447Y032797D01*
X034352Y032837D01*
X034300Y032837D01*
X034300Y032888D01*
X034260Y032984D01*
X034187Y033057D01*
X034092Y033097D01*
X033988Y033097D01*
X033893Y033057D01*
X033880Y033044D01*
X033880Y033317D01*
X033899Y033269D01*
X033973Y033196D01*
X034068Y033157D01*
X034172Y033157D01*
X034267Y033196D01*
X034340Y033269D01*
X034380Y033365D01*
X034380Y033468D01*
X034340Y033564D01*
X034267Y033637D01*
X034172Y033677D01*
X034068Y033677D01*
X033973Y033637D01*
X033899Y033564D01*
X033880Y033517D01*
X033880Y040577D01*
X038421Y040577D01*
X038561Y040447D02*
X033880Y040447D01*
X033880Y040369D02*
X038645Y040369D01*
X038730Y040290D02*
X033880Y040290D01*
X033880Y040212D02*
X038814Y040212D01*
X038899Y040133D02*
X033880Y040133D01*
X033880Y040055D02*
X038983Y040055D01*
X039068Y039976D02*
X033880Y039976D01*
X033880Y039898D02*
X039152Y039898D01*
X039237Y039819D02*
X033880Y039819D01*
X033880Y039741D02*
X039322Y039741D01*
X039406Y039662D02*
X033880Y039662D01*
X033880Y039584D02*
X039491Y039584D01*
X039575Y039505D02*
X033880Y039505D01*
X033880Y039427D02*
X039660Y039427D01*
X039744Y039348D02*
X033880Y039348D01*
X033880Y039270D02*
X039829Y039270D01*
X039913Y039191D02*
X033880Y039191D01*
X033880Y039113D02*
X039998Y039113D01*
X040082Y039034D02*
X033880Y039034D01*
X033880Y038956D02*
X040167Y038956D01*
X040251Y038877D02*
X033880Y038877D01*
X033880Y038799D02*
X040336Y038799D01*
X040421Y038720D02*
X033880Y038720D01*
X033880Y038642D02*
X040505Y038642D01*
X040590Y038563D02*
X033880Y038563D01*
X033880Y038485D02*
X040674Y038485D01*
X040759Y038406D02*
X033880Y038406D01*
X033880Y038328D02*
X040843Y038328D01*
X040928Y038249D02*
X033880Y038249D01*
X033880Y038171D02*
X041012Y038171D01*
X041097Y038092D02*
X033880Y038092D01*
X033880Y038014D02*
X041181Y038014D01*
X041266Y037935D02*
X033880Y037935D01*
X033880Y037857D02*
X041350Y037857D01*
X041435Y037778D02*
X033880Y037778D01*
X033880Y037700D02*
X041520Y037700D01*
X041604Y037621D02*
X040825Y037621D01*
X040860Y037586D02*
X040787Y037659D01*
X040692Y037699D01*
X040588Y037699D01*
X040493Y037659D01*
X040419Y037586D01*
X040380Y037490D01*
X040380Y037387D01*
X040419Y037291D01*
X040493Y037218D01*
X040588Y037179D01*
X040692Y037179D01*
X040787Y037218D01*
X040860Y037291D01*
X040900Y037387D01*
X040900Y037490D01*
X040860Y037586D01*
X040878Y037543D02*
X041689Y037543D01*
X041768Y037464D02*
X040900Y037464D01*
X040899Y037386D02*
X041794Y037386D01*
X041854Y037307D02*
X040867Y037307D01*
X040798Y037229D02*
X046460Y037229D01*
X046460Y037307D02*
X042202Y037307D01*
X042262Y037386D02*
X046460Y037386D01*
X046460Y037464D02*
X042288Y037464D01*
X042288Y037543D02*
X046460Y037543D01*
X046460Y037621D02*
X042259Y037621D01*
X042196Y037700D02*
X046460Y037700D01*
X046460Y037778D02*
X042023Y037778D01*
X041938Y037857D02*
X046460Y037857D01*
X046460Y037935D02*
X041854Y037935D01*
X041769Y038014D02*
X046460Y038014D01*
X046460Y038092D02*
X041685Y038092D01*
X041600Y038171D02*
X046460Y038171D01*
X046460Y038249D02*
X041516Y038249D01*
X041431Y038328D02*
X046460Y038328D01*
X046460Y038406D02*
X041347Y038406D01*
X041262Y038485D02*
X046460Y038485D01*
X046460Y038563D02*
X041177Y038563D01*
X041093Y038642D02*
X046460Y038642D01*
X046460Y038720D02*
X041008Y038720D01*
X040924Y038799D02*
X046460Y038799D01*
X046460Y038877D02*
X040839Y038877D01*
X040755Y038956D02*
X046460Y038956D01*
X046460Y039034D02*
X040670Y039034D01*
X040586Y039113D02*
X045224Y039113D01*
X045287Y039087D02*
X045613Y039087D01*
X045914Y039212D01*
X046145Y039442D01*
X046270Y039744D01*
X046270Y040070D01*
X046145Y040371D01*
X045914Y040602D01*
X045613Y040727D01*
X045287Y040727D01*
X044985Y040602D01*
X044755Y040371D01*
X044630Y040070D01*
X044630Y039744D01*
X044755Y039442D01*
X044985Y039212D01*
X045287Y039087D01*
X045034Y039191D02*
X040501Y039191D01*
X040417Y039270D02*
X044927Y039270D01*
X044849Y039348D02*
X042302Y039348D01*
X042262Y039332D02*
X042357Y039371D01*
X042430Y039444D01*
X042470Y039540D01*
X042470Y039643D01*
X042430Y039739D01*
X042357Y039812D01*
X042262Y039852D01*
X042158Y039852D01*
X042063Y039812D01*
X041989Y039739D01*
X041950Y039643D01*
X041950Y039540D01*
X041989Y039444D01*
X042063Y039371D01*
X042158Y039332D01*
X042262Y039332D01*
X042118Y039348D02*
X040332Y039348D01*
X040248Y039427D02*
X042007Y039427D01*
X041964Y039505D02*
X040163Y039505D01*
X040078Y039584D02*
X041950Y039584D01*
X041958Y039662D02*
X039994Y039662D01*
X039909Y039741D02*
X041991Y039741D01*
X042080Y039819D02*
X039825Y039819D01*
X039740Y039898D02*
X044630Y039898D01*
X044630Y039976D02*
X039656Y039976D01*
X039571Y040055D02*
X042942Y040055D01*
X042903Y040071D02*
X042998Y040032D01*
X043102Y040032D01*
X043197Y040071D01*
X043270Y040144D01*
X043310Y040240D01*
X043310Y040343D01*
X043270Y040439D01*
X043197Y040512D01*
X043102Y040552D01*
X042998Y040552D01*
X042903Y040512D01*
X042829Y040439D01*
X042790Y040343D01*
X042790Y040240D01*
X042829Y040144D01*
X042903Y040071D01*
X042841Y040133D02*
X039487Y040133D01*
X039402Y040212D02*
X041422Y040212D01*
X041443Y040191D02*
X041538Y040152D01*
X041642Y040152D01*
X041737Y040191D01*
X041810Y040264D01*
X041850Y040360D01*
X041850Y040463D01*
X041810Y040559D01*
X041737Y040632D01*
X041642Y040672D01*
X041538Y040672D01*
X041443Y040632D01*
X041369Y040559D01*
X041330Y040463D01*
X041330Y040360D01*
X041369Y040264D01*
X041443Y040191D01*
X041359Y040290D02*
X039318Y040290D01*
X039233Y040369D02*
X041330Y040369D01*
X041330Y040447D02*
X039149Y040447D01*
X039064Y040526D02*
X041356Y040526D01*
X041415Y040604D02*
X038979Y040604D01*
X038895Y040683D02*
X045181Y040683D01*
X044991Y040604D02*
X041765Y040604D01*
X041824Y040526D02*
X042935Y040526D01*
X042838Y040447D02*
X041850Y040447D01*
X041850Y040369D02*
X042800Y040369D01*
X042790Y040290D02*
X041821Y040290D01*
X041758Y040212D02*
X042802Y040212D01*
X043157Y040055D02*
X044630Y040055D01*
X044656Y040133D02*
X043259Y040133D01*
X043298Y040212D02*
X044689Y040212D01*
X044721Y040290D02*
X043310Y040290D01*
X043299Y040369D02*
X044754Y040369D01*
X044831Y040447D02*
X043262Y040447D01*
X043164Y040526D02*
X044909Y040526D01*
X044630Y039819D02*
X042340Y039819D01*
X042428Y039741D02*
X044631Y039741D01*
X044664Y039662D02*
X042462Y039662D01*
X042470Y039584D02*
X044696Y039584D01*
X044729Y039505D02*
X042455Y039505D01*
X042413Y039427D02*
X044770Y039427D01*
X045676Y039113D02*
X046460Y039113D01*
X046460Y039191D02*
X045865Y039191D01*
X045973Y039270D02*
X046460Y039270D01*
X046460Y039348D02*
X046051Y039348D01*
X046130Y039427D02*
X046460Y039427D01*
X046460Y039505D02*
X046171Y039505D01*
X046204Y039584D02*
X046460Y039584D01*
X046460Y039662D02*
X046236Y039662D01*
X046269Y039741D02*
X046460Y039741D01*
X046460Y039819D02*
X046270Y039819D01*
X046270Y039898D02*
X046460Y039898D01*
X046460Y039976D02*
X046270Y039976D01*
X046270Y040055D02*
X046460Y040055D01*
X046460Y040133D02*
X046244Y040133D01*
X046211Y040212D02*
X046460Y040212D01*
X046460Y040290D02*
X046179Y040290D01*
X046146Y040369D02*
X046460Y040369D01*
X046460Y040447D02*
X046069Y040447D01*
X045990Y040526D02*
X046460Y040526D01*
X046460Y040604D02*
X045909Y040604D01*
X045719Y040683D02*
X046460Y040683D01*
X046460Y040761D02*
X038810Y040761D01*
X038726Y040840D02*
X046460Y040840D01*
X046460Y037150D02*
X037734Y037150D01*
X037740Y037144D02*
X037667Y037217D01*
X037572Y037257D01*
X037468Y037257D01*
X037373Y037217D01*
X037299Y037144D01*
X037260Y037048D01*
X037260Y037017D01*
X037212Y037037D01*
X037108Y037037D01*
X037013Y036997D01*
X036939Y036924D01*
X036900Y036828D01*
X036900Y036725D01*
X036939Y036629D01*
X037013Y036556D01*
X037108Y036517D01*
X037212Y036517D01*
X037307Y036556D01*
X037380Y036629D01*
X037420Y036725D01*
X037420Y036757D01*
X037468Y036737D01*
X037572Y036737D01*
X037667Y036776D01*
X037740Y036849D01*
X037780Y036945D01*
X037780Y037048D01*
X037740Y037144D01*
X037770Y037072D02*
X046460Y037072D01*
X046460Y036993D02*
X037780Y036993D01*
X037767Y036915D02*
X038641Y036915D01*
X038623Y036907D02*
X038549Y036834D01*
X038510Y036738D01*
X038510Y036635D01*
X038549Y036539D01*
X038623Y036466D01*
X038718Y036427D01*
X038822Y036427D01*
X038917Y036466D01*
X038990Y036539D01*
X039030Y036635D01*
X039030Y036738D01*
X038990Y036834D01*
X038917Y036907D01*
X038822Y036947D01*
X038718Y036947D01*
X038623Y036907D01*
X038552Y036836D02*
X037727Y036836D01*
X037622Y036758D02*
X038518Y036758D01*
X038510Y036679D02*
X037401Y036679D01*
X037352Y036601D02*
X038524Y036601D01*
X038567Y036522D02*
X037225Y036522D01*
X037095Y036522D02*
X033880Y036522D01*
X033880Y036444D02*
X038677Y036444D01*
X038863Y036444D02*
X039823Y036444D01*
X039793Y036456D02*
X039880Y036420D01*
X039880Y036385D01*
X039919Y036289D01*
X039993Y036216D01*
X040088Y036177D01*
X040192Y036177D01*
X040287Y036216D01*
X040360Y036289D01*
X040400Y036385D01*
X040400Y036429D01*
X040478Y036397D01*
X040582Y036397D01*
X040677Y036436D01*
X040750Y036509D01*
X040790Y036605D01*
X040790Y036708D01*
X040750Y036804D01*
X040677Y036877D01*
X040582Y036917D01*
X040478Y036917D01*
X040383Y036877D01*
X040309Y036804D01*
X040270Y036708D01*
X040270Y036664D01*
X040200Y036693D01*
X040200Y036728D01*
X040160Y036824D01*
X040087Y036897D01*
X039992Y036937D01*
X039888Y036937D01*
X039793Y036897D01*
X039719Y036824D01*
X039680Y036728D01*
X039680Y036625D01*
X039719Y036529D01*
X039793Y036456D01*
X039727Y036522D02*
X038973Y036522D01*
X039016Y036601D02*
X039690Y036601D01*
X039680Y036679D02*
X039030Y036679D01*
X039022Y036758D02*
X039692Y036758D01*
X039732Y036836D02*
X038988Y036836D01*
X038899Y036915D02*
X039835Y036915D01*
X040045Y036915D02*
X040473Y036915D01*
X040586Y036915D02*
X046460Y036915D01*
X046460Y036836D02*
X040718Y036836D01*
X040769Y036758D02*
X046460Y036758D01*
X046460Y036679D02*
X040790Y036679D01*
X040788Y036601D02*
X046460Y036601D01*
X046460Y036522D02*
X040756Y036522D01*
X040685Y036444D02*
X046460Y036444D01*
X046460Y036365D02*
X043532Y036365D01*
X043511Y036386D02*
X043416Y036426D01*
X043312Y036426D01*
X043217Y036386D01*
X043143Y036313D01*
X043104Y036217D01*
X043104Y036114D01*
X043143Y036018D01*
X043217Y035945D01*
X043312Y035906D01*
X043416Y035906D01*
X043511Y035945D01*
X043584Y036018D01*
X043624Y036114D01*
X043624Y036217D01*
X043584Y036313D01*
X043511Y036386D01*
X043595Y036287D02*
X046460Y036287D01*
X046460Y036208D02*
X043624Y036208D01*
X043624Y036130D02*
X046460Y036130D01*
X046460Y036051D02*
X043598Y036051D01*
X043539Y035973D02*
X046460Y035973D01*
X046460Y035894D02*
X033880Y035894D01*
X033880Y035816D02*
X046460Y035816D01*
X046460Y035737D02*
X033880Y035737D01*
X033880Y035659D02*
X046460Y035659D01*
X046460Y035580D02*
X033880Y035580D01*
X033880Y035502D02*
X037207Y035502D01*
X037233Y035527D02*
X037159Y035454D01*
X037120Y035358D01*
X037120Y035255D01*
X037159Y035159D01*
X037233Y035086D01*
X037328Y035047D01*
X037432Y035047D01*
X037527Y035086D01*
X037600Y035159D01*
X037640Y035255D01*
X037640Y035358D01*
X037600Y035454D01*
X037527Y035527D01*
X037432Y035567D01*
X037328Y035567D01*
X037233Y035527D01*
X037147Y035423D02*
X033880Y035423D01*
X033880Y035345D02*
X037120Y035345D01*
X037120Y035266D02*
X033880Y035266D01*
X033880Y035188D02*
X037148Y035188D01*
X037210Y035109D02*
X033880Y035109D01*
X033880Y035031D02*
X040205Y035031D01*
X040173Y035017D02*
X040099Y034944D01*
X040060Y034848D01*
X040060Y034745D01*
X040099Y034649D01*
X040173Y034576D01*
X040268Y034537D01*
X040372Y034537D01*
X040467Y034576D01*
X040540Y034649D01*
X040580Y034745D01*
X040580Y034848D01*
X040543Y034937D01*
X040552Y034937D01*
X040647Y034976D01*
X040650Y034980D01*
X040679Y034909D01*
X040753Y034836D01*
X040848Y034797D01*
X040952Y034797D01*
X041047Y034836D01*
X041120Y034909D01*
X041160Y035005D01*
X041160Y035108D01*
X041120Y035204D01*
X041047Y035277D01*
X040952Y035317D01*
X040848Y035317D01*
X040753Y035277D01*
X040749Y035274D01*
X040720Y035344D01*
X040647Y035417D01*
X040552Y035457D01*
X040448Y035457D01*
X040353Y035417D01*
X040279Y035344D01*
X040240Y035248D01*
X040240Y035145D01*
X040276Y035057D01*
X040268Y035057D01*
X040173Y035017D01*
X040108Y034952D02*
X033880Y034952D01*
X033880Y034874D02*
X040070Y034874D01*
X040060Y034795D02*
X033880Y034795D01*
X033880Y034717D02*
X038520Y034717D01*
X038473Y034697D02*
X038568Y034737D01*
X038672Y034737D01*
X038767Y034697D01*
X038840Y034624D01*
X038880Y034528D01*
X038880Y034425D01*
X038840Y034329D01*
X038767Y034256D01*
X038672Y034217D01*
X038568Y034217D01*
X038473Y034256D01*
X038399Y034329D01*
X038360Y034425D01*
X038360Y034528D01*
X038399Y034624D01*
X038473Y034697D01*
X038414Y034638D02*
X033880Y034638D01*
X033880Y034560D02*
X038373Y034560D01*
X038360Y034481D02*
X033880Y034481D01*
X033880Y034403D02*
X038369Y034403D01*
X038405Y034324D02*
X033880Y034324D01*
X033880Y034246D02*
X038498Y034246D01*
X038742Y034246D02*
X046460Y034246D01*
X046460Y034324D02*
X038835Y034324D01*
X038871Y034403D02*
X046460Y034403D01*
X046460Y034481D02*
X038880Y034481D01*
X038867Y034560D02*
X040213Y034560D01*
X040111Y034638D02*
X038826Y034638D01*
X038720Y034717D02*
X040072Y034717D01*
X040427Y034560D02*
X045141Y034560D01*
X045163Y034550D02*
X045267Y034550D01*
X045362Y034590D01*
X045435Y034663D01*
X045475Y034759D01*
X045475Y034862D01*
X045435Y034958D01*
X045362Y035031D01*
X046460Y035031D01*
X046460Y035109D02*
X041160Y035109D01*
X041160Y035031D02*
X045068Y035031D01*
X044995Y034958D01*
X044955Y034862D01*
X044955Y034759D01*
X044995Y034663D01*
X045068Y034590D01*
X045163Y034550D01*
X045290Y034560D02*
X046460Y034560D01*
X046460Y034638D02*
X045411Y034638D01*
X045458Y034717D02*
X046460Y034717D01*
X046460Y034795D02*
X045475Y034795D01*
X045470Y034874D02*
X046460Y034874D01*
X046460Y034952D02*
X045438Y034952D01*
X045362Y035031D02*
X045267Y035070D01*
X045163Y035070D01*
X045068Y035031D01*
X044992Y034952D02*
X041138Y034952D01*
X041085Y034874D02*
X044960Y034874D01*
X044955Y034795D02*
X040580Y034795D01*
X040568Y034717D02*
X044972Y034717D01*
X045019Y034638D02*
X040529Y034638D01*
X040569Y034874D02*
X040715Y034874D01*
X040662Y034952D02*
X040589Y034952D01*
X040255Y035109D02*
X037550Y035109D01*
X037612Y035188D02*
X040240Y035188D01*
X040247Y035266D02*
X037640Y035266D01*
X037640Y035345D02*
X040280Y035345D01*
X040367Y035423D02*
X037613Y035423D01*
X037552Y035502D02*
X046460Y035502D01*
X046460Y035423D02*
X040632Y035423D01*
X040719Y035345D02*
X046460Y035345D01*
X046460Y035266D02*
X041058Y035266D01*
X041127Y035188D02*
X046460Y035188D01*
X046460Y034167D02*
X033880Y034167D01*
X033880Y034089D02*
X039189Y034089D01*
X039208Y034097D02*
X039113Y034057D01*
X039039Y033984D01*
X039000Y033888D01*
X039000Y033785D01*
X039039Y033689D01*
X039113Y033616D01*
X039208Y033577D01*
X039312Y033577D01*
X039407Y033616D01*
X039480Y033689D01*
X039520Y033785D01*
X039520Y033888D01*
X039480Y033984D01*
X039407Y034057D01*
X039312Y034097D01*
X039208Y034097D01*
X039331Y034089D02*
X046460Y034089D01*
X046460Y034010D02*
X045597Y034010D01*
X045576Y034031D02*
X045481Y034070D01*
X045377Y034070D01*
X045282Y034031D01*
X045209Y033958D01*
X045169Y033862D01*
X045169Y033759D01*
X045209Y033663D01*
X045282Y033590D01*
X045377Y033550D01*
X045481Y033550D01*
X045576Y033590D01*
X045649Y033663D01*
X045689Y033759D01*
X045689Y033862D01*
X045649Y033958D01*
X045576Y034031D01*
X045660Y033932D02*
X046460Y033932D01*
X046460Y033853D02*
X045689Y033853D01*
X045689Y033775D02*
X046460Y033775D01*
X046460Y033696D02*
X045663Y033696D01*
X045604Y033618D02*
X046460Y033618D01*
X046460Y033539D02*
X042708Y033539D01*
X042690Y033547D02*
X042586Y033547D01*
X042491Y033507D01*
X042450Y033466D01*
X042405Y033511D01*
X042310Y033551D01*
X042206Y033551D01*
X042111Y033511D01*
X042037Y033438D01*
X041998Y033342D01*
X041998Y033239D01*
X042037Y033143D01*
X042111Y033070D01*
X042206Y033031D01*
X042310Y033031D01*
X042405Y033070D01*
X042446Y033111D01*
X042491Y033066D01*
X042586Y033027D01*
X042690Y033027D01*
X042785Y033066D01*
X042858Y033139D01*
X042898Y033235D01*
X042898Y033338D01*
X042858Y033434D01*
X042785Y033507D01*
X042690Y033547D01*
X042568Y033539D02*
X042337Y033539D01*
X042178Y033539D02*
X038540Y033539D01*
X038540Y033568D02*
X038500Y033664D01*
X038427Y033737D01*
X038332Y033777D01*
X038228Y033777D01*
X038133Y033737D01*
X038059Y033664D01*
X038020Y033568D01*
X038020Y033465D01*
X038059Y033369D01*
X038133Y033296D01*
X038228Y033257D01*
X038332Y033257D01*
X038427Y033296D01*
X038500Y033369D01*
X038540Y033465D01*
X038540Y033568D01*
X038519Y033618D02*
X039111Y033618D01*
X039037Y033696D02*
X038468Y033696D01*
X038336Y033775D02*
X039004Y033775D01*
X039000Y033853D02*
X033880Y033853D01*
X033880Y033775D02*
X037510Y033775D01*
X037513Y033777D02*
X037439Y033704D01*
X037400Y033608D01*
X037400Y033505D01*
X037439Y033409D01*
X037513Y033336D01*
X037608Y033297D01*
X037712Y033297D01*
X037807Y033336D01*
X037880Y033409D01*
X037920Y033505D01*
X037920Y033608D01*
X037880Y033704D01*
X037807Y033777D01*
X037712Y033817D01*
X037608Y033817D01*
X037513Y033777D01*
X037436Y033696D02*
X033880Y033696D01*
X033880Y033618D02*
X033953Y033618D01*
X033889Y033539D02*
X033880Y033539D01*
X033880Y033304D02*
X033885Y033304D01*
X033880Y033225D02*
X033944Y033225D01*
X033880Y033147D02*
X034452Y033147D01*
X034459Y033129D02*
X034533Y033056D01*
X034628Y033017D01*
X034732Y033017D01*
X034827Y033056D01*
X034900Y033129D01*
X034940Y033225D01*
X034940Y033328D01*
X034900Y033424D01*
X034827Y033497D01*
X034732Y033537D01*
X034628Y033537D01*
X034533Y033497D01*
X034459Y033424D01*
X034420Y033328D01*
X034420Y033225D01*
X034459Y033129D01*
X034521Y033068D02*
X034160Y033068D01*
X034255Y032990D02*
X036045Y032990D01*
X036019Y032964D02*
X035980Y032868D01*
X035980Y032765D01*
X036019Y032669D01*
X036093Y032596D01*
X036188Y032557D01*
X036292Y032557D01*
X036387Y032596D01*
X036460Y032669D01*
X036500Y032765D01*
X036500Y032868D01*
X036460Y032964D01*
X036387Y033037D01*
X036292Y033077D01*
X036188Y033077D01*
X036093Y033037D01*
X036019Y032964D01*
X035998Y032911D02*
X034290Y032911D01*
X034361Y032833D02*
X035980Y032833D01*
X035984Y032754D02*
X034490Y032754D01*
X034540Y032676D02*
X036017Y032676D01*
X036092Y032597D02*
X034560Y032597D01*
X034557Y032519D02*
X044487Y032519D01*
X044487Y032508D02*
X044527Y032413D01*
X044600Y032339D01*
X044696Y032300D01*
X044799Y032300D01*
X044895Y032339D01*
X044968Y032413D01*
X045007Y032508D01*
X045007Y032612D01*
X044968Y032707D01*
X044895Y032780D01*
X044799Y032820D01*
X044696Y032820D01*
X044600Y032780D01*
X044527Y032707D01*
X044487Y032612D01*
X044487Y032508D01*
X044516Y032440D02*
X034525Y032440D01*
X034453Y032362D02*
X044578Y032362D01*
X044487Y032597D02*
X036388Y032597D01*
X036463Y032676D02*
X044514Y032676D01*
X044574Y032754D02*
X041365Y032754D01*
X041347Y032736D02*
X041420Y032809D01*
X041460Y032905D01*
X041460Y033008D01*
X041420Y033104D01*
X041347Y033177D01*
X041252Y033217D01*
X041148Y033217D01*
X041053Y033177D01*
X040979Y033104D01*
X040940Y033008D01*
X040940Y032905D01*
X040979Y032809D01*
X041053Y032736D01*
X041148Y032697D01*
X041252Y032697D01*
X041347Y032736D01*
X041430Y032833D02*
X046460Y032833D01*
X046460Y032911D02*
X041460Y032911D01*
X041460Y032990D02*
X046460Y032990D01*
X046460Y033068D02*
X042787Y033068D01*
X042861Y033147D02*
X046460Y033147D01*
X046460Y033225D02*
X042894Y033225D01*
X042898Y033304D02*
X046460Y033304D01*
X046460Y033382D02*
X042880Y033382D01*
X042831Y033461D02*
X046460Y033461D01*
X046460Y032754D02*
X044921Y032754D01*
X044981Y032676D02*
X046460Y032676D01*
X046460Y032597D02*
X045007Y032597D01*
X045007Y032519D02*
X046460Y032519D01*
X046460Y032440D02*
X044979Y032440D01*
X044917Y032362D02*
X046460Y032362D01*
X046460Y032283D02*
X033880Y032283D01*
X033880Y032205D02*
X038860Y032205D01*
X038893Y032237D02*
X038819Y032164D01*
X038780Y032068D01*
X038780Y031965D01*
X038819Y031869D01*
X038893Y031796D01*
X038988Y031757D01*
X039092Y031757D01*
X039187Y031796D01*
X039260Y031869D01*
X039300Y031965D01*
X039300Y032068D01*
X039260Y032164D01*
X039187Y032237D01*
X039092Y032277D01*
X038988Y032277D01*
X038893Y032237D01*
X038804Y032126D02*
X033880Y032126D01*
X033880Y032048D02*
X038780Y032048D01*
X038780Y031969D02*
X034258Y031969D01*
X034287Y031957D02*
X034192Y031997D01*
X034088Y031997D01*
X033993Y031957D01*
X033919Y031884D01*
X033880Y031788D01*
X033880Y031685D01*
X033919Y031589D01*
X033993Y031516D01*
X034088Y031477D01*
X034192Y031477D01*
X034287Y031516D01*
X034360Y031589D01*
X034400Y031685D01*
X034400Y031788D01*
X034360Y031884D01*
X034287Y031957D01*
X034354Y031891D02*
X038811Y031891D01*
X038877Y031812D02*
X034390Y031812D01*
X034400Y031734D02*
X042869Y031734D01*
X042879Y031709D02*
X042953Y031636D01*
X043048Y031597D01*
X043152Y031597D01*
X043247Y031636D01*
X043320Y031709D01*
X043360Y031805D01*
X043360Y031908D01*
X043320Y032004D01*
X043247Y032077D01*
X043152Y032117D01*
X043048Y032117D01*
X042953Y032077D01*
X042879Y032004D01*
X042840Y031908D01*
X042840Y031805D01*
X042879Y031709D01*
X042934Y031655D02*
X034388Y031655D01*
X034348Y031577D02*
X038872Y031577D01*
X038873Y031577D02*
X038799Y031504D01*
X038760Y031408D01*
X038760Y031305D01*
X038799Y031209D01*
X038873Y031136D01*
X038968Y031097D01*
X039072Y031097D01*
X039167Y031136D01*
X039240Y031209D01*
X039280Y031305D01*
X039280Y031408D01*
X039240Y031504D01*
X039167Y031577D01*
X039072Y031617D01*
X038968Y031617D01*
X038873Y031577D01*
X038797Y031498D02*
X034244Y031498D01*
X034036Y031498D02*
X033880Y031498D01*
X033880Y031420D02*
X038765Y031420D01*
X038760Y031341D02*
X033880Y031341D01*
X033880Y031263D02*
X034538Y031263D01*
X034553Y031277D02*
X034479Y031204D01*
X034440Y031108D01*
X034440Y031005D01*
X034479Y030909D01*
X034553Y030836D01*
X034648Y030797D01*
X034752Y030797D01*
X034847Y030836D01*
X034920Y030909D01*
X034960Y031005D01*
X034960Y031108D01*
X034920Y031204D01*
X034847Y031277D01*
X034752Y031317D01*
X034648Y031317D01*
X034553Y031277D01*
X034471Y031184D02*
X033880Y031184D01*
X033880Y031106D02*
X034440Y031106D01*
X034440Y031027D02*
X034234Y031027D01*
X034212Y031037D02*
X034108Y031037D01*
X034013Y030997D01*
X033939Y030924D01*
X033900Y030828D01*
X033900Y030725D01*
X033939Y030629D01*
X034013Y030556D01*
X033880Y030556D01*
X033880Y030478D02*
X042600Y030478D01*
X042600Y030508D02*
X042600Y030405D01*
X042639Y030309D01*
X042713Y030236D01*
X042808Y030197D01*
X042912Y030197D01*
X043007Y030236D01*
X043080Y030309D01*
X043120Y030405D01*
X043120Y030508D01*
X043080Y030604D01*
X043058Y030627D01*
X043080Y030649D01*
X043120Y030745D01*
X043120Y030848D01*
X043080Y030944D01*
X043007Y031017D01*
X042912Y031057D01*
X042808Y031057D01*
X042713Y031017D01*
X042639Y030944D01*
X042600Y030848D01*
X042600Y030745D01*
X042639Y030649D01*
X042662Y030627D01*
X042639Y030604D01*
X042600Y030508D01*
X042620Y030556D02*
X034307Y030556D01*
X034380Y030629D01*
X034420Y030725D01*
X034420Y030828D01*
X034380Y030924D01*
X034307Y030997D01*
X034212Y031037D01*
X034085Y031027D02*
X033880Y031027D01*
X033880Y030949D02*
X033964Y030949D01*
X033917Y030870D02*
X033880Y030870D01*
X033880Y030792D02*
X033900Y030792D01*
X033905Y030713D02*
X033880Y030713D01*
X033880Y030635D02*
X033937Y030635D01*
X034013Y030556D02*
X034108Y030517D01*
X034212Y030517D01*
X034307Y030556D01*
X034382Y030635D02*
X035876Y030635D01*
X035873Y030636D02*
X035968Y030597D01*
X036072Y030597D01*
X036167Y030636D01*
X036240Y030709D01*
X036280Y030805D01*
X036280Y030908D01*
X036240Y031004D01*
X036167Y031077D01*
X036072Y031117D01*
X035968Y031117D01*
X035873Y031077D01*
X035799Y031004D01*
X035760Y030908D01*
X035760Y030805D01*
X035799Y030709D01*
X035873Y030636D01*
X035798Y030713D02*
X034415Y030713D01*
X034420Y030792D02*
X035765Y030792D01*
X035760Y030870D02*
X034881Y030870D01*
X034937Y030949D02*
X035777Y030949D01*
X035823Y031027D02*
X034960Y031027D01*
X034960Y031106D02*
X035942Y031106D01*
X036098Y031106D02*
X038241Y031106D01*
X038219Y031084D02*
X038180Y030988D01*
X038180Y030885D01*
X038219Y030789D01*
X038293Y030716D01*
X038388Y030677D01*
X038492Y030677D01*
X038587Y030716D01*
X038660Y030789D01*
X038700Y030885D01*
X038700Y030988D01*
X038660Y031084D01*
X038587Y031157D01*
X038492Y031197D01*
X038388Y031197D01*
X038293Y031157D01*
X038219Y031084D01*
X038196Y031027D02*
X037957Y031027D01*
X037947Y031037D02*
X037852Y031077D01*
X037748Y031077D01*
X037653Y031037D01*
X037579Y030964D01*
X037540Y030868D01*
X037540Y030765D01*
X037579Y030669D01*
X037653Y030596D01*
X037748Y030557D01*
X037852Y030557D01*
X037947Y030596D01*
X038020Y030669D01*
X038060Y030765D01*
X038060Y030868D01*
X038020Y030964D01*
X037947Y031037D01*
X038027Y030949D02*
X038180Y030949D01*
X038186Y030870D02*
X038059Y030870D01*
X038060Y030792D02*
X038218Y030792D01*
X038300Y030713D02*
X038038Y030713D01*
X037986Y030635D02*
X042654Y030635D01*
X042613Y030713D02*
X038580Y030713D01*
X038661Y030792D02*
X042600Y030792D01*
X042609Y030870D02*
X038694Y030870D01*
X038700Y030949D02*
X042644Y030949D01*
X042737Y031027D02*
X038684Y031027D01*
X038639Y031106D02*
X038946Y031106D01*
X038825Y031184D02*
X038522Y031184D01*
X038358Y031184D02*
X034928Y031184D01*
X034862Y031263D02*
X038777Y031263D01*
X039093Y031106D02*
X044350Y031106D01*
X044353Y031097D02*
X044427Y031024D01*
X044522Y030985D01*
X044626Y030985D01*
X044721Y031024D01*
X044794Y031097D01*
X044834Y031193D01*
X044834Y031296D01*
X044794Y031392D01*
X044721Y031465D01*
X044626Y031505D01*
X044522Y031505D01*
X044427Y031465D01*
X044353Y031392D01*
X044314Y031296D01*
X044314Y031193D01*
X044353Y031097D01*
X044317Y031184D02*
X041285Y031184D01*
X041257Y031156D02*
X041330Y031229D01*
X041370Y031325D01*
X041370Y031428D01*
X041330Y031524D01*
X041257Y031597D01*
X041162Y031637D01*
X041058Y031637D01*
X040963Y031597D01*
X040889Y031524D01*
X040850Y031428D01*
X040850Y031325D01*
X040889Y031229D01*
X040963Y031156D01*
X041058Y031117D01*
X041162Y031117D01*
X041257Y031156D01*
X041344Y031263D02*
X044314Y031263D01*
X044332Y031341D02*
X041370Y031341D01*
X041370Y031420D02*
X044381Y031420D01*
X044507Y031498D02*
X041341Y031498D01*
X041278Y031577D02*
X046460Y031577D01*
X046460Y031655D02*
X043266Y031655D01*
X043330Y031734D02*
X046460Y031734D01*
X046460Y031812D02*
X043360Y031812D01*
X043360Y031891D02*
X046460Y031891D01*
X046460Y031969D02*
X043335Y031969D01*
X043277Y032048D02*
X046460Y032048D01*
X046460Y032126D02*
X039276Y032126D01*
X039300Y032048D02*
X042923Y032048D01*
X042865Y031969D02*
X039300Y031969D01*
X039269Y031891D02*
X042840Y031891D01*
X042840Y031812D02*
X039203Y031812D01*
X039168Y031577D02*
X040942Y031577D01*
X040879Y031498D02*
X039243Y031498D01*
X039275Y031420D02*
X040850Y031420D01*
X040850Y031341D02*
X039280Y031341D01*
X039262Y031263D02*
X040876Y031263D01*
X040935Y031184D02*
X039215Y031184D01*
X039553Y030257D02*
X039479Y030184D01*
X039440Y030088D01*
X039440Y029985D01*
X039479Y029889D01*
X039553Y029816D01*
X039648Y029777D01*
X039752Y029777D01*
X039847Y029816D01*
X039920Y029889D01*
X039960Y029985D01*
X039960Y030088D01*
X039920Y030184D01*
X039847Y030257D01*
X039752Y030297D01*
X039648Y030297D01*
X039553Y030257D01*
X039538Y030242D02*
X033880Y030242D01*
X033880Y030164D02*
X037979Y030164D01*
X038013Y030197D02*
X037939Y030124D01*
X037900Y030028D01*
X037900Y029925D01*
X037939Y029829D01*
X038013Y029756D01*
X038108Y029717D01*
X038212Y029717D01*
X038307Y029756D01*
X038380Y029829D01*
X038420Y029925D01*
X038420Y030028D01*
X038380Y030124D01*
X038307Y030197D01*
X038212Y030237D01*
X038108Y030237D01*
X038013Y030197D01*
X037923Y030085D02*
X035622Y030085D01*
X035580Y030103D02*
X035476Y030103D01*
X035381Y030063D01*
X035307Y029990D01*
X035268Y029894D01*
X035268Y029791D01*
X035307Y029695D01*
X035381Y029622D01*
X035476Y029583D01*
X035580Y029583D01*
X035675Y029622D01*
X035748Y029695D01*
X035788Y029791D01*
X035788Y029894D01*
X035748Y029990D01*
X035675Y030063D01*
X035580Y030103D01*
X035434Y030085D02*
X033880Y030085D01*
X033880Y030007D02*
X035324Y030007D01*
X035282Y029928D02*
X033880Y029928D01*
X033880Y029850D02*
X035268Y029850D01*
X035276Y029771D02*
X033880Y029771D01*
X033880Y029693D02*
X035310Y029693D01*
X035400Y029614D02*
X033880Y029614D01*
X033880Y029536D02*
X043656Y029536D01*
X043658Y029537D02*
X043563Y029497D01*
X043489Y029424D01*
X043450Y029328D01*
X043450Y029225D01*
X043489Y029129D01*
X043563Y029056D01*
X043658Y029017D01*
X043762Y029017D01*
X043857Y029056D01*
X043930Y029129D01*
X043970Y029225D01*
X043970Y029328D01*
X043930Y029424D01*
X043857Y029497D01*
X043762Y029537D01*
X043658Y029537D01*
X043764Y029536D02*
X046460Y029536D01*
X046460Y029614D02*
X035656Y029614D01*
X035746Y029693D02*
X046460Y029693D01*
X046460Y029771D02*
X038322Y029771D01*
X038389Y029850D02*
X039519Y029850D01*
X039463Y029928D02*
X038420Y029928D01*
X038420Y030007D02*
X039440Y030007D01*
X039440Y030085D02*
X038396Y030085D01*
X038341Y030164D02*
X039471Y030164D01*
X039862Y030242D02*
X042707Y030242D01*
X042635Y030321D02*
X033880Y030321D01*
X033880Y030399D02*
X042602Y030399D01*
X043013Y030242D02*
X046460Y030242D01*
X046460Y030164D02*
X039929Y030164D01*
X039960Y030085D02*
X046460Y030085D01*
X046460Y030007D02*
X039960Y030007D01*
X039936Y029928D02*
X046460Y029928D01*
X046460Y029850D02*
X039881Y029850D01*
X039932Y029137D02*
X039828Y029137D01*
X039733Y029097D01*
X039659Y029024D01*
X039620Y028928D01*
X039620Y028825D01*
X039659Y028729D01*
X039733Y028656D01*
X039828Y028617D01*
X039932Y028617D01*
X040027Y028656D01*
X040100Y028729D01*
X040140Y028825D01*
X040140Y028928D01*
X040100Y029024D01*
X040027Y029097D01*
X039932Y029137D01*
X040060Y029065D02*
X040791Y029065D01*
X040799Y029084D02*
X040760Y028988D01*
X040760Y028885D01*
X040799Y028789D01*
X040873Y028716D01*
X040968Y028677D01*
X041072Y028677D01*
X041167Y028716D01*
X041240Y028789D01*
X041280Y028885D01*
X041280Y028988D01*
X041240Y029084D01*
X041167Y029157D01*
X041072Y029197D01*
X040968Y029197D01*
X040873Y029157D01*
X040799Y029084D01*
X040859Y029143D02*
X035571Y029143D01*
X035595Y029119D02*
X035522Y029192D01*
X035427Y029232D01*
X035323Y029232D01*
X035228Y029192D01*
X035154Y029119D01*
X035115Y029023D01*
X035115Y028920D01*
X035154Y028824D01*
X035228Y028751D01*
X035323Y028712D01*
X035427Y028712D01*
X035522Y028751D01*
X035595Y028824D01*
X035635Y028920D01*
X035635Y029023D01*
X035595Y029119D01*
X035618Y029065D02*
X039700Y029065D01*
X039644Y028986D02*
X035635Y028986D01*
X035630Y028908D02*
X039620Y028908D01*
X039620Y028829D02*
X035597Y028829D01*
X035521Y028751D02*
X039651Y028751D01*
X039717Y028672D02*
X038572Y028672D01*
X038547Y028697D02*
X038452Y028737D01*
X038348Y028737D01*
X038253Y028697D01*
X038179Y028624D01*
X038140Y028528D01*
X038140Y028425D01*
X038179Y028329D01*
X038253Y028256D01*
X038348Y028217D01*
X038452Y028217D01*
X038547Y028256D01*
X038620Y028329D01*
X038660Y028425D01*
X038660Y028528D01*
X038620Y028624D01*
X038547Y028697D01*
X038633Y028594D02*
X043570Y028594D01*
X043570Y028545D02*
X043609Y028449D01*
X043683Y028376D01*
X043778Y028337D01*
X043882Y028337D01*
X043977Y028376D01*
X044050Y028449D01*
X044090Y028545D01*
X044090Y028648D01*
X044050Y028744D01*
X043977Y028817D01*
X043882Y028857D01*
X043778Y028857D01*
X043683Y028817D01*
X043609Y028744D01*
X043570Y028648D01*
X043570Y028545D01*
X043582Y028515D02*
X038660Y028515D01*
X038660Y028437D02*
X043622Y028437D01*
X043726Y028358D02*
X038632Y028358D01*
X038571Y028280D02*
X046460Y028280D01*
X046460Y028358D02*
X043934Y028358D01*
X044038Y028437D02*
X046460Y028437D01*
X046460Y028515D02*
X044078Y028515D01*
X044090Y028594D02*
X046460Y028594D01*
X046460Y028672D02*
X044080Y028672D01*
X044044Y028751D02*
X046460Y028751D01*
X046460Y028829D02*
X043948Y028829D01*
X043712Y028829D02*
X041257Y028829D01*
X041280Y028908D02*
X046460Y028908D01*
X046460Y028986D02*
X041280Y028986D01*
X041248Y029065D02*
X043554Y029065D01*
X043484Y029143D02*
X041181Y029143D01*
X041202Y028751D02*
X043616Y028751D01*
X043580Y028672D02*
X040043Y028672D01*
X040109Y028751D02*
X040838Y028751D01*
X040783Y028829D02*
X040140Y028829D01*
X040140Y028908D02*
X040760Y028908D01*
X040760Y028986D02*
X040116Y028986D01*
X038228Y028672D02*
X033880Y028672D01*
X033880Y028594D02*
X035233Y028594D01*
X035193Y028577D02*
X035119Y028504D01*
X035080Y028408D01*
X035080Y028305D01*
X035119Y028209D01*
X035193Y028136D01*
X035288Y028097D01*
X035392Y028097D01*
X035487Y028136D01*
X035560Y028209D01*
X035600Y028305D01*
X035600Y028408D01*
X035560Y028504D01*
X035487Y028577D01*
X035392Y028617D01*
X035288Y028617D01*
X035193Y028577D01*
X035131Y028515D02*
X033880Y028515D01*
X033880Y028437D02*
X035092Y028437D01*
X035080Y028358D02*
X033880Y028358D01*
X033880Y028280D02*
X035090Y028280D01*
X035128Y028201D02*
X033880Y028201D01*
X033880Y028123D02*
X035225Y028123D01*
X035454Y028123D02*
X036340Y028123D01*
X036340Y028148D02*
X036340Y028045D01*
X036379Y027949D01*
X036453Y027876D01*
X036548Y027837D01*
X036652Y027837D01*
X036747Y027876D01*
X036820Y027949D01*
X036860Y028045D01*
X036860Y028148D01*
X036820Y028244D01*
X036747Y028317D01*
X036652Y028357D01*
X036548Y028357D01*
X036453Y028317D01*
X036379Y028244D01*
X036340Y028148D01*
X036362Y028201D02*
X035552Y028201D01*
X035589Y028280D02*
X036415Y028280D01*
X036340Y028044D02*
X033880Y028044D01*
X033880Y027966D02*
X036373Y027966D01*
X036442Y027887D02*
X033880Y027887D01*
X033880Y027809D02*
X044340Y027809D01*
X044340Y027730D02*
X033880Y027730D01*
X033880Y027652D02*
X044340Y027652D01*
X044340Y027573D02*
X033880Y027573D01*
X033880Y027495D02*
X044340Y027495D01*
X044340Y027416D02*
X033880Y027416D01*
X033880Y027338D02*
X044340Y027338D01*
X044340Y027259D02*
X033880Y027259D01*
X033880Y027181D02*
X043236Y027181D01*
X043273Y027217D02*
X043199Y027144D01*
X043160Y027048D01*
X043160Y026945D01*
X043199Y026849D01*
X043273Y026776D01*
X043368Y026737D01*
X043460Y026737D01*
X043413Y026717D01*
X043339Y026644D01*
X043300Y026548D01*
X043300Y026445D01*
X043303Y026437D01*
X043288Y026437D01*
X043193Y026397D01*
X043119Y026324D01*
X043080Y026228D01*
X043080Y026125D01*
X043119Y026029D01*
X043193Y025956D01*
X043288Y025917D01*
X043392Y025917D01*
X043487Y025956D01*
X043560Y026029D01*
X043600Y026125D01*
X043600Y026228D01*
X043596Y026237D01*
X043612Y026237D01*
X043707Y026276D01*
X043780Y026349D01*
X043820Y026445D01*
X043820Y026548D01*
X043780Y026644D01*
X043707Y026717D01*
X043612Y026757D01*
X043520Y026757D01*
X043567Y026776D01*
X043640Y026849D01*
X043680Y026945D01*
X043680Y027048D01*
X043640Y027144D01*
X043567Y027217D01*
X043472Y027257D01*
X043368Y027257D01*
X043273Y027217D01*
X043182Y027102D02*
X033880Y027102D01*
X033880Y027024D02*
X043160Y027024D01*
X043160Y026945D02*
X033880Y026945D01*
X033880Y026867D02*
X043192Y026867D01*
X043261Y026788D02*
X033880Y026788D01*
X033880Y026710D02*
X043405Y026710D01*
X043334Y026631D02*
X033880Y026631D01*
X033880Y026553D02*
X043302Y026553D01*
X043300Y026474D02*
X033880Y026474D01*
X033880Y026396D02*
X043191Y026396D01*
X043117Y026317D02*
X033880Y026317D01*
X033880Y026239D02*
X043084Y026239D01*
X043080Y026160D02*
X033880Y026160D01*
X033880Y026082D02*
X043098Y026082D01*
X043146Y026003D02*
X033880Y026003D01*
X033880Y025925D02*
X043269Y025925D01*
X043411Y025925D02*
X044528Y025925D01*
X044520Y026003D02*
X043534Y026003D01*
X043582Y026082D02*
X044534Y026082D01*
X044576Y026160D02*
X043600Y026160D01*
X043616Y026239D02*
X044163Y026239D01*
X044276Y026239D02*
X044450Y026239D01*
X044446Y026631D02*
X044447Y026631D01*
X044375Y026710D02*
X044606Y026710D01*
X044527Y026788D02*
X043579Y026788D01*
X043647Y026867D02*
X044449Y026867D01*
X044370Y026945D02*
X043680Y026945D01*
X043680Y027024D02*
X044340Y027024D01*
X044340Y027102D02*
X043658Y027102D01*
X043604Y027181D02*
X044340Y027181D01*
X044740Y027181D02*
X045513Y027181D01*
X045455Y027205D02*
X045607Y027142D01*
X045772Y027142D01*
X045925Y027205D01*
X046042Y027322D01*
X046105Y027474D01*
X046105Y027639D01*
X046042Y027792D01*
X045925Y027909D01*
X045772Y027972D01*
X045607Y027972D01*
X045455Y027909D01*
X045338Y027792D01*
X045275Y027639D01*
X045275Y027474D01*
X045338Y027322D01*
X045455Y027205D01*
X045400Y027259D02*
X044740Y027259D01*
X044740Y027338D02*
X045331Y027338D01*
X045299Y027416D02*
X044740Y027416D01*
X044740Y027495D02*
X045275Y027495D01*
X045275Y027573D02*
X044740Y027573D01*
X044740Y027652D02*
X045280Y027652D01*
X045313Y027730D02*
X044740Y027730D01*
X044740Y027809D02*
X045355Y027809D01*
X045433Y027887D02*
X044784Y027887D01*
X044800Y027966D02*
X045593Y027966D01*
X045787Y027966D02*
X046460Y027966D01*
X046460Y028044D02*
X044793Y028044D01*
X044761Y028123D02*
X046460Y028123D01*
X046460Y028201D02*
X044677Y028201D01*
X044402Y028201D02*
X036838Y028201D01*
X036860Y028123D02*
X044319Y028123D01*
X044286Y028044D02*
X036860Y028044D01*
X036827Y027966D02*
X044280Y027966D01*
X044295Y027887D02*
X036758Y027887D01*
X036785Y028280D02*
X038229Y028280D01*
X038167Y028358D02*
X035600Y028358D01*
X035588Y028437D02*
X038140Y028437D01*
X038140Y028515D02*
X035549Y028515D01*
X035447Y028594D02*
X038167Y028594D01*
X037998Y029771D02*
X035780Y029771D01*
X035788Y029850D02*
X037931Y029850D01*
X037900Y029928D02*
X035774Y029928D01*
X035732Y030007D02*
X037900Y030007D01*
X037614Y030635D02*
X036163Y030635D01*
X036242Y030713D02*
X037561Y030713D01*
X037540Y030792D02*
X036274Y030792D01*
X036280Y030870D02*
X037541Y030870D01*
X037573Y030949D02*
X036263Y030949D01*
X036217Y031027D02*
X037643Y031027D01*
X039220Y032205D02*
X046460Y032205D01*
X046460Y031498D02*
X044641Y031498D01*
X044767Y031420D02*
X046460Y031420D01*
X046460Y031341D02*
X044815Y031341D01*
X044834Y031263D02*
X045328Y031263D01*
X045333Y031267D02*
X045259Y031194D01*
X045220Y031098D01*
X045220Y030995D01*
X045259Y030899D01*
X045333Y030826D01*
X045428Y030787D01*
X045532Y030787D01*
X045627Y030826D01*
X045700Y030899D01*
X045740Y030995D01*
X045740Y031098D01*
X045700Y031194D01*
X045627Y031267D01*
X045532Y031307D01*
X045428Y031307D01*
X045333Y031267D01*
X045255Y031184D02*
X044830Y031184D01*
X044798Y031106D02*
X045223Y031106D01*
X045220Y031027D02*
X044724Y031027D01*
X044424Y031027D02*
X042983Y031027D01*
X043076Y030949D02*
X045239Y030949D01*
X045289Y030870D02*
X043715Y030870D01*
X043747Y030857D02*
X043652Y030897D01*
X043548Y030897D01*
X043453Y030857D01*
X043379Y030784D01*
X043340Y030688D01*
X043340Y030585D01*
X043379Y030489D01*
X043453Y030416D01*
X043548Y030377D01*
X043652Y030377D01*
X043747Y030416D01*
X043820Y030489D01*
X043860Y030585D01*
X043860Y030688D01*
X043820Y030784D01*
X043747Y030857D01*
X043813Y030792D02*
X045416Y030792D01*
X045544Y030792D02*
X046460Y030792D01*
X046460Y030870D02*
X045671Y030870D01*
X045721Y030949D02*
X046460Y030949D01*
X046460Y031027D02*
X045740Y031027D01*
X045737Y031106D02*
X046460Y031106D01*
X046460Y031184D02*
X045704Y031184D01*
X045632Y031263D02*
X046460Y031263D01*
X046460Y030713D02*
X043850Y030713D01*
X043860Y030635D02*
X046460Y030635D01*
X046460Y030556D02*
X043848Y030556D01*
X043809Y030478D02*
X046460Y030478D01*
X046460Y030399D02*
X043706Y030399D01*
X043494Y030399D02*
X043117Y030399D01*
X043120Y030478D02*
X043391Y030478D01*
X043352Y030556D02*
X043100Y030556D01*
X043066Y030635D02*
X043340Y030635D01*
X043350Y030713D02*
X043107Y030713D01*
X043120Y030792D02*
X043387Y030792D01*
X043484Y030870D02*
X043111Y030870D01*
X043085Y030321D02*
X046460Y030321D01*
X046460Y029457D02*
X043897Y029457D01*
X043949Y029379D02*
X046460Y029379D01*
X046460Y029300D02*
X043970Y029300D01*
X043968Y029222D02*
X046460Y029222D01*
X046460Y029143D02*
X043936Y029143D01*
X043866Y029065D02*
X046460Y029065D01*
X046460Y027887D02*
X045946Y027887D01*
X046025Y027809D02*
X046460Y027809D01*
X046460Y027730D02*
X046067Y027730D01*
X046100Y027652D02*
X046460Y027652D01*
X046460Y027573D02*
X046105Y027573D01*
X046105Y027495D02*
X046460Y027495D01*
X046460Y027416D02*
X046081Y027416D01*
X046048Y027338D02*
X046460Y027338D01*
X046460Y027259D02*
X045979Y027259D01*
X045867Y027181D02*
X046460Y027181D01*
X046460Y027102D02*
X044779Y027102D01*
X044858Y027024D02*
X046460Y027024D01*
X046460Y026945D02*
X044936Y026945D01*
X045015Y026867D02*
X046460Y026867D01*
X046460Y026788D02*
X045093Y026788D01*
X045172Y026710D02*
X046460Y026710D01*
X046460Y026631D02*
X045250Y026631D01*
X045329Y026553D02*
X046460Y026553D01*
X046460Y026474D02*
X045407Y026474D01*
X045486Y026396D02*
X046460Y026396D01*
X046460Y026317D02*
X045564Y026317D01*
X045643Y026239D02*
X046460Y026239D01*
X046460Y026160D02*
X045664Y026160D01*
X045664Y026082D02*
X046460Y026082D01*
X046460Y026003D02*
X046361Y026003D01*
X046327Y026037D02*
X046232Y026077D01*
X046128Y026077D01*
X046033Y026037D01*
X045959Y025964D01*
X045920Y025868D01*
X045920Y025765D01*
X045959Y025669D01*
X046033Y025596D01*
X046128Y025557D01*
X046232Y025557D01*
X046327Y025596D01*
X046400Y025669D01*
X046440Y025765D01*
X046440Y025868D01*
X046400Y025964D01*
X046327Y026037D01*
X046417Y025925D02*
X046460Y025925D01*
X046460Y025846D02*
X046440Y025846D01*
X046440Y025768D02*
X046460Y025768D01*
X046460Y025689D02*
X046408Y025689D01*
X046460Y025611D02*
X046342Y025611D01*
X046291Y025532D02*
X046460Y025532D01*
X046460Y025454D02*
X046391Y025454D01*
X046400Y025444D02*
X046327Y025517D01*
X046232Y025557D01*
X046128Y025557D01*
X046033Y025517D01*
X045959Y025444D01*
X045920Y025348D01*
X045920Y025245D01*
X045959Y025149D01*
X046033Y025076D01*
X046128Y025037D01*
X046232Y025037D01*
X046327Y025076D01*
X046400Y025149D01*
X046440Y025245D01*
X046440Y025348D01*
X046400Y025444D01*
X046429Y025375D02*
X046460Y025375D01*
X046460Y025297D02*
X046440Y025297D01*
X046429Y025218D02*
X046460Y025218D01*
X046460Y025140D02*
X046391Y025140D01*
X046460Y025061D02*
X046291Y025061D01*
X046329Y024904D02*
X046460Y024904D01*
X046460Y024826D02*
X046408Y024826D01*
X046460Y024983D02*
X045207Y024983D01*
X045285Y025061D02*
X046069Y025061D01*
X045969Y025140D02*
X045364Y025140D01*
X045442Y025218D02*
X045931Y025218D01*
X045920Y025297D02*
X045521Y025297D01*
X045599Y025375D02*
X045931Y025375D01*
X045969Y025454D02*
X045664Y025454D01*
X045664Y025532D02*
X046069Y025532D01*
X046018Y025611D02*
X045664Y025611D01*
X045664Y025689D02*
X045951Y025689D01*
X045920Y025768D02*
X045664Y025768D01*
X045664Y025846D02*
X045920Y025846D01*
X045943Y025925D02*
X045664Y025925D01*
X045664Y026003D02*
X045999Y026003D01*
X045191Y025532D02*
X043762Y025532D01*
X043780Y025488D02*
X043740Y025584D01*
X043667Y025657D01*
X043572Y025697D01*
X043468Y025697D01*
X043373Y025657D01*
X043299Y025584D01*
X043260Y025488D01*
X043260Y025385D01*
X043299Y025289D01*
X043373Y025216D01*
X043468Y025177D01*
X043572Y025177D01*
X043667Y025216D01*
X043740Y025289D01*
X043780Y025385D01*
X043780Y025488D01*
X043780Y025454D02*
X045112Y025454D01*
X045034Y025375D02*
X043776Y025375D01*
X043743Y025297D02*
X044595Y025297D01*
X044486Y025218D02*
X043669Y025218D01*
X043371Y025218D02*
X033880Y025218D01*
X033880Y025140D02*
X044444Y025140D01*
X044430Y025061D02*
X033880Y025061D01*
X033880Y024983D02*
X044438Y024983D01*
X044473Y024904D02*
X033880Y024904D01*
X033880Y024826D02*
X044563Y024826D01*
X044816Y024826D02*
X044972Y024826D01*
X044920Y024747D02*
X033880Y024747D01*
X033880Y024669D02*
X044887Y024669D01*
X044875Y024590D02*
X033880Y024590D01*
X033880Y024512D02*
X043820Y024512D01*
X043701Y024433D02*
X033880Y024433D01*
X033880Y024355D02*
X043655Y024355D01*
X043629Y024276D02*
X033880Y024276D01*
X033880Y024198D02*
X043550Y024198D01*
X043472Y024119D02*
X033880Y024119D01*
X033880Y024041D02*
X043393Y024041D01*
X043315Y023962D02*
X037335Y023962D01*
X037347Y023957D02*
X037252Y023997D01*
X037148Y023997D01*
X037053Y023957D01*
X036979Y023884D01*
X036940Y023788D01*
X036940Y023685D01*
X036979Y023589D01*
X037053Y023516D01*
X037148Y023477D01*
X037252Y023477D01*
X037347Y023516D01*
X037420Y023589D01*
X037460Y023685D01*
X037460Y023788D01*
X037420Y023884D01*
X037347Y023957D01*
X037420Y023884D02*
X043236Y023884D01*
X043158Y023805D02*
X037453Y023805D01*
X037460Y023727D02*
X043079Y023727D01*
X043001Y023648D02*
X037445Y023648D01*
X037401Y023570D02*
X042922Y023570D01*
X042844Y023491D02*
X042649Y023491D01*
X042720Y023413D02*
X042765Y023413D01*
X043017Y023099D02*
X044690Y023099D01*
X044657Y023177D02*
X043095Y023177D01*
X043174Y023256D02*
X044630Y023256D01*
X044630Y023334D02*
X043252Y023334D01*
X043331Y023413D02*
X044630Y023413D01*
X044630Y023491D02*
X043409Y023491D01*
X043488Y023570D02*
X044630Y023570D01*
X044662Y023648D02*
X043566Y023648D01*
X043645Y023727D02*
X044695Y023727D01*
X044727Y023805D02*
X043723Y023805D01*
X043802Y023884D02*
X044767Y023884D01*
X044846Y023962D02*
X043880Y023962D01*
X044041Y024041D02*
X044924Y024041D01*
X045027Y024119D02*
X044120Y024119D01*
X044152Y024198D02*
X045072Y024198D01*
X044983Y024276D02*
X044158Y024276D01*
X044141Y024355D02*
X044924Y024355D01*
X044892Y024433D02*
X044095Y024433D01*
X043976Y024512D02*
X044875Y024512D01*
X045596Y024276D02*
X045783Y024276D01*
X045724Y024355D02*
X045655Y024355D01*
X045688Y024433D02*
X045692Y024433D01*
X045683Y024198D02*
X045872Y024198D01*
X045872Y024119D02*
X046460Y024119D01*
X046460Y024041D02*
X045975Y024041D01*
X046054Y023962D02*
X046460Y023962D01*
X046460Y023884D02*
X046132Y023884D01*
X046172Y023805D02*
X046460Y023805D01*
X046460Y023727D02*
X046205Y023727D01*
X046237Y023648D02*
X046460Y023648D01*
X046460Y023570D02*
X046270Y023570D01*
X046270Y023491D02*
X046460Y023491D01*
X046460Y023413D02*
X046270Y023413D01*
X046270Y023334D02*
X046460Y023334D01*
X046460Y023256D02*
X046270Y023256D01*
X046242Y023177D02*
X046460Y023177D01*
X046460Y023099D02*
X046210Y023099D01*
X046177Y023020D02*
X046460Y023020D01*
X046460Y022942D02*
X046144Y022942D01*
X046066Y022863D02*
X046460Y022863D01*
X046460Y022785D02*
X045987Y022785D01*
X045901Y022706D02*
X046460Y022706D01*
X046460Y022628D02*
X045712Y022628D01*
X045188Y022628D02*
X042546Y022628D01*
X042624Y022706D02*
X044998Y022706D01*
X044912Y022785D02*
X042703Y022785D01*
X042781Y022863D02*
X044834Y022863D01*
X046308Y024198D02*
X046460Y024198D01*
X046460Y024276D02*
X046396Y024276D01*
X046455Y024355D02*
X046460Y024355D01*
X045850Y024904D02*
X045529Y024904D01*
X045608Y024826D02*
X045772Y024826D01*
X045720Y024747D02*
X045660Y024747D01*
X044955Y025297D02*
X044785Y025297D01*
X044978Y025611D02*
X043714Y025611D01*
X043590Y025689D02*
X044911Y025689D01*
X044653Y025768D02*
X033880Y025768D01*
X033880Y025846D02*
X044563Y025846D01*
X044032Y026317D02*
X043748Y026317D01*
X043799Y026396D02*
X043980Y026396D01*
X043960Y026474D02*
X043820Y026474D01*
X043818Y026553D02*
X043962Y026553D01*
X043994Y026631D02*
X043786Y026631D01*
X043715Y026710D02*
X044065Y026710D01*
X043450Y025689D02*
X033880Y025689D01*
X033880Y025611D02*
X043326Y025611D01*
X043278Y025532D02*
X033880Y025532D01*
X033880Y025454D02*
X043260Y025454D01*
X043264Y025375D02*
X033880Y025375D01*
X033880Y025297D02*
X043296Y025297D01*
X042339Y023491D02*
X037287Y023491D01*
X037113Y023491D02*
X036454Y023491D01*
X036460Y023505D02*
X036420Y023409D01*
X036347Y023336D01*
X036252Y023297D01*
X036148Y023297D01*
X036053Y023336D01*
X035979Y023409D01*
X035940Y023505D01*
X035940Y023608D01*
X035979Y023704D01*
X036053Y023777D01*
X036148Y023817D01*
X036252Y023817D01*
X036347Y023777D01*
X036420Y023704D01*
X036460Y023608D01*
X036460Y023505D01*
X036460Y023570D02*
X036999Y023570D01*
X036955Y023648D02*
X036443Y023648D01*
X036398Y023727D02*
X036940Y023727D01*
X036947Y023805D02*
X036279Y023805D01*
X036120Y023805D02*
X033880Y023805D01*
X033880Y023727D02*
X036002Y023727D01*
X035956Y023648D02*
X033880Y023648D01*
X033880Y023570D02*
X035940Y023570D01*
X035946Y023491D02*
X033880Y023491D01*
X033880Y023413D02*
X035978Y023413D01*
X036058Y023334D02*
X033880Y023334D01*
X033880Y023256D02*
X038258Y023256D01*
X038284Y023267D02*
X038189Y023227D01*
X038115Y023154D01*
X038076Y023058D01*
X038076Y022955D01*
X038115Y022859D01*
X038189Y022786D01*
X038284Y022747D01*
X038388Y022747D01*
X038483Y022786D01*
X038556Y022859D01*
X038596Y022955D01*
X038596Y023058D01*
X038556Y023154D01*
X038483Y023227D01*
X038388Y023267D01*
X038284Y023267D01*
X038414Y023256D02*
X042234Y023256D01*
X042235Y023334D02*
X036342Y023334D01*
X036422Y023413D02*
X042268Y023413D01*
X042254Y023177D02*
X038533Y023177D01*
X038579Y023099D02*
X042306Y023099D01*
X042373Y023020D02*
X038596Y023020D01*
X038590Y022942D02*
X042294Y022942D01*
X042216Y022863D02*
X038558Y022863D01*
X038479Y022785D02*
X042137Y022785D01*
X042059Y022706D02*
X034875Y022706D01*
X034900Y022785D02*
X038192Y022785D01*
X038114Y022863D02*
X034900Y022863D01*
X034869Y022942D02*
X038081Y022942D01*
X038076Y023020D02*
X034804Y023020D01*
X034476Y023020D02*
X033880Y023020D01*
X033880Y023099D02*
X038093Y023099D01*
X038139Y023177D02*
X033880Y023177D01*
X033936Y022942D02*
X034410Y022942D01*
X034380Y022863D02*
X034021Y022863D01*
X034053Y022785D02*
X034380Y022785D01*
X034404Y022706D02*
X034093Y022706D01*
X033750Y023727D02*
X033478Y023727D01*
X033547Y023805D02*
X033750Y023805D01*
X033750Y023884D02*
X033579Y023884D01*
X033580Y023962D02*
X033750Y023962D01*
X033750Y024041D02*
X033558Y024041D01*
X033505Y024119D02*
X033750Y024119D01*
X033880Y023962D02*
X037065Y023962D01*
X036979Y023884D02*
X033880Y023884D01*
X033750Y028123D02*
X023650Y028123D01*
X023641Y028044D02*
X025094Y028044D01*
X024991Y027966D02*
X023607Y027966D01*
X023636Y028201D02*
X033750Y028201D01*
X033750Y028280D02*
X023595Y028280D01*
X023632Y028358D02*
X033750Y028358D01*
X033750Y028437D02*
X023660Y028437D01*
X023660Y028515D02*
X033750Y028515D01*
X033880Y028751D02*
X035229Y028751D01*
X035152Y028829D02*
X033880Y028829D01*
X033880Y028908D02*
X035120Y028908D01*
X035115Y028986D02*
X033880Y028986D01*
X033880Y029065D02*
X035132Y029065D01*
X035179Y029143D02*
X033880Y029143D01*
X033880Y029222D02*
X035299Y029222D01*
X035451Y029222D02*
X043451Y029222D01*
X043450Y029300D02*
X033880Y029300D01*
X033880Y029379D02*
X043471Y029379D01*
X043523Y029457D02*
X033880Y029457D01*
X033750Y030949D02*
X032190Y030949D01*
X032258Y031027D02*
X033112Y031027D01*
X033123Y031016D02*
X033218Y030977D01*
X033322Y030977D01*
X033417Y031016D01*
X033490Y031089D01*
X033530Y031185D01*
X033530Y031288D01*
X033490Y031384D01*
X033417Y031457D01*
X033322Y031497D01*
X033218Y031497D01*
X033123Y031457D01*
X033049Y031384D01*
X033010Y031288D01*
X033010Y031185D01*
X033049Y031089D01*
X033123Y031016D01*
X033043Y031106D02*
X032290Y031106D01*
X032290Y031184D02*
X033010Y031184D01*
X033010Y031263D02*
X032267Y031263D01*
X032213Y031341D02*
X033032Y031341D01*
X033085Y031420D02*
X031260Y031420D01*
X031256Y031498D02*
X033750Y031498D01*
X033750Y031420D02*
X033455Y031420D01*
X033508Y031341D02*
X033750Y031341D01*
X033750Y031263D02*
X033530Y031263D01*
X033530Y031184D02*
X033750Y031184D01*
X033750Y031106D02*
X033497Y031106D01*
X033428Y031027D02*
X033750Y031027D01*
X033750Y031577D02*
X031223Y031577D01*
X031149Y031655D02*
X033750Y031655D01*
X033880Y031655D02*
X033892Y031655D01*
X033880Y031577D02*
X033932Y031577D01*
X033890Y031812D02*
X033880Y031812D01*
X033880Y031891D02*
X033926Y031891D01*
X033880Y031969D02*
X034022Y031969D01*
X033750Y032205D02*
X033376Y032205D01*
X033428Y032283D02*
X033750Y032283D01*
X033750Y032362D02*
X033450Y032362D01*
X033449Y032440D02*
X033750Y032440D01*
X033750Y032519D02*
X033417Y032519D01*
X033347Y032597D02*
X033750Y032597D01*
X033880Y032597D02*
X033939Y032597D01*
X033880Y032519D02*
X034042Y032519D01*
X034075Y032440D02*
X033880Y032440D01*
X033880Y032362D02*
X034147Y032362D01*
X033919Y033068D02*
X033880Y033068D01*
X034296Y033225D02*
X034420Y033225D01*
X034420Y033304D02*
X034354Y033304D01*
X034380Y033382D02*
X034442Y033382D01*
X034496Y033461D02*
X034380Y033461D01*
X034351Y033539D02*
X037400Y033539D01*
X037404Y033618D02*
X034286Y033618D01*
X033880Y033932D02*
X039018Y033932D01*
X039066Y034010D02*
X033880Y034010D01*
X034864Y033461D02*
X037418Y033461D01*
X037467Y033382D02*
X034918Y033382D01*
X034940Y033304D02*
X037591Y033304D01*
X037729Y033304D02*
X038125Y033304D01*
X038054Y033382D02*
X037853Y033382D01*
X037902Y033461D02*
X038022Y033461D01*
X038020Y033539D02*
X037920Y033539D01*
X037916Y033618D02*
X038040Y033618D01*
X038092Y033696D02*
X037883Y033696D01*
X037809Y033775D02*
X038223Y033775D01*
X038538Y033461D02*
X042060Y033461D01*
X042014Y033382D02*
X038506Y033382D01*
X038435Y033304D02*
X041998Y033304D01*
X042004Y033225D02*
X034940Y033225D01*
X034907Y033147D02*
X041022Y033147D01*
X040965Y033068D02*
X036312Y033068D01*
X036168Y033068D02*
X034839Y033068D01*
X036435Y032990D02*
X040940Y032990D01*
X040940Y032911D02*
X036482Y032911D01*
X036500Y032833D02*
X040970Y032833D01*
X041035Y032754D02*
X036495Y032754D01*
X034463Y030949D02*
X034356Y030949D01*
X034403Y030870D02*
X034519Y030870D01*
X031847Y031341D02*
X031242Y031341D01*
X031194Y031263D02*
X031792Y031263D01*
X027853Y029771D02*
X027782Y029771D01*
X027821Y027966D02*
X026179Y027966D01*
X026247Y027887D02*
X027752Y027887D01*
X027720Y027809D02*
X026280Y027809D01*
X026280Y027730D02*
X027720Y027730D01*
X027742Y027652D02*
X026258Y027652D01*
X026204Y027573D02*
X027796Y027573D01*
X025316Y030713D02*
X023894Y030713D01*
X023867Y030686D02*
X023940Y030759D01*
X023980Y030855D01*
X023980Y030958D01*
X023940Y031054D01*
X023867Y031127D01*
X023772Y031167D01*
X023668Y031167D01*
X023573Y031127D01*
X023499Y031054D01*
X023460Y030958D01*
X023460Y030855D01*
X023499Y030759D01*
X023573Y030686D01*
X023668Y030647D01*
X023772Y030647D01*
X023867Y030686D01*
X023954Y030792D02*
X025256Y030792D01*
X025230Y030870D02*
X023980Y030870D01*
X023980Y030949D02*
X025230Y030949D01*
X025258Y031027D02*
X023951Y031027D01*
X023889Y031106D02*
X025321Y031106D01*
X023551Y031106D02*
X023294Y031106D01*
X023272Y031127D02*
X023177Y031167D01*
X023073Y031167D01*
X022978Y031127D01*
X022904Y031054D01*
X022865Y030958D01*
X022865Y030855D01*
X022904Y030759D01*
X022978Y030686D01*
X023073Y030647D01*
X023177Y030647D01*
X023272Y030686D01*
X023345Y030759D01*
X023385Y030855D01*
X023385Y030958D01*
X023345Y031054D01*
X023272Y031127D01*
X023356Y031027D02*
X023488Y031027D01*
X023460Y030949D02*
X023385Y030949D01*
X023385Y030870D02*
X023460Y030870D01*
X023486Y030792D02*
X023359Y030792D01*
X023299Y030713D02*
X023546Y030713D01*
X022951Y030713D02*
X022709Y030713D01*
X022682Y030686D02*
X022755Y030759D01*
X022795Y030855D01*
X022795Y030958D01*
X022755Y031054D01*
X022682Y031127D01*
X022587Y031167D01*
X022483Y031167D01*
X022388Y031127D01*
X022314Y031054D01*
X022275Y030958D01*
X022275Y030855D01*
X022314Y030759D01*
X022388Y030686D01*
X022483Y030647D01*
X022587Y030647D01*
X022682Y030686D01*
X022769Y030792D02*
X022891Y030792D01*
X022865Y030870D02*
X022795Y030870D01*
X022795Y030949D02*
X022865Y030949D01*
X022893Y031027D02*
X022766Y031027D01*
X022704Y031106D02*
X022956Y031106D01*
X022366Y031106D02*
X022114Y031106D01*
X022176Y031027D02*
X022303Y031027D01*
X022275Y030949D02*
X022205Y030949D01*
X022205Y030870D02*
X022275Y030870D01*
X022301Y030792D02*
X022179Y030792D01*
X022119Y030713D02*
X022361Y030713D01*
X023380Y035659D02*
X033750Y035659D01*
X033750Y035737D02*
X023380Y035737D01*
X023380Y035816D02*
X026623Y035816D01*
X026565Y035894D02*
X023380Y035894D01*
X023380Y035973D02*
X026540Y035973D01*
X026540Y036051D02*
X023380Y036051D01*
X023380Y036130D02*
X026569Y036130D01*
X026634Y036208D02*
X023380Y036208D01*
X023380Y036758D02*
X033750Y036758D01*
X033750Y036836D02*
X023380Y036836D01*
X023380Y036915D02*
X033750Y036915D01*
X033750Y036993D02*
X023380Y036993D01*
X031868Y037857D02*
X033750Y037857D01*
X033750Y037935D02*
X031933Y037935D01*
X031963Y038014D02*
X033750Y038014D01*
X033750Y038092D02*
X031963Y038092D01*
X031938Y038171D02*
X033750Y038171D01*
X033750Y038249D02*
X031881Y038249D01*
X033880Y037621D02*
X035487Y037621D01*
X035489Y037623D02*
X035415Y037550D01*
X035376Y037454D01*
X035376Y037351D01*
X035415Y037255D01*
X035489Y037182D01*
X035584Y037143D01*
X035688Y037143D01*
X035783Y037182D01*
X035856Y037255D01*
X035896Y037351D01*
X035896Y037454D01*
X035856Y037550D01*
X035783Y037623D01*
X035688Y037663D01*
X035584Y037663D01*
X035489Y037623D01*
X035412Y037543D02*
X033880Y037543D01*
X033880Y037464D02*
X035380Y037464D01*
X035376Y037386D02*
X033880Y037386D01*
X033880Y037307D02*
X035394Y037307D01*
X035442Y037229D02*
X033880Y037229D01*
X033880Y037150D02*
X035566Y037150D01*
X035706Y037150D02*
X037306Y037150D01*
X037270Y037072D02*
X033880Y037072D01*
X033880Y036993D02*
X037009Y036993D01*
X036936Y036915D02*
X033880Y036915D01*
X033880Y036836D02*
X036903Y036836D01*
X036900Y036758D02*
X033880Y036758D01*
X033880Y036679D02*
X036919Y036679D01*
X036968Y036601D02*
X033880Y036601D01*
X033880Y036365D02*
X039888Y036365D01*
X039922Y036287D02*
X033880Y036287D01*
X033880Y036208D02*
X040012Y036208D01*
X040268Y036208D02*
X043104Y036208D01*
X043104Y036130D02*
X033880Y036130D01*
X033880Y036051D02*
X043130Y036051D01*
X043189Y035973D02*
X033880Y035973D01*
X035830Y037229D02*
X037401Y037229D01*
X037639Y037229D02*
X040482Y037229D01*
X040413Y037307D02*
X035878Y037307D01*
X035896Y037386D02*
X040380Y037386D01*
X040380Y037464D02*
X035892Y037464D01*
X035859Y037543D02*
X040402Y037543D01*
X040455Y037621D02*
X035785Y037621D01*
X040148Y036836D02*
X040342Y036836D01*
X040290Y036758D02*
X040188Y036758D01*
X040234Y036679D02*
X040270Y036679D01*
X040392Y036365D02*
X043196Y036365D01*
X043133Y036287D02*
X040358Y036287D01*
X039454Y034010D02*
X045261Y034010D01*
X045198Y033932D02*
X039502Y033932D01*
X039520Y033853D02*
X045169Y033853D01*
X045169Y033775D02*
X039516Y033775D01*
X039483Y033696D02*
X045195Y033696D01*
X045254Y033618D02*
X039409Y033618D01*
X041378Y033147D02*
X042036Y033147D01*
X042116Y033068D02*
X041435Y033068D01*
X042400Y033068D02*
X042489Y033068D01*
X042467Y022549D02*
X046460Y022549D01*
X046460Y022471D02*
X042389Y022471D01*
X042334Y022416D02*
X042334Y022416D01*
D13*
X025316Y023813D03*
M02*
