%
M48
M72
T01C0.0080
T02C0.0200
T03C0.0350
T04C0.1160
%
T01
X32150Y22547
X33800Y22717
X34640Y22817
X34201Y23573
X33320Y23937
X36200Y23557
X37200Y23737
X38336Y23007
X42494Y23279
X43898Y24263
X44690Y25055
X43520Y25437
X43620Y25777
X43340Y26177
X43560Y26497
X43420Y26997
X44220Y26497
X44620Y26437
X44780Y25997
X45140Y25817
X45200Y26817
X44540Y27977
X43830Y28597
X43710Y29277
X43600Y30637
X42860Y30797
X42860Y30457
X43100Y31857
X42638Y33287
X42258Y33291
X41200Y32957
X40940Y34217
X40900Y35057
X40500Y35197
X40320Y34797
X38620Y34477
X39260Y33837
X38280Y33517
X37660Y33557
X36240Y32817
X35980Y32987
X35950Y31857
X35950Y31257
X36020Y30857
X35528Y29843
X35375Y28972
X35340Y28357
X36600Y28097
X36905Y28587
X38400Y28477
X38400Y28847
X38160Y29977
X37800Y30817
X38440Y30937
X39020Y31357
X39180Y30857
X39700Y30037
X39880Y28877
X41020Y28937
X41110Y31377
X39040Y32017
X37380Y35307
X37160Y36397
X37160Y36777
X37520Y36997
X38770Y36687
X39940Y36677
X40140Y36437
X40530Y36657
X40920Y36937
X40640Y37439
X42028Y37501
X43364Y36166
X44348Y37943
X42210Y39592
X41590Y40412
X43050Y40292
X45215Y34810
X45429Y33810
X44492Y32867
X44747Y32560
X44574Y31245
X45480Y31047
X46180Y25817
X46180Y25297
X34700Y31057
X34160Y30777
X33540Y31417
X33270Y31237
X34140Y31737
X34300Y32577
X34040Y32837
X34120Y33417
X34680Y33277
X33190Y32387
X32730Y32647
X32030Y31157
X31000Y31437
X31000Y32617
X30850Y33747
X31520Y34257
X31620Y35017
X31240Y35077
X31100Y35397
X30640Y35357
X30100Y35017
X29820Y35337
X29420Y34977
X28980Y34797
X28700Y34237
X28680Y33657
X28690Y33057
X28660Y32477
X28660Y31887
X28640Y31297
X29180Y30817
X28940Y30217
X28820Y29637
X28160Y29577
X27940Y30017
X27600Y29957
X26850Y31307
X25490Y30907
X25000Y29857
X23700Y29777
X23400Y29477
X23400Y28477
X23390Y28117
X25200Y27807
X26020Y27757
X27980Y27757
X28600Y27857
X29120Y26917
X28650Y25887
X29070Y25207
X27000Y24497
X23590Y25207
X23170Y25847
X22160Y29717
X21720Y29737
X21945Y30907
X22535Y30907
X23125Y30907
X23720Y30907
X28960Y28897
X31870Y28827
X29560Y33097
X26800Y36007
X28150Y36412
X28870Y36412
X28832Y37691
X27260Y37457
X26680Y37437
X26180Y37397
X25800Y37537
X24920Y37437
X24520Y37577
X24200Y40437
X28688Y40499
X31190Y39552
X31715Y40409
X32666Y38861
X31703Y38060
X33224Y36251
X35636Y37403
T02
X25316Y23813
T03
X45290Y24557
X46090Y24557
X45690Y27557
T04
X22450Y23407
X22450Y39907
X45450Y39907
X45450Y23407
M30
